<svg xmlns="http://www.w3.org/2000/svg" width="149.854" height="56.454" viewBox="0 0 149.854 56.454">
  <g id="banner-principal-decorativo-1" transform="translate(-1174.479 -504.046)">
    <path id="Path_998133" data-name="Path 998133" d="M49.7-29.171h105.16L110.165,18.695H5Z" transform="translate(1169.474 541.806)" fill="#19538d"/>
    <g id="Rare" transform="translate(1224.869 504.046)">
      <path id="Path_998874" data-name="Path 998874" d="M47.276,36.2,42.141,31.07c.117-.281.234-.559.344-.862a4.149,4.149,0,0,0-1.242-4.625,4,4,0,0,1,.012-6.216,4.087,4.087,0,0,0,1.24-4.547,21.444,21.444,0,0,0-1.659-3.612,22.064,22.064,0,0,0-2.268-3.188A4.117,4.117,0,0,0,34,6.829a4.1,4.1,0,0,1-3.436-.28A4.078,4.078,0,0,1,28.613,3.7,4.1,4.1,0,0,0,25.24.337a22.343,22.343,0,0,0-7.761,0,4.174,4.174,0,0,0-3.363,3.392A4,4,0,0,1,8.745,6.825a4.158,4.158,0,0,0-4.61,1.231,23.079,23.079,0,0,0-3.888,6.7A4.152,4.152,0,0,0,1.5,19.37a4.01,4.01,0,0,1,1.463,3.1A4.037,4.037,0,0,1,1.5,25.593,4.1,4.1,0,0,0,.239,30.144,20.58,20.58,0,0,0,1.89,33.716a22.191,22.191,0,0,0,2.276,3.225,4.107,4.107,0,0,0,4.589,1.192,4,4,0,0,1,5.367,3.135,4.161,4.161,0,0,0,3.372,3.354,22.055,22.055,0,0,0,3.854.339,22.627,22.627,0,0,0,3.9-.341,4.156,4.156,0,0,0,3.364-3.37,4.286,4.286,0,0,1,.4-1.165l7.189,7.189a6.1,6.1,0,0,0,4.337,1.8h.7a6.1,6.1,0,0,0,4.337-1.8l1.693-1.693a6.1,6.1,0,0,0,1.8-4.337v-.7a6.1,6.1,0,0,0-1.8-4.337ZM24.533,40.6a17.59,17.59,0,0,1-6.383-.038,8.06,8.06,0,0,0-3.942-5.691A8.24,8.24,0,0,0,7.29,34.3a18.089,18.089,0,0,1-1.865-2.642,12.692,12.692,0,0,1-1.282-2.943,8.174,8.174,0,0,0,2.913-6.244,8.271,8.271,0,0,0-2.973-6.3,17.482,17.482,0,0,1,3.28-5.5,8.129,8.129,0,0,0,6.847-.579A8.267,8.267,0,0,0,18.2,4.366a17.142,17.142,0,0,1,6.387.064,8.151,8.151,0,0,0,3.939,5.664,8.3,8.3,0,0,0,6.931.584A17.989,17.989,0,0,1,37.3,13.27a15.057,15.057,0,0,1,1.322,2.967,7.856,7.856,0,0,0-2.457,8.86l-1.325-1.325a6.151,6.151,0,0,0-2.4-1.483l-.9-.3a10.2,10.2,0,1,0-10.176,10.7c.339,0,.672-.041,1.007-.073a6.175,6.175,0,0,0,1.4,2.221l2.286,2.286A8.822,8.822,0,0,0,24.533,40.6Zm-1.5-21.442a3.066,3.066,0,0,0-3.877,3.879L21,28.568a6.12,6.12,0,1,1,6.157-8.039Zm21.95,22.091a2.058,2.058,0,0,1-.6,1.446l-1.693,1.693a2.058,2.058,0,0,1-1.446.6h-.7a2.058,2.058,0,0,1-1.446-.6L26.666,31.952a2.087,2.087,0,0,1-.5-.8l-2.49-7.471,7.474,2.49a2.067,2.067,0,0,1,.8.494L44.385,39.1a2.058,2.058,0,0,1,.6,1.446Z" transform="translate(0 0)" fill="#fff"/>
    </g>
  </g>
</svg>
