<svg xmlns="http://www.w3.org/2000/svg" xmlns:xlink="http://www.w3.org/1999/xlink" width="1020" height="568" viewBox="0 0 1020 568">
  <defs>
    <clipPath id="clip-path">
      <path id="Path_1001410" data-name="Path 1001410" d="M54.014,185.124a129.93,129.93,0,1,0,129.93-129.93,129.93,129.93,0,0,0-129.93,129.93" transform="translate(-54.014 -55.194)" fill="none"/>
    </clipPath>
    <radialGradient id="radial-gradient" cx="0.561" cy="0.015" r="0.981" gradientTransform="matrix(0, 1, 1, 0, -1.085, 1.085)" gradientUnits="objectBoundingBox">
      <stop offset="0" stop-color="#fff"/>
      <stop offset="1" stop-color="#ccc"/>
    </radialGradient>
    <clipPath id="clip-path-2">
      <path id="Path_1001411" data-name="Path 1001411" d="M58.357,184.031A124.494,124.494,0,1,0,182.851,59.537,124.494,124.494,0,0,0,58.357,184.031" transform="translate(-58.357 -59.537)" fill="none"/>
    </clipPath>
    <radialGradient id="radial-gradient-2" cx="0.561" cy="0.015" r="0.981" gradientTransform="matrix(0, 1, 1, 0, -1.133, 1.133)" gradientUnits="objectBoundingBox">
      <stop offset="0" stop-color="#ccc"/>
      <stop offset="1" stop-color="#fff"/>
    </radialGradient>
    <clipPath id="clip-path-3">
      <path id="Path_1001412" data-name="Path 1001412" d="M56.836,0a50.1,50.1,0,1,0,50.1,50.1A50.1,50.1,0,0,0,56.836,0Z" transform="translate(-6.738)" fill="none"/>
    </clipPath>
    <radialGradient id="radial-gradient-3" cx="0.561" cy="0.015" r="0.981" gradientTransform="matrix(0, 1, 1, 0, -2.885, 2.885)" xlink:href="#radial-gradient"/>
    <clipPath id="clip-path-4">
      <path id="Path_1001414" data-name="Path 1001414" d="M276.076,0a50.1,50.1,0,1,0,50.1,50.1A50.1,50.1,0,0,0,276.076,0Z" transform="translate(-225.978)" fill="none"/>
    </clipPath>
    <radialGradient id="radial-gradient-4" cx="0.561" cy="0.015" r="0.981" gradientTransform="matrix(0, 1, 1, 0, -4.84, 4.84)" xlink:href="#radial-gradient"/>
    <clipPath id="clip-path-5">
      <path id="Path_1001416" data-name="Path 1001416" d="M6.738,281.963a50.1,50.1,0,1,0,50.1-50.1,50.1,50.1,0,0,0-50.1,50.1" transform="translate(-6.738 -231.865)" fill="none"/>
    </clipPath>
    <radialGradient id="radial-gradient-5" cx="0.561" cy="0.015" r="0.981" gradientTransform="matrix(0, 1, 1, 0, -0.818, 0.818)" xlink:href="#radial-gradient"/>
    <clipPath id="clip-path-6">
      <path id="Path_1001418" data-name="Path 1001418" d="M225.978,281.963a50.1,50.1,0,1,0,50.1-50.1,50.1,50.1,0,0,0-50.1,50.1" transform="translate(-225.978 -231.865)" fill="none"/>
    </clipPath>
    <radialGradient id="radial-gradient-6" cx="0.561" cy="0.015" r="0.981" gradientTransform="matrix(0, 1, 1, 0, -2.773, 2.773)" xlink:href="#radial-gradient"/>
  </defs>
  <g id="img18" transform="translate(-289.711 -7115)">
    <g id="Group_1182433" data-name="Group 1182433">
      <rect id="Rectangle_456269" data-name="Rectangle 456269" width="1020" height="568" transform="translate(289.711 7115)" fill="#fffdc8"/>
      <line id="Line_3376" data-name="Line 3376" y1="247.034" x2="247.033" transform="translate(675.911 7276.681)" fill="none" stroke="#999" stroke-miterlimit="10" stroke-width="1.066"/>
      <line id="Line_3377" data-name="Line 3377" x2="247.033" y2="247.034" transform="translate(675.911 7276.682)" fill="none" stroke="#999" stroke-miterlimit="10" stroke-width="1.066"/>
      <path id="Path_1001406" data-name="Path 1001406" d="M38.438,198.715H0C0,89.793,88.614,1.18,197.535,1.18V39.618c-87.726,0-159.1,71.37-159.1,159.1" transform="translate(602 7201.438)" fill="#9ecfff"/>
      <path id="Path_1001407" data-name="Path 1001407" d="M197.535,356.539C88.614,356.539,0,267.926,0,159H38.438c0,87.727,71.37,159.1,159.1,159.1Z" transform="translate(602 7241.148)" fill="#cf9eff"/>
      <path id="Path_1001408" data-name="Path 1001408" d="M157.824,356.539V318.1c87.727,0,159.1-71.37,159.1-159.1h38.438c0,108.922-88.613,197.535-197.535,197.535" transform="translate(641.711 7241.148)" fill="#9ecfff"/>
      <path id="Path_1001409" data-name="Path 1001409" d="M355.359,198.715H316.921c0-87.727-71.37-159.1-159.1-159.1V1.18c108.922,0,197.535,88.613,197.535,197.535" transform="translate(641.711 7201.438)" fill="#cf9eff"/>
      <rect id="Rectangle_457246" data-name="Rectangle 457246" width="395.07" height="396.547" transform="translate(602 7201.141)" fill="none"/>
      <g id="Group_1182405" data-name="Group 1182405" transform="translate(669.605 7270.222)">
        <g id="Group_1182404" data-name="Group 1182404" clip-path="url(#clip-path)">
          <rect id="Rectangle_457247" data-name="Rectangle 457247" width="364.043" height="364.043" transform="matrix(0.797, -0.604, 0.604, 0.797, -125.066, 94.713)" fill="url(#radial-gradient)"/>
        </g>
      </g>
      <g id="Group_1182407" data-name="Group 1182407" transform="translate(675.041 7275.658)">
        <g id="Group_1182406" data-name="Group 1182406" clip-path="url(#clip-path-2)">
          <rect id="Rectangle_457248" data-name="Rectangle 457248" width="348.812" height="348.811" transform="matrix(0.797, -0.604, 0.604, 0.797, -119.833, 90.75)" fill="url(#radial-gradient-2)"/>
        </g>
      </g>
      <g id="Group_1182409" data-name="Group 1182409" transform="translate(610.433 7201.141)">
        <g id="Group_1182408" data-name="Group 1182408" clip-path="url(#clip-path-3)">
          <rect id="Rectangle_457249" data-name="Rectangle 457249" width="140.367" height="140.366" transform="matrix(0.797, -0.604, 0.604, 0.797, -48.222, 36.519)" fill="url(#radial-gradient-3)"/>
        </g>
      </g>
      <path id="Path_1001413" data-name="Path 1001413" d="M104.417,49.677a48,48,0,1,1-48-48,48,48,0,0,1,48,48" transform="translate(604.117 7201.325)" fill="#ffd470"/>
      <rect id="Rectangle_457250" data-name="Rectangle 457250" width="395.07" height="396.547" transform="translate(602 7201.141)" fill="none"/>
      <g id="Group_1182413" data-name="Group 1182413" transform="translate(884.838 7201.141)">
        <g id="Group_1182412" data-name="Group 1182412" clip-path="url(#clip-path-4)">
          <rect id="Rectangle_457251" data-name="Rectangle 457251" width="140.366" height="140.366" transform="matrix(0.797, -0.604, 0.604, 0.797, -48.222, 36.519)" fill="url(#radial-gradient-4)"/>
        </g>
      </g>
      <path id="Path_1001415" data-name="Path 1001415" d="M323.656,49.677a48,48,0,1,1-48-48,48,48,0,0,1,48,48" transform="translate(659.058 7201.325)" fill="#ffd470"/>
      <rect id="Rectangle_457252" data-name="Rectangle 457252" width="395.07" height="396.547" transform="translate(602 7201.141)" fill="none"/>
      <g id="Group_1182417" data-name="Group 1182417" transform="translate(610.433 7491.346)">
        <g id="Group_1182416" data-name="Group 1182416" clip-path="url(#clip-path-5)">
          <rect id="Rectangle_457253" data-name="Rectangle 457253" width="140.367" height="140.366" transform="matrix(0.797, -0.604, 0.604, 0.797, -48.222, 36.519)" fill="url(#radial-gradient-5)"/>
        </g>
      </g>
      <path id="Path_1001417" data-name="Path 1001417" d="M104.417,281.542a48,48,0,1,1-48-48,48,48,0,0,1,48,48" transform="translate(604.298 7259.46)" fill="#ffd470"/>
      <rect id="Rectangle_457254" data-name="Rectangle 457254" width="395.07" height="396.547" transform="translate(602 7201.141)" fill="none"/>
      <g id="Group_1182421" data-name="Group 1182421" transform="translate(884.838 7491.346)">
        <g id="Group_1182420" data-name="Group 1182420" clip-path="url(#clip-path-6)">
          <rect id="Rectangle_457255" data-name="Rectangle 457255" width="140.366" height="140.366" transform="matrix(0.797, -0.604, 0.604, 0.797, -48.222, 36.519)" fill="url(#radial-gradient-6)"/>
        </g>
      </g>
      <path id="Path_1001419" data-name="Path 1001419" d="M323.656,281.542a48,48,0,1,1-48-48,48,48,0,0,1,48,48" transform="translate(659.058 7259.46)" fill="#ffd470"/>
      <rect id="Rectangle_457256" data-name="Rectangle 457256" width="395.07" height="396.547" transform="translate(602 7201.141)" fill="none"/>
      <path id="Path_1003205" data-name="Path 1003205" d="M-22.916-6.035h-2.227V0h-4.113V-17.062h6.715a7.5,7.5,0,0,1,4.746,1.346,4.561,4.561,0,0,1,1.711,3.8,5.54,5.54,0,0,1-.721,2.95,5.115,5.115,0,0,1-2.256,1.9L-15.5-.176V0H-19.9ZM-25.143-9.2h2.6a2.335,2.335,0,0,0,1.764-.617,2.384,2.384,0,0,0,.592-1.721,2.412,2.412,0,0,0-.6-1.733,2.313,2.313,0,0,0-1.758-.629h-2.6Zm10.863,2.742a7.484,7.484,0,0,1,.738-3.381,5.28,5.28,0,0,1,2.121-2.279,6.388,6.388,0,0,1,3.246-.8A5.83,5.83,0,0,1-3.686-11.15a6.768,6.768,0,0,1,1.641,4.8v.141A6.566,6.566,0,0,1-3.691-1.506,5.846,5.846,0,0,1-8.15.234,5.912,5.912,0,0,1-12.5-1.389a6.348,6.348,0,0,1-1.77-4.4Zm3.949.246a4.718,4.718,0,0,0,.551,2.578,1.835,1.835,0,0,0,1.629.82q2.109,0,2.156-3.246v-.4q0-3.41-2.18-3.41-1.98,0-2.145,2.941ZM3.861,0H-.1V-18H3.861Zm8.566.234a6.518,6.518,0,0,1-4.723-1.74A6.009,6.009,0,0,1,5.9-6.035v-.328A7.787,7.787,0,0,1,6.621-9.8a5.274,5.274,0,0,1,2.1-2.3,6.35,6.35,0,0,1,3.281-.814,5.489,5.489,0,0,1,4.219,1.658,6.516,6.516,0,0,1,1.547,4.623V-5.1H9.92a2.846,2.846,0,0,0,.926,1.676,2.755,2.755,0,0,0,1.852.609,3.549,3.549,0,0,0,2.93-1.312l1.8,2.133A5.045,5.045,0,0,1,15.34-.369,7.069,7.069,0,0,1,12.428.234Zm-.445-10.1q-1.734,0-2.062,2.3H13.9v-.3a1.956,1.956,0,0,0-.48-1.471A1.912,1.912,0,0,0,11.982-9.867ZM26-3.562a.912.912,0,0,0-.527-.809,8.021,8.021,0,0,0-2-.633,9.138,9.138,0,0,1-2.437-.861A4.083,4.083,0,0,1,19.564-7.16a3.092,3.092,0,0,1-.5-1.746A3.5,3.5,0,0,1,20.5-11.783a5.938,5.938,0,0,1,3.773-1.131,6.579,6.579,0,0,1,4.031,1.137A3.555,3.555,0,0,1,29.83-8.789H25.869q0-1.523-1.605-1.523a1.591,1.591,0,0,0-1.043.346,1.07,1.07,0,0,0-.422.861.982.982,0,0,0,.516.855,4.872,4.872,0,0,0,1.646.539,14.228,14.228,0,0,1,1.986.5q2.859.984,2.859,3.527A3.321,3.321,0,0,1,28.266-.855a6.758,6.758,0,0,1-3.99,1.09,6.9,6.9,0,0,1-2.906-.586,4.86,4.86,0,0,1-1.992-1.594,3.609,3.609,0,0,1-.715-2.121h3.691a1.526,1.526,0,0,0,.586,1.283,2.41,2.41,0,0,0,1.441.4,1.9,1.9,0,0,0,1.213-.328A1.05,1.05,0,0,0,26-3.562ZM-19.869,20.965H-22.1V27h-4.113V9.938h6.715a7.5,7.5,0,0,1,4.746,1.346,4.561,4.561,0,0,1,1.711,3.8,5.54,5.54,0,0,1-.721,2.95,5.115,5.115,0,0,1-2.256,1.9l3.563,6.889V27h-4.406ZM-22.1,17.8h2.6a2.335,2.335,0,0,0,1.764-.617,2.384,2.384,0,0,0,.592-1.721,2.412,2.412,0,0,0-.6-1.733,2.313,2.313,0,0,0-1.758-.629h-2.6ZM-.861,23.813H-6.5L-7.482,27h-4.395L-5.619,9.938h3.867L4.553,27H.135Zm-4.652-3.176h3.668l-1.84-5.918Zm25.113.586a6.231,6.231,0,0,1-.961,3.146,5.8,5.8,0,0,1-2.467,2.115,8.4,8.4,0,0,1-3.627.75,6.7,6.7,0,0,1-5.3-2.191,9.048,9.048,0,0,1-1.934-6.187v-.844a10.328,10.328,0,0,1,.873-4.389A6.615,6.615,0,0,1,8.7,10.717a7.013,7.013,0,0,1,3.8-1.025,7.354,7.354,0,0,1,4.992,1.635,6.459,6.459,0,0,1,2.145,4.506h-4.1a3.056,3.056,0,0,0-.785-2.238,3.229,3.229,0,0,0-2.25-.68,2.457,2.457,0,0,0-2.25,1.148A7.381,7.381,0,0,0,9.5,17.73v1.207a8.167,8.167,0,0,0,.686,3.9,2.509,2.509,0,0,0,2.361,1.172,3.159,3.159,0,0,0,2.168-.668,2.835,2.835,0,0,0,.8-2.121ZM25.928,27h-4.1V9.938h4.1Z" transform="translate(800 7393.652)" fill="#12263f"/>
      <rect id="Rectangle_457257" data-name="Rectangle 457257" width="200" height="44" rx="20" transform="translate(934.711 7229)" fill="#ffd470"/>
      <rect id="Rectangle_457258" data-name="Rectangle 457258" width="200" height="44" rx="20" transform="translate(934.711 7519)" fill="#ffd470"/>
      <rect id="Rectangle_457259" data-name="Rectangle 457259" width="200" height="44" rx="20" transform="translate(460.532 7519)" fill="#ffd470"/>
      <rect id="Rectangle_457260" data-name="Rectangle 457260" width="200" height="44" rx="20" transform="translate(460.532 7229)" fill="#ffd470"/>
      <path id="Path_1003204" data-name="Path 1003204" d="M-60.491-4.526h-1.67V0h-3.085V-12.8h5.036a5.621,5.621,0,0,1,3.56,1.01,3.421,3.421,0,0,1,1.283,2.853,4.155,4.155,0,0,1-.541,2.213A3.837,3.837,0,0,1-57.6-5.3l2.672,5.167V0h-3.3ZM-62.161-6.9h1.951a1.751,1.751,0,0,0,1.323-.463,1.788,1.788,0,0,0,.444-1.291,1.809,1.809,0,0,0-.448-1.3,1.735,1.735,0,0,0-1.318-.471h-1.951ZM-36.871-5.08H-49.232V-7.4h12.361Zm10.394.554h-1.67L-28.938,0h-3.006l2.215-12.8,4.518.009a4.964,4.964,0,0,1,3.344,1.014A3.155,3.155,0,0,1-20.817-9a4.129,4.129,0,0,1-.8,2.3,4.708,4.708,0,0,1-1.969,1.436L-21.863-.15V0h-3.208ZM-27.743-6.9l1.758.018a2.215,2.215,0,0,0,1.252-.352,1.94,1.94,0,0,0,.76-.965,2.268,2.268,0,0,0,.132-1.185,1.18,1.18,0,0,0-1.248-1.031l-2.039-.009ZM-15.869.176a4.421,4.421,0,0,1-2.272-.6,3.793,3.793,0,0,1-1.507-1.652,4.44,4.44,0,0,1-.4-2.333l.026-.246A5.829,5.829,0,0,1-18.4-8.372a4.51,4.51,0,0,1,3.415-1.314,3.678,3.678,0,0,1,2.092.621A3.468,3.468,0,0,1-11.615-7.4a5.1,5.1,0,0,1,.264,2.381l-.167,1.206h-5.66A1.854,1.854,0,0,0-16.756-2.6a1.549,1.549,0,0,0,1.178.492,2.993,2.993,0,0,0,2.259-.967l1.213,1.6a3.578,3.578,0,0,1-1.5,1.2,5.263,5.263,0,0,1-2.1.451Zm.7-7.576a1.487,1.487,0,0,0-1.068.385,3.229,3.229,0,0,0-.787,1.347h2.892l.053-.254a1.929,1.929,0,0,0,.018-.577A1.017,1.017,0,0,0-15.166-7.4Zm9.527,4.676q.114-.58-.9-.87l-.624-.158A4.806,4.806,0,0,1-9.4-4.887a2.244,2.244,0,0,1-.668-1.731A2.758,2.758,0,0,1-8.851-8.846,4.633,4.633,0,0,1-5.99-9.686a4.292,4.292,0,0,1,2.72.853A2.781,2.781,0,0,1-2.21-6.583l-2.883-.009q.035-1.125-.993-1.125a1.417,1.417,0,0,0-.817.259,1.007,1.007,0,0,0-.448.69q-.149.712,1.257.976a7.3,7.3,0,0,1,1.89.672,2.821,2.821,0,0,1,1.02.945,2.35,2.35,0,0,1,.325,1.354,2.541,2.541,0,0,1-.562,1.538A3.642,3.642,0,0,1-4.975-.2a5.557,5.557,0,0,1-2.2.378A4.469,4.469,0,0,1-9.088-.255,3.408,3.408,0,0,1-10.468-1.4a2.979,2.979,0,0,1-.514-1.666l2.689.018A1.111,1.111,0,0,0-7.027-1.8a1.661,1.661,0,0,0,.914-.242A1.045,1.045,0,0,0-5.638-2.725ZM7.431-4.746a7.9,7.9,0,0,1-.782,2.659A4.348,4.348,0,0,1,5.168-.356,3.417,3.417,0,0,1,3.195.185,2.584,2.584,0,0,1,1.173-.8L.312,3.656H-2.58L-.294-9.51l2.672-.009-.149.905A2.8,2.8,0,0,1,4.487-9.686a2.662,2.662,0,0,1,2.167.993,4.388,4.388,0,0,1,.831,2.663A10.274,10.274,0,0,1,7.431-4.746ZM4.619-5.924Q4.575-7.374,3.634-7.4a1.7,1.7,0,0,0-1.521.747L1.437-2.883A1.173,1.173,0,0,0,2.65-2.1q1.538.026,1.89-2.646Q4.619-5.59,4.619-5.924ZM13.5-9.686a3.994,3.994,0,0,1,2.206.637,3.59,3.59,0,0,1,1.367,1.727A5.33,5.33,0,0,1,17.38-4.86l-.018.193a5.636,5.636,0,0,1-1.626,3.533,4.575,4.575,0,0,1-3.41,1.31,3.977,3.977,0,0,1-2.188-.628A3.612,3.612,0,0,1,8.771-2.162a5.179,5.179,0,0,1-.321-2.443,5.863,5.863,0,0,1,1.6-3.727A4.547,4.547,0,0,1,13.5-9.686ZM11.342-4.6l-.026.518q-.123,1.957,1.2,1.992,1.705.053,1.978-2.764l.035-.8a2.155,2.155,0,0,0-.294-1.259,1.073,1.073,0,0,0-.918-.487A1.512,1.512,0,0,0,12-6.747,4.278,4.278,0,0,0,11.342-4.6ZM22.135-9.519l-.2,1.143a3.38,3.38,0,0,1,2.751-1.318,2.27,2.27,0,0,1,1.964.98,4.1,4.1,0,0,1,.47,2.729L26.117,0h-2.9l1.011-6.01a3.108,3.108,0,0,0,.018-.563q-.062-.836-.984-.836a1.807,1.807,0,0,0-1.4.678L20.676,0H17.785l1.652-9.51Zm11,6.794q.114-.58-.9-.87l-.624-.158a4.806,4.806,0,0,1-2.241-1.134,2.244,2.244,0,0,1-.668-1.731,2.758,2.758,0,0,1,1.217-2.228,4.633,4.633,0,0,1,2.861-.839,4.292,4.292,0,0,1,2.72.853,2.781,2.781,0,0,1,1.059,2.25l-2.883-.009q.035-1.125-.993-1.125a1.417,1.417,0,0,0-.817.259,1.007,1.007,0,0,0-.448.69q-.149.712,1.257.976a7.3,7.3,0,0,1,1.89.672,2.821,2.821,0,0,1,1.02.945,2.35,2.35,0,0,1,.325,1.354,2.541,2.541,0,0,1-.562,1.538A3.642,3.642,0,0,1,33.8-.2a5.557,5.557,0,0,1-2.2.378,4.469,4.469,0,0,1-1.912-.431A3.408,3.408,0,0,1,28.31-1.4,2.979,2.979,0,0,1,27.8-3.067l2.689.018A1.111,1.111,0,0,0,31.75-1.8a1.661,1.661,0,0,0,.914-.242A1.045,1.045,0,0,0,33.139-2.725ZM39.863,0h-2.9l1.652-9.51h2.9ZM38.87-11.909a1.341,1.341,0,0,1,.453-1.072,1.625,1.625,0,0,1,1.138-.431,1.678,1.678,0,0,1,1.129.387,1.318,1.318,0,0,1,.47,1.011,1.344,1.344,0,0,1-.448,1.077,1.63,1.63,0,0,1-1.143.426,1.7,1.7,0,0,1-1.121-.382A1.3,1.3,0,0,1,38.87-11.909ZM51.086-4.737A6.891,6.891,0,0,1,49.724-1.1,3.409,3.409,0,0,1,46.859.185,2.522,2.522,0,0,1,44.7-.993L44.336,0H41.717l2.347-13.5h2.892l-.94,4.772a2.87,2.87,0,0,1,2.136-.958,2.679,2.679,0,0,1,2.18,1,4.351,4.351,0,0,1,.826,2.667,9.674,9.674,0,0,1-.044,1.1Zm-2.874-.171a9.1,9.1,0,0,0,.079-1.018q0-1.413-1.011-1.474a1.732,1.732,0,0,0-1.5.763l-.686,3.791a1.163,1.163,0,0,0,1.2.746q1.415.044,1.784-1.843l.123-.781ZM54.664,0h-2.9L54.1-13.5H57Zm6.565.176a4.421,4.421,0,0,1-2.272-.6A3.793,3.793,0,0,1,57.45-2.079a4.44,4.44,0,0,1-.4-2.333l.026-.246A5.829,5.829,0,0,1,58.7-8.372a4.51,4.51,0,0,1,3.415-1.314,3.678,3.678,0,0,1,2.092.621A3.468,3.468,0,0,1,65.483-7.4a5.1,5.1,0,0,1,.264,2.381L65.58-3.814h-5.66A1.854,1.854,0,0,0,60.341-2.6a1.549,1.549,0,0,0,1.178.492,2.993,2.993,0,0,0,2.259-.967l1.213,1.6a3.578,3.578,0,0,1-1.5,1.2,5.263,5.263,0,0,1-2.1.451Zm.7-7.576a1.487,1.487,0,0,0-1.068.385,3.229,3.229,0,0,0-.787,1.347h2.892l.053-.254A1.929,1.929,0,0,0,63.04-6.5,1.017,1.017,0,0,0,61.932-7.4Z" transform="translate(555.711 7257)" fill="#12263f"/>
      <path id="Path_1003208" data-name="Path 1003208" d="M-46.182,0h-3.076V-12.8h3.076Zm18.777-5.08H-39.766V-7.4h12.361ZM-19.27,0h-3.006l2.224-12.8h3Zm6.3-9.519-.2,1.143a3.38,3.38,0,0,1,2.751-1.318,2.27,2.27,0,0,1,1.964.98,4.1,4.1,0,0,1,.47,2.729L-8.987,0h-2.9l1.011-6.01a3.108,3.108,0,0,0,.018-.563q-.062-.836-.984-.836a1.807,1.807,0,0,0-1.4.678L-14.427,0h-2.892l1.652-9.51ZM-6.693,0-5.4-7.453H-6.737l.352-2.057,1.336-.009.114-.835a3.881,3.881,0,0,1,1.213-2.417A3.937,3.937,0,0,1-.954-13.7a8.524,8.524,0,0,1,1.433.194l-.22,2.2a2.8,2.8,0,0,0-.686-.105,1.8,1.8,0,0,0-1.059.293,1.311,1.311,0,0,0-.532.844l-.132.77h1.8L-.7-7.453H-2.5L-3.792,0ZM4.636-9.686a3.994,3.994,0,0,1,2.206.637A3.59,3.59,0,0,1,8.209-7.321,5.33,5.33,0,0,1,8.521-4.86L8.5-4.667A5.636,5.636,0,0,1,6.877-1.134,4.575,4.575,0,0,1,3.467.176,3.977,3.977,0,0,1,1.279-.453,3.612,3.612,0,0,1-.088-2.162,5.179,5.179,0,0,1-.409-4.605,5.863,5.863,0,0,1,1.2-8.332,4.547,4.547,0,0,1,4.636-9.686ZM2.483-4.6l-.026.518q-.123,1.957,1.2,1.992,1.705.053,1.978-2.764l.035-.8A2.155,2.155,0,0,0,5.37-6.913,1.073,1.073,0,0,0,4.452-7.4a1.512,1.512,0,0,0-1.314.654A4.278,4.278,0,0,0,2.483-4.6ZM15.851-6.829a8.273,8.273,0,0,0-.9-.088,2.233,2.233,0,0,0-1.986.9L11.9,0H9l1.652-9.51,2.7-.009-.22,1.248a2.64,2.64,0,0,1,2.2-1.441,4.144,4.144,0,0,1,.9.123Zm4.2-2.689-.193,1.143a3.414,3.414,0,0,1,2.777-1.31,2.509,2.509,0,0,1,1.415.4,1.843,1.843,0,0,1,.738,1.028,3.619,3.619,0,0,1,2.892-1.433,2.241,2.241,0,0,1,1.956.989A4.117,4.117,0,0,1,30.1-5.985L29.1,0H26.2l1.011-5.987.035-.518q0-.869-.817-.9a1.872,1.872,0,0,0-1.424.781L23.858,0h-2.9l1-5.969.035-.527q0-.9-.817-.9a1.86,1.86,0,0,0-1.406.781L18.6,0H15.71l1.652-9.51ZM35.547.176a4.421,4.421,0,0,1-2.272-.6,3.793,3.793,0,0,1-1.507-1.652,4.44,4.44,0,0,1-.4-2.333l.026-.246a5.829,5.829,0,0,1,1.63-3.713,4.51,4.51,0,0,1,3.415-1.314,3.678,3.678,0,0,1,2.092.621A3.468,3.468,0,0,1,39.8-7.4a5.1,5.1,0,0,1,.264,2.381L39.9-3.814h-5.66A1.854,1.854,0,0,0,34.66-2.6a1.549,1.549,0,0,0,1.178.492A2.993,2.993,0,0,0,38.1-3.076l1.213,1.6a3.578,3.578,0,0,1-1.5,1.2,5.263,5.263,0,0,1-2.1.451Zm.7-7.576a1.487,1.487,0,0,0-1.068.385A3.229,3.229,0,0,0,34.4-5.669h2.892l.053-.254a1.929,1.929,0,0,0,.018-.577A1.017,1.017,0,0,0,36.25-7.4Zm4.641,2.628a6.917,6.917,0,0,1,1.371-3.6,3.4,3.4,0,0,1,2.865-1.31,2.592,2.592,0,0,1,2.013,1.02l.923-4.834h2.9L48.625,0H46.05l.123-1.028A2.968,2.968,0,0,1,43.809.185,2.62,2.62,0,0,1,41.66-.831a4.476,4.476,0,0,1-.831-2.676,8.231,8.231,0,0,1,.035-1.081Zm2.883.2a6.9,6.9,0,0,0-.062.984q0,1.459.984,1.485a1.844,1.844,0,0,0,1.521-.817l.65-3.647a1.171,1.171,0,0,0-1.16-.835,1.478,1.478,0,0,0-1.305.7A4.507,4.507,0,0,0,43.774-4.57Z" transform="translate(539.711 7547.002)" fill="#12263f"/>
      <path id="Path_1003206" data-name="Path 1003206" d="M8.235-2.391H4.008L3.27,0h-3.3L4.667-12.8h2.9L12.3,0H8.982ZM4.746-4.772H7.5L6.117-9.211ZM29.86-5.08H17.5V-7.4H29.86ZM42.3-2.4H38.215L37.081,0H33.768l6.776-12.8h2.83L45.738,0H42.609ZM39.34-4.772h2.654l-.562-4.412Zm11.7,2.663a1.244,1.244,0,0,0,.976-.345,1.717,1.717,0,0,0,.448-.938L55.169-3.4a3.559,3.559,0,0,1-.62,1.872A3.745,3.745,0,0,1,53.02-.25a4.521,4.521,0,0,1-2.061.426,3.57,3.57,0,0,1-2.927-1.367A4.726,4.726,0,0,1,47.2-4.632l.026-.211A6.371,6.371,0,0,1,48.032-7.4a4.626,4.626,0,0,1,1.709-1.718,4.433,4.433,0,0,1,2.369-.571,3.536,3.536,0,0,1,2.624,1.059,3.755,3.755,0,0,1,.927,2.764l-2.707-.009Q53-7.374,51.873-7.4q-1.529-.053-1.758,2.567l-.079.893-.009.333Q50.027-2.136,51.038-2.109Zm9.158,0a1.244,1.244,0,0,0,.976-.345,1.717,1.717,0,0,0,.448-.938L64.327-3.4a3.559,3.559,0,0,1-.62,1.872A3.745,3.745,0,0,1,62.178-.25a4.521,4.521,0,0,1-2.061.426A3.57,3.57,0,0,1,57.19-1.191a4.726,4.726,0,0,1-.835-3.441l.026-.211A6.371,6.371,0,0,1,57.19-7.4,4.626,4.626,0,0,1,58.9-9.114a4.433,4.433,0,0,1,2.369-.571,3.536,3.536,0,0,1,2.624,1.059,3.755,3.755,0,0,1,.927,2.764l-2.707-.009q.044-1.5-1.081-1.529Q59.5-7.453,59.273-4.834l-.079.893-.009.333Q59.186-2.136,60.2-2.109ZM70.5-9.686a3.994,3.994,0,0,1,2.206.637A3.59,3.59,0,0,1,74.07-7.321a5.33,5.33,0,0,1,.312,2.461l-.018.193a5.636,5.636,0,0,1-1.626,3.533,4.575,4.575,0,0,1-3.41,1.31A3.977,3.977,0,0,1,67.14-.453a3.612,3.612,0,0,1-1.367-1.709,5.179,5.179,0,0,1-.321-2.443,5.863,5.863,0,0,1,1.6-3.727A4.547,4.547,0,0,1,70.5-9.686ZM68.344-4.6l-.026.518q-.123,1.957,1.2,1.992,1.705.053,1.978-2.764l.035-.8a2.155,2.155,0,0,0-.294-1.259,1.073,1.073,0,0,0-.918-.487A1.512,1.512,0,0,0,69-6.747,4.278,4.278,0,0,0,68.344-4.6ZM80.728-1.037A3.148,3.148,0,0,1,78.161.185a2.492,2.492,0,0,1-2.1-.976,3.6,3.6,0,0,1-.549-2.566L76.535-9.51h2.892L78.381-3.315a2.064,2.064,0,0,0,0,.466.766.766,0,0,0,.853.748,1.868,1.868,0,0,0,1.556-.722L81.967-9.51h2.909L83.224,0H80.534Zm8.341-8.481-.2,1.143a3.38,3.38,0,0,1,2.751-1.318,2.27,2.27,0,0,1,1.964.98,4.1,4.1,0,0,1,.47,2.729L93.05,0h-2.9L91.16-6.01a3.108,3.108,0,0,0,.018-.563q-.062-.836-.984-.836a1.807,1.807,0,0,0-1.4.678L87.609,0H84.718L86.37-9.51Zm11.065-2.355L99.721-9.51h1.521l-.36,2.057H99.36l-.738,4.368a1.164,1.164,0,0,0,.057.677q.119.229.593.246a6.873,6.873,0,0,0,.756-.044L99.817-.062a4.673,4.673,0,0,1-1.556.22,2.563,2.563,0,0,1-2.013-.791,2.7,2.7,0,0,1-.545-2.1l.773-4.72H95.3l.352-2.057h1.178l.413-2.364ZM106.154,0a2.578,2.578,0,0,1-.123-.861A2.933,2.933,0,0,1,103.7.176a2.866,2.866,0,0,1-2.057-.826,2.483,2.483,0,0,1-.765-1.96,2.79,2.79,0,0,1,1.292-2.377,6.091,6.091,0,0,1,3.41-.831l.967.018.105-.536.035-.466a.755.755,0,0,0-.8-.826,1.111,1.111,0,0,0-1.169,1.046l-2.9.009a2.754,2.754,0,0,1,.624-1.666,3.7,3.7,0,0,1,1.578-1.09,5.512,5.512,0,0,1,2.123-.356,4.251,4.251,0,0,1,1.894.453,2.82,2.82,0,0,1,1.217,1.187,3.031,3.031,0,0,1,.308,1.753l-.712,4.474-.044.545a2.4,2.4,0,0,0,.167,1.107L108.967,0ZM104.5-1.916a1.865,1.865,0,0,0,1.556-.782l.29-1.529-.747-.009a1.969,1.969,0,0,0-1.2.409,1.55,1.55,0,0,0-.589,1.068.778.778,0,0,0,.136.593A.7.7,0,0,0,104.5-1.916Zm15.029-2.821A6.891,6.891,0,0,1,118.169-1.1,3.409,3.409,0,0,1,115.3.185a2.522,2.522,0,0,1-2.162-1.178l-.36.993h-2.619l2.347-13.5H115.4l-.94,4.772a2.87,2.87,0,0,1,2.136-.958,2.679,2.679,0,0,1,2.18,1,4.351,4.351,0,0,1,.826,2.667,9.674,9.674,0,0,1-.044,1.1Zm-2.874-.171a9.1,9.1,0,0,0,.079-1.018q0-1.413-1.011-1.474a1.732,1.732,0,0,0-1.5.763l-.686,3.791a1.163,1.163,0,0,0,1.2.746q1.415.044,1.784-1.843l.123-.781ZM123.108,0h-2.9l2.338-13.5h2.9Zm6.565.176a4.421,4.421,0,0,1-2.272-.6,3.793,3.793,0,0,1-1.507-1.652,4.44,4.44,0,0,1-.4-2.333l.026-.246a5.829,5.829,0,0,1,1.63-3.713,4.51,4.51,0,0,1,3.415-1.314,3.678,3.678,0,0,1,2.092.621A3.468,3.468,0,0,1,133.928-7.4a5.1,5.1,0,0,1,.264,2.381l-.167,1.206h-5.66a1.854,1.854,0,0,0,.422,1.213,1.549,1.549,0,0,0,1.178.492,2.993,2.993,0,0,0,2.259-.967l1.213,1.6a3.578,3.578,0,0,1-1.5,1.2,5.263,5.263,0,0,1-2.1.451Zm.7-7.576a1.487,1.487,0,0,0-1.068.385,3.229,3.229,0,0,0-.787,1.347h2.892l.053-.254a1.929,1.929,0,0,0,.018-.577A1.017,1.017,0,0,0,130.377-7.4Z" transform="translate(982.711 7257)" fill="#12263f"/>
      <path id="Path_1003207" data-name="Path 1003207" d="M11.32-4.333a4.673,4.673,0,0,1-.721,2.36A4.35,4.35,0,0,1,8.75-.387a6.3,6.3,0,0,1-2.72.563A5.025,5.025,0,0,1,2.057-1.468,6.786,6.786,0,0,1,.606-6.108v-.633a7.746,7.746,0,0,1,.655-3.292,4.961,4.961,0,0,1,1.885-2.18,5.26,5.26,0,0,1,2.848-.769,5.516,5.516,0,0,1,3.744,1.226,4.844,4.844,0,0,1,1.608,3.379H8.271a2.292,2.292,0,0,0-.589-1.679,2.422,2.422,0,0,0-1.687-.51A1.843,1.843,0,0,0,4.307-9.7a5.536,5.536,0,0,0-.562,2.751v.905A6.125,6.125,0,0,0,4.258-3.12a1.882,1.882,0,0,0,1.771.879,2.369,2.369,0,0,0,1.626-.5,2.126,2.126,0,0,0,.6-1.591ZM29.411-5.08H17.051V-7.4H29.411Zm15.65.721a4.614,4.614,0,0,1-.883,2.391A5,5,0,0,1,42.157-.36a6.259,6.259,0,0,1-2.711.536A4.215,4.215,0,0,1,36.29-1.116,5.193,5.193,0,0,1,35.033-4.5a11.02,11.02,0,0,1,.312-3.1,8.2,8.2,0,0,1,1.274-2.922A5.855,5.855,0,0,1,38.7-12.388a5.407,5.407,0,0,1,2.624-.593,4.577,4.577,0,0,1,3.309,1.257,4.92,4.92,0,0,1,1.323,3.366l-3-.009a2.465,2.465,0,0,0-.422-1.67,1.852,1.852,0,0,0-1.389-.536q-2.373-.079-2.892,3.691a20.283,20.283,0,0,0-.237,2.435q-.044,2.162,1.6,2.224a2.348,2.348,0,0,0,1.7-.523,2.615,2.615,0,0,0,.809-1.578ZM51.3-9.686a3.994,3.994,0,0,1,2.206.637,3.59,3.59,0,0,1,1.367,1.727,5.33,5.33,0,0,1,.312,2.461l-.018.193a5.636,5.636,0,0,1-1.626,3.533,4.575,4.575,0,0,1-3.41,1.31,3.977,3.977,0,0,1-2.188-.628,3.612,3.612,0,0,1-1.367-1.709,5.179,5.179,0,0,1-.321-2.443,5.863,5.863,0,0,1,1.6-3.727A4.547,4.547,0,0,1,51.3-9.686ZM49.148-4.6l-.026.518Q49-2.127,50.317-2.092q1.705.053,1.978-2.764l.035-.8a2.155,2.155,0,0,0-.294-1.259,1.073,1.073,0,0,0-.918-.487,1.512,1.512,0,0,0-1.314.654A4.278,4.278,0,0,0,49.148-4.6ZM59.941-9.519l-.2,1.143A3.38,3.38,0,0,1,62.49-9.694a2.27,2.27,0,0,1,1.964.98,4.1,4.1,0,0,1,.47,2.729L63.923,0h-2.9l1.011-6.01a3.108,3.108,0,0,0,.018-.563q-.062-.836-.984-.836a1.807,1.807,0,0,0-1.4.678L58.482,0H55.591l1.652-9.51Zm11,6.794q.114-.58-.9-.87l-.624-.158a4.806,4.806,0,0,1-2.241-1.134,2.244,2.244,0,0,1-.668-1.731,2.758,2.758,0,0,1,1.217-2.228,4.633,4.633,0,0,1,2.861-.839,4.292,4.292,0,0,1,2.72.853,2.781,2.781,0,0,1,1.059,2.25L71.49-6.592q.035-1.125-.993-1.125a1.417,1.417,0,0,0-.817.259,1.007,1.007,0,0,0-.448.69q-.149.712,1.257.976a7.3,7.3,0,0,1,1.89.672,2.821,2.821,0,0,1,1.02.945,2.35,2.35,0,0,1,.325,1.354,2.541,2.541,0,0,1-.562,1.538A3.642,3.642,0,0,1,71.609-.2a5.557,5.557,0,0,1-2.2.378A4.469,4.469,0,0,1,67.5-.255,3.408,3.408,0,0,1,66.116-1.4,2.979,2.979,0,0,1,65.6-3.067l2.689.018A1.111,1.111,0,0,0,69.557-1.8a1.661,1.661,0,0,0,.914-.242A1.045,1.045,0,0,0,70.945-2.725ZM80.5-1.037A3.148,3.148,0,0,1,77.933.185a2.492,2.492,0,0,1-2.1-.976,3.6,3.6,0,0,1-.549-2.566L76.307-9.51H79.2L78.152-3.315a2.064,2.064,0,0,0,0,.466A.766.766,0,0,0,79-2.1a1.868,1.868,0,0,0,1.556-.722L81.738-9.51h2.909L83,0H80.306ZM87.6,0H84.7l2.338-13.5h2.9Zm7.26-11.874L94.447-9.51h1.521l-.36,2.057H94.087l-.738,4.368a1.164,1.164,0,0,0,.057.677q.119.229.593.246a6.873,6.873,0,0,0,.756-.044L94.544-.062a4.673,4.673,0,0,1-1.556.22,2.563,2.563,0,0,1-2.013-.791,2.7,2.7,0,0,1-.545-2.1l.773-4.72H90.026l.352-2.057h1.178l.413-2.364ZM100.248.176a4.421,4.421,0,0,1-2.272-.6,3.793,3.793,0,0,1-1.507-1.652,4.44,4.44,0,0,1-.4-2.333l.026-.246a5.829,5.829,0,0,1,1.63-3.713,4.51,4.51,0,0,1,3.415-1.314,3.678,3.678,0,0,1,2.092.621A3.468,3.468,0,0,1,104.5-7.4a5.1,5.1,0,0,1,.264,2.381L104.6-3.814h-5.66A1.854,1.854,0,0,0,99.36-2.6a1.549,1.549,0,0,0,1.178.492,2.993,2.993,0,0,0,2.259-.967l1.213,1.6a3.578,3.578,0,0,1-1.5,1.2,5.263,5.263,0,0,1-2.1.451Zm.7-7.576a1.487,1.487,0,0,0-1.068.385A3.229,3.229,0,0,0,99.1-5.669h2.892l.053-.254a1.929,1.929,0,0,0,.018-.577A1.017,1.017,0,0,0,100.951-7.4Zm4.641,2.628a6.917,6.917,0,0,1,1.371-3.6,3.4,3.4,0,0,1,2.865-1.31,2.592,2.592,0,0,1,2.013,1.02l.923-4.834h2.9L113.326,0h-2.575l.123-1.028A2.968,2.968,0,0,1,108.51.185a2.62,2.62,0,0,1-2.149-1.015,4.476,4.476,0,0,1-.831-2.676,8.231,8.231,0,0,1,.035-1.081Zm2.883.2a6.9,6.9,0,0,0-.062.984q0,1.459.984,1.485a1.844,1.844,0,0,0,1.521-.817l.65-3.647a1.171,1.171,0,0,0-1.16-.835,1.478,1.478,0,0,0-1.305.7A4.507,4.507,0,0,0,108.475-4.57Z" transform="translate(982.711 7547)" fill="#12263f"/>
      <g id="Group_1182427" data-name="Group 1182427" transform="translate(633.422 7223.711)">
        <path id="Path_1001420" data-name="Path 1001420" d="M26.016,48.488V57.76H27.7V48.7l5.8-10.771a.843.843,0,0,0-.275-1.1L30.7,35.142a.855.855,0,0,0-.658-.121.839.839,0,0,0-.538.4l-3.04,5.209a5.058,5.058,0,0,0-9.325,0L14.1,35.418a.841.841,0,0,0-1.2-.276l-2.529,1.686a.843.843,0,0,0-.275,1.1L15.9,48.7v9.06h1.686V48.488a.849.849,0,0,0-.1-.4L11.949,37.8l1.146-.764,3.752,6.43a5.013,5.013,0,0,0,3.873,4.046L19.3,52.471a.843.843,0,0,0,.11.7L21.1,55.7a.843.843,0,0,0,1.4,0l1.686-2.529a.843.843,0,0,0,.11-.7l-1.415-4.954a4.982,4.982,0,0,0,3.878-4.056l3.747-6.421,1.146.764L26.117,48.088A.849.849,0,0,0,26.016,48.488ZM21.8,39.215a3.363,3.363,0,0,1,2.845,1.58,5.861,5.861,0,0,0-5.69,0A3.363,3.363,0,0,1,21.8,39.215Zm0,14.5-.768-1.152L21.8,49.87l.768,2.689Zm0-7.753a3.353,3.353,0,0,1-3.268-2.644,4.186,4.186,0,0,1,6.539,0A3.343,3.343,0,0,1,21.8,45.959Z" transform="translate(-1.256 -5.182)" fill="#62249e"/>
        <path id="Path_1001421" data-name="Path 1001421" d="M43.307,47.946a3.378,3.378,0,0,0,.041,6.756h.045a3.378,3.378,0,0,0,2.315-5.8A3.444,3.444,0,0,0,43.307,47.946ZM44.561,52.5a1.675,1.675,0,0,1-1.19.511,1.811,1.811,0,0,1-1.2-.48,1.692,1.692,0,0,1,1.159-2.9h.023A1.692,1.692,0,0,1,44.561,52.5Z" transform="translate(-5.963 -7.215)" fill="#62249e"/>
        <path id="Path_1001422" data-name="Path 1001422" d="M50.027,52.69a.843.843,0,0,0,.832-.854l-.039-3.027a.843.843,0,0,0-.843-.832h-.011l-1.092.014c-.071-.189-.15-.373-.237-.554l.761-.781a.842.842,0,0,0-.015-1.192l-2.167-2.113a.742.742,0,0,0-.6-.239.841.841,0,0,0-.593.255l-.762.782q-.274-.125-.56-.223l-.013-1.092a.839.839,0,0,0-.255-.593.963.963,0,0,0-.6-.239l-3.027.039a.843.843,0,0,0-.832.854l.014,1.092c-.189.071-.373.15-.554.237l-.781-.761a.844.844,0,0,0-1.192.015L35.35,45.644a.843.843,0,0,0,.015,1.192l.782.762q-.125.274-.223.56l-1.092.013a.843.843,0,0,0-.832.854l.039,3.027a.843.843,0,0,0,.843.832h.011l1.092-.014c.071.189.15.373.237.554l-.761.781a.842.842,0,0,0,.015,1.192l2.167,2.113a.876.876,0,0,0,.6.239.841.841,0,0,0,.593-.255l.762-.782q.274.125.56.223l.013,1.092a.842.842,0,0,0,.842.831h.011l3.027-.039a.843.843,0,0,0,.832-.854l-.014-1.092c.189-.071.373-.15.554-.237l.781.761a.841.841,0,0,0,1.192-.015l2.113-2.167a.843.843,0,0,0-.015-1.192l-.782-.762q.125-.274.223-.56Zm-1.734-1.665a.842.842,0,0,0-.808.645,5.171,5.171,0,0,1-.536,1.345.842.842,0,0,0,.142,1.023l.622.607-.937.96L46.156,55a.843.843,0,0,0-1.027-.117,5.18,5.18,0,0,1-1.331.572.842.842,0,0,0-.622.824l.011.869-1.341.018-.011-.869a.842.842,0,0,0-.645-.808,5.171,5.171,0,0,1-1.345-.536.831.831,0,0,0-.419-.112.844.844,0,0,0-.6.255l-.607.622-.96-.937.606-.621a.844.844,0,0,0,.117-1.027,5.18,5.18,0,0,1-.572-1.331.842.842,0,0,0-.813-.622h-.011l-.869.011L35.7,49.847l.869-.011a.842.842,0,0,0,.808-.645,5.171,5.171,0,0,1,.536-1.345.842.842,0,0,0-.142-1.023l-.622-.607.937-.96.621.606a.843.843,0,0,0,1.027.117,5.18,5.18,0,0,1,1.331-.572.842.842,0,0,0,.622-.824l-.011-.869,1.341-.018.011.869a.842.842,0,0,0,.645.808,5.171,5.171,0,0,1,1.345.536.841.841,0,0,0,1.023-.142l.607-.622.96.937L47,46.7a.844.844,0,0,0-.117,1.027,5.18,5.18,0,0,1,.572,1.331.842.842,0,0,0,.813.622h.011l.869-.011.018,1.341Z" transform="translate(-5.025 -6.281)" fill="#62249e"/>
        <path id="Path_1001423" data-name="Path 1001423" d="M6.843,9A.842.842,0,0,0,6,9.843v11.8a.842.842,0,0,0,.843.843h11.8a.842.842,0,0,0,.843-.843V9.843A.842.842,0,0,0,18.645,9ZM17.8,20.8H7.686V10.686H17.8Z" transform="translate(-0.628 -1.099)" fill="#62249e"/>
        <path id="Path_1001424" data-name="Path 1001424" d="M13.418,19.814c.027,0,.055,0,.083,0a.841.841,0,0,0,.618-.371l3.372-5.058-1.4-.935-2.8,4.2-1.8-1.8-1.192,1.192,2.529,2.529a.84.84,0,0,0,.6.247Z" transform="translate(-1.302 -1.797)" fill="#62249e"/>
        <path id="Path_1001425" data-name="Path 1001425" d="M24.843,9A.842.842,0,0,0,24,9.843v11.8a.842.842,0,0,0,.843.843h11.8a.842.842,0,0,0,.843-.843V9.843A.842.842,0,0,0,36.645,9ZM35.8,20.8H25.686V10.686H35.8Z" transform="translate(-3.455 -1.099)" fill="#62249e"/>
        <path id="Path_1001426" data-name="Path 1001426" d="M31.418,19.814c.027,0,.055,0,.083,0a.841.841,0,0,0,.618-.371l3.372-5.058-1.4-.935-2.8,4.2-1.8-1.8-1.192,1.192,2.529,2.529a.84.84,0,0,0,.6.247Z" transform="translate(-4.129 -1.797)" fill="#62249e"/>
        <path id="Path_1001427" data-name="Path 1001427" d="M55.488,21.645V9.843A.842.842,0,0,0,54.645,9h-11.8A.842.842,0,0,0,42,9.843v11.8a.842.842,0,0,0,.843.843h11.8A.842.842,0,0,0,55.488,21.645ZM53.8,20.8H43.686V10.686H53.8Z" transform="translate(-6.281 -1.099)" fill="#62249e"/>
        <path id="Path_1001428" data-name="Path 1001428" d="M49.418,19.814c.027,0,.055,0,.083,0a.841.841,0,0,0,.618-.371l3.372-5.058-1.4-.935-2.8,4.2-1.8-1.8-1.192,1.192,2.529,2.529a.84.84,0,0,0,.6.247Z" transform="translate(-6.955 -1.797)" fill="#62249e"/>
        <path id="Path_1001429" data-name="Path 1001429" d="M52.578,23.074V6.215A4.22,4.22,0,0,0,48.363,2H6.215A4.22,4.22,0,0,0,2,6.215V23.074a4.22,4.22,0,0,0,4.215,4.215H37.4V25.6H6.215a2.532,2.532,0,0,1-2.529-2.529V6.215A2.532,2.532,0,0,1,6.215,3.686H48.363a2.532,2.532,0,0,1,2.529,2.529V23.074A2.527,2.527,0,0,1,49,25.523l.42,1.634A4.215,4.215,0,0,0,52.578,23.074Z" fill="#62249e"/>
        <path id="Path_1001430" data-name="Path 1001430" d="M54.773,32.136a.843.843,0,0,0-.619-.813c-2.253-.622-2.582-.952-3.2-3.2a.843.843,0,0,0-1.625,0c-.622,2.253-.952,2.582-3.2,3.2a.843.843,0,0,0,0,1.625c2.253.622,2.582.952,3.2,3.2a.843.843,0,0,0,1.625,0c.622-2.253.952-2.582,3.2-3.2a.843.843,0,0,0,.619-.813Zm-4.636,1.423a3.648,3.648,0,0,0-1.423-1.423,3.648,3.648,0,0,0,1.423-1.423,3.648,3.648,0,0,0,1.423,1.423A3.654,3.654,0,0,0,50.136,33.559Z" transform="translate(-6.831 -4.004)" fill="#62249e"/>
      </g>
      <g id="Group_1182429" data-name="Group 1182429" transform="translate(863.787 7221.077)">
        <g id="Group_1182428" data-name="Group 1182428" transform="translate(46.717 0)">
          <path id="Path_1001431" data-name="Path 1001431" d="M305.379,109.642a1.545,1.545,0,0,0,.393,1.594l1.762,1.718-.416,2.425a1.553,1.553,0,0,0,2.256,1.639l2.178-1.145,2.178,1.145a1.555,1.555,0,0,0,2.256-1.639l-.416-2.425,1.762-1.718a1.555,1.555,0,0,0-.862-2.652l-2.435-.354-1.089-2.207a1.555,1.555,0,0,0-2.789,0l-1.089,2.207-2.435.354A1.545,1.545,0,0,0,305.379,109.642Zm4.033.291a1.555,1.555,0,0,0,1.171-.851l.97-1.965.97,1.965a1.555,1.555,0,0,0,1.171.85l2.168.315-1.569,1.529a1.555,1.555,0,0,0-.447,1.376l.37,2.159-1.939-1.02a1.555,1.555,0,0,0-1.447,0l-1.939,1.019.37-2.159a1.554,1.554,0,0,0-.447-1.376l-1.569-1.529Z" transform="translate(-275.397 -92.996)" fill="#62249e"/>
          <path id="Path_1001432" data-name="Path 1001432" d="M251.362,6.14l-.293,1.707A1.381,1.381,0,0,0,253.076,9.3l1.533-.806,1.533.806a1.383,1.383,0,0,0,2.007-1.458l-.293-1.707,1.24-1.209a1.383,1.383,0,0,0-.766-2.359l-1.714-.249L255.849.771a1.383,1.383,0,0,0-2.48,0L252.6,2.324l-1.713.249a1.383,1.383,0,0,0-.767,2.359Zm2.931-4.6h0Zm-1.258,2.475a1.383,1.383,0,0,0,1.041-.757l.533-1.079.533,1.079a1.383,1.383,0,0,0,1.041.757l1.191.173-.862.84a1.383,1.383,0,0,0-.4,1.224l.2,1.186-1.065-.56a1.383,1.383,0,0,0-1.287,0l-1.065.56.2-1.186a1.382,1.382,0,0,0-.4-1.224l-.862-.84Z" transform="translate(-226.229 0)" fill="#62249e"/>
          <path id="Path_1001433" data-name="Path 1001433" d="M244.666,286.683l-4.368,4.368-3.14-3.14a.867.867,0,0,0-1.227,1.227l3.753,3.753a.867.867,0,0,0,1.227,0l4.981-4.981a.867.867,0,1,0-1.227-1.227Z" transform="translate(-213.825 -253.305)" fill="#62249e"/>
          <path id="Path_1001434" data-name="Path 1001434" d="M94.115,245.687c-.035-.035-.071-.068-.107-.1a3.445,3.445,0,0,0-5.4-2.849,3.448,3.448,0,0,0-4.3.464l-7.319,7.319a1.7,1.7,0,0,1-.753.438H68.5a.872.872,0,0,1,.146-.2.861.861,0,0,1,.618-.258h4.912a3.448,3.448,0,0,0,3.485-3.893,9.951,9.951,0,0,0,5.748-6.568.867.867,0,1,0-1.675-.452A8.216,8.216,0,0,1,77.007,245a3.5,3.5,0,0,0-.29-.343,3.419,3.419,0,0,0-2.478-1.051H68.387a8.208,8.208,0,1,1,13.485-7.682.867.867,0,1,0,1.705-.319,9.944,9.944,0,1,0-17.57,8H58.5v-1.421a1.617,1.617,0,0,0-1.615-1.615H48.332a1.617,1.617,0,0,0-1.615,1.615v16.552a1.617,1.617,0,0,0,1.615,1.615h8.555a1.617,1.617,0,0,0,1.615-1.615v-.492l2.225.889A17.609,17.609,0,0,0,67.29,260.4H81.782a5.98,5.98,0,0,0,4.256-1.763l2.821-2.821a.867.867,0,0,0-1.227-1.227l-2.821,2.821a4.257,4.257,0,0,1-3.03,1.255H67.29a15.88,15.88,0,0,1-5.92-1.139L58.5,256.381V245.344H74.239a1.712,1.712,0,0,1,1.711,1.771,1.761,1.761,0,0,1-1.779,1.653H69.259a2.6,2.6,0,0,0-2.6,2.639l.018,1.27a2.613,2.613,0,0,0,2.6,2.565H80.711a3.424,3.424,0,0,0,2.437-1.01l7.319-7.319a1.712,1.712,0,1,1,2.421,2.421l-2.394,2.394a.867.867,0,1,0,1.227,1.227l2.394-2.394A3.451,3.451,0,0,0,94.115,245.687ZM56.767,258.621H48.452V242.309h8.315Zm33.8-14.758a1.712,1.712,0,0,1,1.471.835,3.441,3.441,0,0,0-2.793.989l-7.319,7.319a1.7,1.7,0,0,1-1.21.5H69.277a.87.87,0,0,1-.865-.815H79.6a3.425,3.425,0,0,0,2.437-1.009l7.319-7.319A1.7,1.7,0,0,1,90.563,243.863Zm-5.027.565A1.713,1.713,0,0,1,87.259,244l-6.452,6.452a1.7,1.7,0,0,1-1.211.5h-.591Z" transform="translate(-46.717 -201.19)" fill="#62249e"/>
          <path id="Path_1001435" data-name="Path 1001435" d="M50.442,52.9h2.044a9.324,9.324,0,0,0,.452,1.088l-1.447,1.447a1.5,1.5,0,0,0,0,2.125l2.148,2.148a1.5,1.5,0,0,0,2.125,0l1.447-1.447a9.324,9.324,0,0,0,1.088.452V60.76a1.5,1.5,0,0,0,1.5,1.5H62.84a1.5,1.5,0,0,0,1.5-1.5V58.716a9.3,9.3,0,0,0,1.088-.452l1.447,1.447a1.5,1.5,0,0,0,2.125,0l2.148-2.148a1.5,1.5,0,0,0,0-2.125L69.7,53.991a9.324,9.324,0,0,0,.452-1.088H72.2a1.5,1.5,0,0,0,1.5-1.5V48.362a1.5,1.5,0,0,0-1.5-1.5H70.155a9.319,9.319,0,0,0-.452-1.088l1.447-1.447a1.5,1.5,0,0,0,0-2.125L69,40.052a1.5,1.5,0,0,0-2.125,0L65.43,41.5a9.329,9.329,0,0,0-1.088-.452V39a1.5,1.5,0,0,0-1.5-1.5H59.8A1.5,1.5,0,0,0,58.3,39v2.044a9.328,9.328,0,0,0-1.088.452l-1.447-1.447a1.5,1.5,0,0,0-2.125,0L51.491,42.2a1.5,1.5,0,0,0,0,2.125l1.447,1.447a9.317,9.317,0,0,0-.452,1.088H50.442a1.5,1.5,0,0,0-1.5,1.5V51.4a1.5,1.5,0,0,0,1.5,1.5Zm.232-4.309h1.98a1.5,1.5,0,0,0,1.431-1.047,7.555,7.555,0,0,1,.469-1.129,1.5,1.5,0,0,0-.271-1.754l-1.4-1.4,1.82-1.82,1.4,1.4a1.5,1.5,0,0,0,1.754.271,7.563,7.563,0,0,1,1.129-.469,1.5,1.5,0,0,0,1.047-1.431v-1.98h2.574v1.98a1.5,1.5,0,0,0,1.047,1.431,7.577,7.577,0,0,1,1.129.469,1.5,1.5,0,0,0,1.754-.271l1.4-1.4,1.82,1.82-1.4,1.4a1.5,1.5,0,0,0-.271,1.755,7.574,7.574,0,0,1,.469,1.129,1.5,1.5,0,0,0,1.431,1.047h1.98v2.574h-1.98a1.5,1.5,0,0,0-1.431,1.047,7.575,7.575,0,0,1-.469,1.129,1.5,1.5,0,0,0,.271,1.754l1.4,1.4-1.82,1.82-1.4-1.4a1.5,1.5,0,0,0-1.755-.271,7.564,7.564,0,0,1-1.129.469,1.5,1.5,0,0,0-1.047,1.431v1.98H60.034v-1.98a1.5,1.5,0,0,0-1.047-1.431,7.563,7.563,0,0,1-1.129-.469,1.5,1.5,0,0,0-1.755.271l-1.4,1.4-1.82-1.82,1.4-1.4a1.5,1.5,0,0,0,.271-1.754,7.564,7.564,0,0,1-.469-1.129,1.5,1.5,0,0,0-1.431-1.047h-1.98Z" transform="translate(-48.682 -33.163)" fill="#62249e"/>
          <path id="Path_1001436" data-name="Path 1001436" d="M111.167,105.59a5.868,5.868,0,0,0,5.364-3.5.867.867,0,1,0-1.587-.7,4.128,4.128,0,1,1-.005-3.344.867.867,0,0,0,1.584-.706,5.863,5.863,0,1,0-5.356,8.247Z" transform="translate(-98.529 -83.009)" fill="#62249e"/>
          <path id="Path_1001437" data-name="Path 1001437" d="M133.913,125.028a2.554,2.554,0,1,0,2.554-2.554A2.557,2.557,0,0,0,133.913,125.028Zm3.374,0a.82.82,0,1,1-.82-.82A.821.821,0,0,1,137.287,125.028Z" transform="translate(-123.829 -108.31)" fill="#62249e"/>
        </g>
      </g>
      <g id="Group_1182430" data-name="Group 1182430" transform="translate(905.711 7448.007)">
        <path id="Path_1001438" data-name="Path 1001438" d="M39.5,103.993h1.853v1.738H39.5Z" transform="translate(-34.925 -28.293)" fill="#62249e"/>
        <path id="Path_1001439" data-name="Path 1001439" d="M71.5,103.993h1.853v1.738H71.5Z" transform="translate(-63.218 -28.293)" fill="#62249e"/>
        <path id="Path_1001440" data-name="Path 1001440" d="M103.5,103.993h18.533v1.738H103.5Z" transform="translate(-91.511 -28.293)" fill="#62249e"/>
        <path id="Path_1001441" data-name="Path 1001441" d="M39.5,199.993h1.853v1.737H39.5Z" transform="translate(-34.925 -113.173)" fill="#62249e"/>
        <path id="Path_1001442" data-name="Path 1001442" d="M71.5,199.993h1.853v1.737H71.5Z" transform="translate(-63.218 -113.173)" fill="#62249e"/>
        <path id="Path_1001443" data-name="Path 1001443" d="M39.5,295.993h1.853v1.737H39.5Z" transform="translate(-34.925 -198.053)" fill="#62249e"/>
        <path id="Path_1001444" data-name="Path 1001444" d="M71.5,295.993h1.853v1.737H71.5Z" transform="translate(-63.218 -198.053)" fill="#62249e"/>
        <path id="Path_1001445" data-name="Path 1001445" d="M103.5,295.993h16.68v1.737H103.5Z" transform="translate(-91.511 -198.053)" fill="#62249e"/>
        <path id="Path_1001446" data-name="Path 1001446" d="M39.5,391.993h1.853v1.738H39.5Z" transform="translate(-34.925 -282.933)" fill="#62249e"/>
        <path id="Path_1001447" data-name="Path 1001447" d="M71.5,391.993h1.853v1.738H71.5Z" transform="translate(-63.218 -282.933)" fill="#62249e"/>
        <path id="Path_1001448" data-name="Path 1001448" d="M103.5,391.993h18.533v1.738H103.5Z" transform="translate(-91.511 -282.933)" fill="#62249e"/>
        <path id="Path_1001449" data-name="Path 1001449" d="M264.282,143.993A8.292,8.292,0,0,0,256,152.275c.416,10.972,16.15,10.969,16.564,0A8.291,8.291,0,0,0,264.282,143.993Zm0,14.827a6.552,6.552,0,0,1-6.545-6.545c.329-8.67,12.762-8.668,13.089,0A6.552,6.552,0,0,1,264.282,158.82Z" transform="translate(-226.347 -63.66)" fill="#62249e"/>
        <path id="Path_1001450" data-name="Path 1001450" d="M58.169,103.913l-7.26-7.26-1.853,1.853L47,96.452c7.565-8.729-.6-22.213-11.9-19.486V73.788a1.8,1.8,0,0,0-1.8-1.8H1.8a1.8,1.8,0,0,0-1.8,1.8v5.56a1.8,1.8,0,0,0,1.8,1.8H2.78v1.969H1.8a1.8,1.8,0,0,0-1.8,1.8v5.56a1.8,1.8,0,0,0,1.8,1.8H2.78v1.969H1.8a1.8,1.8,0,0,0-1.8,1.8v5.56a1.8,1.8,0,0,0,1.8,1.8H2.78v1.969H1.8a1.8,1.8,0,0,0-1.8,1.8v5.56a1.8,1.8,0,0,0,1.8,1.8H33.3a1.8,1.8,0,0,0,1.8-1.8v-5.56a1.8,1.8,0,0,0-1.8-1.8h-.985v-1.969H33.3a1.8,1.8,0,0,0,1.8-1.8v-1.325a12.045,12.045,0,0,0,10.675-2.583l2.055,2.055-1.853,1.853,7.26,7.26a3.506,3.506,0,0,0,4.935,0h0a3.494,3.494,0,0,0,0-4.935ZM1.738,79.348v-5.56a.058.058,0,0,1,.058-.058H33.3a.058.058,0,0,1,.058.058v3.746a12,12,0,0,0-3.092,1.872H1.8A.058.058,0,0,1,1.738,79.348Zm0,11.12v-5.56a.058.058,0,0,1,.058-.058H24.962V83.113H4.518V81.144H28.567a11.937,11.937,0,0,0-2.485,5.676H11.989v1.738H25.947a11.917,11.917,0,0,0,.152,1.969H1.8a.058.058,0,0,1-.058-.058Zm2.78,1.8h22a11.91,11.91,0,0,0,.832,1.969H4.518ZM33.36,107.149v5.56a.058.058,0,0,1-.058.058H1.8a.058.058,0,0,1-.058-.058v-5.56a.058.058,0,0,1,.058-.058H33.3A.058.058,0,0,1,33.36,107.149Zm0-5.56a.058.058,0,0,1-.058.058H11.989v1.738H30.58v1.969H4.518v-1.969h5.618v-1.738H1.8a.058.058,0,0,1-.058-.058v-5.56a.058.058,0,0,1,.058-.058h26.68A12.052,12.052,0,0,0,33.36,99.7Zm4.575-2.722A10.263,10.263,0,0,1,27.684,88.615c.515-13.581,19.989-13.577,20.5,0A10.263,10.263,0,0,1,37.936,98.866Zm19,8.753a1.761,1.761,0,0,1-2.478,0l-6.031-6.031,2.478-2.478,6.031,6.031A1.754,1.754,0,0,1,56.94,107.62Z" fill="#62249e"/>
      </g>
      <g id="Group_1182432" data-name="Group 1182432" transform="translate(630.711 7484.371)">
        <path id="Path_1001451" data-name="Path 1001451" d="M56.616,30.629H50.231a.87.87,0,0,0,0,1.74h6.386a1.023,1.023,0,0,1,1.022,1.022v4.62H1.74V33.39a1.023,1.023,0,0,1,1.022-1.022H46.172a.87.87,0,1,0,0-1.74H2.761A2.765,2.765,0,0,0,0,33.39V47.272a.87.87,0,0,0,1.74,0V39.75h55.9V80.141a1.023,1.023,0,0,1-1.022,1.022H21.244a.87.87,0,1,0,0,1.74H56.616a2.765,2.765,0,0,0,2.761-2.761V33.39A2.764,2.764,0,0,0,56.616,30.629Z" transform="translate(0)" fill="#62249e"/>
        <path id="Path_1001452" data-name="Path 1001452" d="M17.185,232.341H2.761a1.023,1.023,0,0,1-1.022-1.022V202.51a.87.87,0,1,0-1.74,0v28.81a2.765,2.765,0,0,0,2.761,2.761H17.185a.87.87,0,0,0,0-1.74Z" transform="translate(0 -151.178)" fill="#62249e"/>
        <path id="Path_1001453" data-name="Path 1001453" d="M62.032,165.512a.87.87,0,0,0,.87-.87v-4.377a.87.87,0,0,0-.87-.87,8.99,8.99,0,1,0,8.99,8.99.87.87,0,0,0-.87-.87H65.775a.87.87,0,0,0-.87.87,2.873,2.873,0,1,1-2.873-2.873Zm4.53,3.743h2.668a7.264,7.264,0,0,1-6.329,6.327v-2.667A4.626,4.626,0,0,0,66.562,169.255Zm-5.4,3.66v2.667a7.262,7.262,0,0,1-6.327-6.327H57.5A4.625,4.625,0,0,0,61.162,172.914Zm-3.66-5.4H54.835a7.264,7.264,0,0,1,6.327-6.329v2.668A4.626,4.626,0,0,0,57.5,167.515Z" transform="translate(-46.891 -113.833)" fill="#62249e"/>
        <path id="Path_1001454" data-name="Path 1001454" d="M153.933,129.392a.87.87,0,0,0-.87.87v4.377a.87.87,0,0,0,.87.87,2.876,2.876,0,0,1,2.873,2.873.87.87,0,0,0,.87.87h4.377a.87.87,0,0,0,.87-.87,9,9,0,0,0-8.99-8.99Zm4.531,8.12a4.626,4.626,0,0,0-3.661-3.661v-2.668a7.265,7.265,0,0,1,6.329,6.329Z" transform="translate(-135.312 -87.309)" fill="#62249e"/>
        <path id="Path_1001455" data-name="Path 1001455" d="M263.055,129.392h-4.413a1.451,1.451,0,0,0-1.45,1.45v1.434h-4.264a1.451,1.451,0,0,0-1.45,1.45v1.434h-4.264a1.451,1.451,0,0,0-1.45,1.45v8.5H243.99a1.451,1.451,0,0,0-1.45,1.45V149.4a1.451,1.451,0,0,0,1.45,1.45h5.016a.87.87,0,0,0,0-1.74H244.28v-2.259c5.383,0,16.6.007,21.851,0v2.259H253.064a.87.87,0,1,0,0,1.74h13.356a1.451,1.451,0,0,0,1.45-1.45v-2.839a1.451,1.451,0,0,0-1.45-1.45h-1.776v-14.13A1.592,1.592,0,0,0,263.055,129.392Zm-.149,1.74v13.981h-3.974V131.132Zm-5.713,2.883v11.1h-3.974v-11.1Zm-9.687,2.883h3.974v8.215h-3.974Z" transform="translate(-214.412 -87.309)" fill="#62249e"/>
        <path id="Path_1001456" data-name="Path 1001456" d="M265.386,345.823a2.5,2.5,0,1,0-2.261-1.457l-3.492,3.492a2.46,2.46,0,0,0-2.063,0l-3.492-3.492a2.488,2.488,0,1,0-4.523,0l-3.492,3.492a2.5,2.5,0,1,0,1.23,1.23l3.492-3.492a2.46,2.46,0,0,0,2.062,0l3.492,3.492a2.488,2.488,0,1,0,4.523,0l3.492-3.492A2.468,2.468,0,0,0,265.386,345.823Zm0-3.236a.748.748,0,1,1-.748.748A.749.749,0,0,1,265.386,342.587Zm-20.354,8.281a.748.748,0,1,1,.748-.748A.749.749,0,0,1,245.032,350.868Zm6.036-7.533a.748.748,0,1,1,.748.748A.749.749,0,0,1,251.068,343.335Zm7.533,7.533a.748.748,0,1,1,.749-.748A.749.749,0,0,1,258.6,350.868Z" transform="translate(-214.416 -274.241)" fill="#62249e"/>
        <path id="Path_1001457" data-name="Path 1001457" d="M53.912,342.587h2.335a.87.87,0,0,0,0-1.74H53.912a.87.87,0,0,0,0,1.74Z" transform="translate(-46.891 -274.241)" fill="#62249e"/>
        <path id="Path_1001458" data-name="Path 1001458" d="M53.912,385.791h2.335a.87.87,0,0,0,0-1.74H53.912a.87.87,0,0,0,0,1.74Z" transform="translate(-46.891 -312.435)" fill="#62249e"/>
        <path id="Path_1001459" data-name="Path 1001459" d="M53.912,429h2.335a.87.87,0,1,0,0-1.74H53.912a.87.87,0,1,0,0,1.74Z" transform="translate(-46.891 -350.629)" fill="#62249e"/>
        <path id="Path_1001460" data-name="Path 1001460" d="M108.179,341.717a.87.87,0,0,0,.87.87H125.47a.87.87,0,0,0,0-1.74H109.049A.87.87,0,0,0,108.179,341.717Z" transform="translate(-95.633 -274.241)" fill="#62249e"/>
        <path id="Path_1001461" data-name="Path 1001461" d="M109.049,385.791h8.119a.87.87,0,0,0,0-1.74h-8.119a.87.87,0,0,0,0,1.74Z" transform="translate(-95.633 -312.435)" fill="#62249e"/>
        <path id="Path_1001462" data-name="Path 1001462" d="M109.049,429h11.6a.87.87,0,1,0,0-1.74h-11.6a.87.87,0,1,0,0,1.74Z" transform="translate(-95.633 -350.629)" fill="#62249e"/>
        <g id="Group_1182431" data-name="Group 1182431" transform="translate(4.009 34.32)">
          <circle id="Ellipse_13737" data-name="Ellipse 13737" cx="0.87" cy="0.87" r="0.87" transform="translate(0 0)" fill="#62249e"/>
          <circle id="Ellipse_13738" data-name="Ellipse 13738" cx="0.87" cy="0.87" r="0.87" transform="translate(3.957 0)" fill="#62249e"/>
          <circle id="Ellipse_13739" data-name="Ellipse 13739" cx="0.87" cy="0.87" r="0.87" transform="translate(7.914 0)" fill="#62249e"/>
        </g>
      </g>
    </g>
  </g>
</svg>
