<svg xmlns="http://www.w3.org/2000/svg" width="396" height="190" viewBox="0 0 396 190">
  <g id="img13" transform="translate(-186 -4262)">
    <rect id="Rectangle_456265" data-name="Rectangle 456265" width="396" height="190" transform="translate(186 4262)" fill="#9ecfff"/>
    <g id="_417796076_027c3f67-efe3-4e04-a7bc-58d50c18b465" data-name="417796076_027c3f67-efe3-4e04-a7bc-58d50c18b465" transform="translate(165.973 4257.972)">
      <path id="Path_1001114" data-name="Path 1001114" d="M166.75,83.99c4.39,1.191,10.157,4.012,14.577,5.771,19.989,7.952,38.132,13.029,58.228,1.488,10.146-5.828,15.136-12.76,23.467-20.372q.727-.671,1.472-1.318t1.514-1.271q.766-.624,1.552-1.222t1.593-1.172q.8-.573,1.626-1.121t1.663-1.069q.84-.521,1.695-1.015t1.726-.961q.871-.467,1.758-.905t1.784-.85q.9-.41,1.81-.792t1.834-.734q.923-.352,1.857-.676t1.879-.616q.942-.293,1.9-.556t1.912-.5q.961-.233,1.929-.435t1.94-.374q.972-.172,1.951-.312t1.961-.25q.981-.109,1.966-.187t1.974-.125q.986-.047,1.973-.062t1.977,0q.987.016,1.975.063t1.972.126q.985.078,1.966.189t1.961.251q.977.141,1.951.313t1.94.375q.967.2,1.927.437t1.912.5c16.374,4.42,31.5,17.029,39.857,31.642q.327.57.643,1.147t.619,1.159q.3.583.595,1.172t.573,1.184q.279.595.546,1.2t.522,1.206q.255.606.5,1.217t.472,1.226q.229.616.446,1.236t.422,1.245q.2.624.4,1.253t.37,1.261q.178.632.344,1.268t.32,1.275q.152.64.292,1.282t.266,1.287q.126.645.24,1.292t.214,1.3q.1.649.186,1.3t.16,1.3q.074.653.134,1.307t.106,1.31q.047.655.08,1.312t.052,1.313q.021.657.026,1.314t0,1.314q-.005.657-.028,1.314t-.054,1.313q-.035.656-.082,1.312t-.109,1.31q-.061.654-.136,1.307t-.162,1.3c-.13.959-1.174,5.294-.468,5.76l.13-.048c1.18-.449,2.273-1.21,3.41-1.768a27.842,27.842,0,0,1,12.482-3.283c.94,1.695-.595,8.2-1.148,10.13-1.607,5.6-4.986,11.337-10.213,14.23-3.891,2.153-7.351,2.032-11.592,1.161-.009.037-.017.074-.026.11a23.429,23.429,0,0,1-1.318,3.133c-1.236,2.866-2.819,6.28-3.31,9.35-.42,2.618,1.308,6.216.5,8.637,1.576-1.031,2.691-3.808,3.849-5.361a18.941,18.941,0,0,1,2.761-2.9c.535-.474,2.864-2.133,2.992-2.575a4.922,4.922,0,0,1,.814-.78,2.509,2.509,0,0,1-.154-.543c.924-.839,3.1-1.132,4.328-1.432h-.3a6.437,6.437,0,0,1,1.777-.4l.162.2a13.627,13.627,0,0,0,2.4-.422l.537-.533-.132-.009a5.376,5.376,0,0,1,3.486-.262,3.137,3.137,0,0,1,.4.174q0,.315-.015.63a8.681,8.681,0,0,1,2.295.591c-.407,1.014-5.757,4.2-7.006,5.184-1.856,1.464-3.633,3.067-5.369,4.672-1.187,1.1-2.527,2.7-3.947,3.458,1.591,0,5.185-.518,6.385.669a3.191,3.191,0,0,1-.117,4.543,3.869,3.869,0,0,1-2.707.714c.191,2.046.113,4.147.119,6.2.011,4.835.215,9.7-3.057,13.657a7.591,7.591,0,0,1-4.051,2.7l-.08.267c1.03.429,15.9.138,18.44.139,1.141,0,3.029-.258,4.055.131l.048.287c-.7.517-23.87.188-26.832.185l-72.084-.057-23.164.035c-3.732,0-7.606.206-11.319-.047-6.135.329-12.417.048-18.568.062l-37.85.018-48.733.069c-4.642-.03-9.317.12-13.954-.023-4.539.148-9.092-.073-13.63-.112l-19.626,0-28.666.052c-4.9.014-9.821.14-14.716.034a7.318,7.318,0,0,1-2.563-.371c1.155-.587,25.318-.3,28.481-.314a8.327,8.327,0,0,1,2.309-3.832c-.283-.367-2.878-.421-3.5-.509q-.338-.046-.673-.1t-.668-.131q-.333-.072-.663-.156t-.656-.182q-.326-.1-.649-.208t-.64-.233q-.318-.122-.631-.257t-.62-.282q-.307-.147-.608-.306t-.6-.329q-.3-.171-.583-.352t-.569-.375q-.281-.193-.554-.4t-.538-.418q-.265-.214-.521-.439t-.5-.458c-4.226-4.033-5.547-8.985-5.686-14.653C62.275,177,56.2,170.029,54.762,164.454a11.285,11.285,0,0,1-1.372-6.258,4.6,4.6,0,0,1,1.87-3.112c2.611-1.912,6.061-1.423,9.032-.953-.185-1.446-.71-2.944-1.038-4.376q-.81-3.611-1.3-7.279a60.918,60.918,0,0,1,7.8-38.109C76.958,92.035,89.18,81.116,103.2,77.433c.729-.48,1.532-.888,2.29-1.323a22.274,22.274,0,0,0,3.42-.855c.16-.184.36-.352.537-.522A7.11,7.11,0,0,1,112,74.606c3.412-.009,6.843-.671,10.257-.852,4.51-.241,9-.02,13.511-.053.354-.7.8-1.369,1.205-2.042a7.325,7.325,0,0,1-3.147-3.537,6.243,6.243,0,0,1,.231-4.8q.074-.156.157-.307t.172-.3q.089-.148.186-.291t.2-.281c.069-.092.14-.183.213-.271s.148-.175.226-.261.157-.168.238-.25.165-.16.25-.237.172-.152.261-.225.179-.144.272-.212.186-.135.282-.2.193-.125.291-.185.2-.116.3-.171.2-.106.308-.156.209-.1.315-.14.213-.086.321-.125.2-.068.3-.1.2-.058.305-.083.206-.048.309-.068.208-.037.312-.052.209-.027.314-.036.211-.016.316-.021.211-.006.316,0,.211,0,.316.011.211.016.316.027.21.026.314.043.208.036.311.059.206.047.308.074.2.057.3.089.2.067.3.1.2.077.293.119.192.086.287.133c2.1,1.057,2.983,2.88,3.67,5a14.308,14.308,0,0,1,7.1-.584,17.256,17.256,0,0,1,11.492,6.4c1.847,2.22,3.537,5.347,3.535,8.287-.869,1.673-2.484.241-2.24,3.232A2.837,2.837,0,0,1,166.75,83.99Z" transform="translate(0 -12.565)" fill="#02066d"/>
      <path id="Path_1001115" data-name="Path 1001115" d="M293.276,83.99c4.39,1.191,10.157,4.012,14.577,5.771,19.989,7.952,38.132,13.029,58.228,1.488,10.146-5.828,15.136-12.76,23.467-20.372q.727-.671,1.472-1.318t1.514-1.271q.766-.624,1.552-1.222t1.593-1.172q.8-.573,1.626-1.121t1.663-1.069q.84-.521,1.695-1.015t1.726-.961q.871-.467,1.758-.905t1.784-.85q.9-.41,1.81-.792t1.834-.734q.923-.352,1.856-.676t1.879-.616q.942-.293,1.9-.556t1.912-.5q.961-.233,1.929-.435t1.94-.374q.972-.172,1.951-.312t1.961-.25q.981-.109,1.966-.187t1.974-.125q.986-.047,1.974-.062t1.977,0q.987.016,1.975.063t1.972.126q.985.078,1.966.189t1.961.251q.977.141,1.951.313t1.94.375q.967.2,1.927.437t1.912.5c16.374,4.42,31.5,17.029,39.857,31.642q.327.57.643,1.147t.619,1.159q.3.583.595,1.172t.573,1.184q.279.595.546,1.2t.522,1.206q.255.606.5,1.217t.472,1.226q.229.616.446,1.236t.422,1.245q.2.624.4,1.253t.37,1.261q.178.632.344,1.268t.32,1.275q.152.64.292,1.282t.266,1.287q.126.645.24,1.292t.214,1.3q.1.649.186,1.3t.16,1.3q.075.653.134,1.307t.106,1.31q.047.655.08,1.312t.052,1.313q.021.657.026,1.314t0,1.314q-.005.657-.028,1.314t-.054,1.313q-.035.656-.082,1.312t-.109,1.31q-.061.654-.136,1.307t-.162,1.3c-.13.959-1.174,5.294-.468,5.76-.191.519-3.964,3.509-4.707,4.329q-.271.295-.528.6t-.494.631q-.24.322-.461.656t-.424.68q-.2.346-.388.7t-.349.721q-.166.365-.31.739t-.271.754c-1.611,4.818.729,9.211.418,10.3.015.355-3.6,9.376-3.986,10.164a4.638,4.638,0,0,1-.756.987,2.308,2.308,0,0,0,.318-1.037c.009-1.522-1.572-16.574-1.929-17.673a2.664,2.664,0,0,0-.117-.315c.017-.051.035-.1.05-.153a8.107,8.107,0,0,0-.678-4.144,8.63,8.63,0,0,0,3.249-1.719,17.653,17.653,0,0,0,6.649-10.926c.318-2.365.013-7.016-1.444-8.934.154-.822-.766-2.617-1.117-3.374-2.128-4.58-9.236-14.429-14-16.182a6.993,6.993,0,0,1-2.048,3.017c.084.636-2.109,4.676-2.455,5.524a41.89,41.89,0,0,0-2.381,8.267c-.294,1.692.125,4.313-.6,5.786.019.034.037.068.054.1.635,1.313.539,3.284.886,4.737,1.4,5.859,4.93,11.035,10.724,13.2q.955.352,1.931.637c.5.9,1.685,10.712,1.416,11.714a2.026,2.026,0,0,1-.184.434c.069-3.063-3.5-7.3-5.482-9.381-2.258-2.363-5.651-5.119-8.777-6.138a12.9,12.9,0,0,0-.091-6.78,3.791,3.791,0,0,0-2.217-2.118,7.562,7.562,0,0,0-.74-.245c-1.156-.88-3.637-.573-5.047-.544a1.142,1.142,0,0,0,.1-.169c.392-.784.281-46.937-.065-47.887a2.521,2.521,0,0,0-1.279-1.45,1.722,1.722,0,0,0-1.126-.914c-2.548-.9-34.371-.388-39.37-.388l-13.655-.02c-2.537-.012-5.112-.122-7.643-.013a7.056,7.056,0,0,0-2.7.543,3.889,3.889,0,0,0-1.841,2.3c-.585,1.9-.232,8.068-.23,10.42l.013,24.074c.008,4.144.275,8.462-.019,12.583a1.592,1.592,0,0,1-.279.867l-25.16-.03c-3.274,0-8.535-.362-11.581.131a4.39,4.39,0,0,0-2.449,1.242c-1.669,1.652-1.518,4.114-1.5,6.284.024,2.588.448,8.006.017,10.272.117,4.58,0,9.177-.008,13.759l.037,23.314c.008,3.486-.024,6.987.08,10.472a26.375,26.375,0,0,1,.321,2.747l-.175.014c-3.557.264-7.288-.006-10.862-.033a23.462,23.462,0,0,0-4.432.135,5.282,5.282,0,0,0-2.981,1.5,2.8,2.8,0,0,0-.655,2.262,4.934,4.934,0,0,0,.692,2.142c.21.229.409.47.61.707l-.155.221a13.141,13.141,0,0,1-3.919.087,7.74,7.74,0,0,0-.91-3.807,9.009,9.009,0,0,0-5.794-4.139,21.017,21.017,0,0,0-2.48-.619l.736-1.921a10.23,10.23,0,0,1-5.694-2.313c-1.235.9-2.51,1.738-3.786,2.578-1.086-.455-2.121-1.013-3.163-1.557.179-1.4.231-2.815.3-4.224,1.616-.934,3.4-1.635,5.091-2.417,3.3-1.521,6.617-3.019,9.876-4.62,5.781-2.839,12.665-6.026,14.886-12.538a16.607,16.607,0,0,0,.536-2.48,10.016,10.016,0,0,0-1.32-5.992c-1.519-2.471-3.876-3.541-6.575-4.2,1.024-3.919,2.329-7.8,3.486-11.688,1.462-4.914,2.816-9.863,4.477-14.714a4.848,4.848,0,0,0,.117-.881,2.328,2.328,0,0,0-.7-1.633,3.117,3.117,0,0,0-1.834-.638,99.438,99.438,0,0,0-10.316-.087l-20.449.013a50.367,50.367,0,0,0-7.023-14.553q-.855-1.2-1.81-2.328t-2-2.163c-.745-.725-1.571-1.334-2.272-2.107-.16-.177-.136-.243-.174-.471.423-.114.9-.137,1.169-.491l-.172-.138a4.136,4.136,0,0,0-1.889.282,23.33,23.33,0,0,0-5.675-3.053c-1-.355-4.817-.912-5.281-1.414a1.877,1.877,0,0,1,.168-1.225,3.8,3.8,0,0,1,1.871-.2,9.729,9.729,0,0,0,6.631-2.918c3.792-3.806,3.786-8.73,3.8-13.743A2.825,2.825,0,0,1,293.276,83.99Z" transform="translate(-126.526 -12.565)" fill="#ddeaf8"/>
      <path id="Path_1001116" data-name="Path 1001116" d="M741.545,204.556c.282.132,1.02.22,1.042.284.175.476,1.26,8.265,1.229,8.444-.173.083-.448.152-.513.334-.294.836.186,1.6-.019,2.409-.383,1.509-2.07,2.551-2.33,3.965-.164.9.086,1.738-.916,2.187a4.009,4.009,0,0,1-.808.2c-.507.618-.561,1.391-1.273,1.81-.546.322-3.265,1.6-3.52,1.918a2.427,2.427,0,0,0-.236.694c-.268,1.082.327,2.964-.481,3.635.017-.051.035-.1.05-.153a8.108,8.108,0,0,0-.678-4.144,8.631,8.631,0,0,0,3.249-1.719,17.654,17.654,0,0,0,6.649-10.926C743.307,211.125,743,206.474,741.545,204.556Z" transform="translate(-378.502 -96.201)" fill="#fefefe"/>
      <path id="Path_1001117" data-name="Path 1001117" d="M700.529,186.561a7.757,7.757,0,0,0-.431-3.714c-.024-.035-.052-.066-.078-.1l.061-.457.494-.043-.36.105.411.525c.368-4.279.924-8.427,2.856-12.3.582-1.165,1.7-2.279,2.122-3.439.045-.121.093-.238.143-.357l.214.2c.084.636-2.109,4.676-2.455,5.524a41.9,41.9,0,0,0-2.381,8.267C700.832,182.466,701.25,185.088,700.529,186.561Z" transform="translate(-360.087 -75.168)" fill="#fefefe"/>
      <path id="Path_1001118" data-name="Path 1001118" d="M637.505,61.688a2.222,2.222,0,0,1,1.07-.094,4.648,4.648,0,0,1,2.585,1.4c-.238.659-.914,1.07-.983,1.785.444.981,2.087,1.557,3.007,2,.327,3.006-1.162,1.741-2.232,3.311,0,.991.446.991.715,1.821.019.056.033.114.05.171a6.068,6.068,0,0,1-2.172,1.733,3.878,3.878,0,0,0-.639-1.068c-.584-.086-1.219,1.8-2.014,2.055a3.172,3.172,0,0,1-2.126-.475,3.288,3.288,0,0,0-.3-1.574c-.558-.172-1.372.629-2.206.5a3.8,3.8,0,0,1-1.169-1.228c.009-.687.487-1.084.687-1.749a1.65,1.65,0,0,0-.215-.772c-.229-.359-.279-.427-.7-.512l-.457.332-.42-.2a13.837,13.837,0,0,1-.07-2.6c.439-.339,1.23-.167,1.808-.331,1.109-1.283-.187-2.21.37-3.4a1.606,1.606,0,0,1,.957-.776c1.081-.424,1.546.281,2.561.712a2.067,2.067,0,0,0,1.706.091A1.6,1.6,0,0,0,637.505,61.688Z" transform="translate(-321.037 -16.579)" fill="#75c5f8"/>
      <path id="Path_1001119" data-name="Path 1001119" d="M641.838,71.451a3.388,3.388,0,0,1,1.286.057,2.293,2.293,0,0,1,1.273,1.2,1.454,1.454,0,0,1-.017,1.173,2.372,2.372,0,0,1-1.423,1.106,3.545,3.545,0,0,1-1.065,0,1.46,1.46,0,0,1-.936-.62,1.825,1.825,0,0,1-.251-1.427A2.244,2.244,0,0,1,641.838,71.451Z" transform="translate(-327.032 -22.067)" fill="#ddeaf8"/>
      <path id="Path_1001120" data-name="Path 1001120" d="M488.637,146.083l.613-.034a3.3,3.3,0,0,1,1.444,1.591c-.009.047-.015.093-.026.139-.2.952-5.294,6.591-6.283,7.265a.812.812,0,0,0-.013-.093c-.214-.795-1.461-1.736-2.141-2.156-.2-.775-1.535-1.711-2.191-2.122a4.32,4.32,0,0,0,1.791-1.98c.034.018.067.034.1.053a6.1,6.1,0,0,1,2.211,2.441c.065-.034.128-.069.191-.107C485.172,150.562,488.414,147.072,488.637,146.083Z" transform="translate(-237.598 -63.623)" fill="#113887"/>
      <path id="Path_1001121" data-name="Path 1001121" d="M461.866,190.294l.043-.01.045-.008.045-.006.045,0h.09l.043,0,.045,0,.045.007.043.009.045.011.043.013.041.015.041.017.041.019.039.021.039.023.037.024.035.027.035.028.031.03.033.031.03.033.028.034.028.035c.009.012.017.024.024.037s.017.025.024.038l.022.039.019.04.019.041c0,.014.011.027.017.041s.009.028.013.043l.011.043.011.043.008.044c0,.015,0,.029.006.044s0,.03,0,.044,0,.03,0,.045,0,.03,0,.044,0,.03,0,.044,0,.03-.006.044,0,.029-.008.044-.006.029-.009.044a.314.314,0,0,1-.011.043c0,.014-.008.028-.013.043l-.015.042c-.006.014-.012.027-.017.041s-.013.027-.02.04-.013.026-.02.039l-.022.038-.026.037-.026.036-.028.035-.03.033-.031.031-.033.03-.034.029-.035.027-.037.025-.037.023-.039.022-.041.02-.041.018-.041.016a.938.938,0,0,1-.121.034.969.969,0,0,1-.125.017.921.921,0,0,1-.126,0,.952.952,0,0,1-.125-.017.979.979,0,0,1-.121-.033.914.914,0,0,1-.115-.049.95.95,0,0,1-.108-.064.926.926,0,0,1-.1-.078.937.937,0,0,1-.087-.091.979.979,0,0,1-.074-.1.947.947,0,0,1-.059-.11,1.015,1.015,0,0,1-.045-.117q-.017-.06-.028-.122a1.086,1.086,0,0,1-.011-.125.789.789,0,0,1,.006-.125,1.075,1.075,0,0,1,.022-.124.822.822,0,0,1,.039-.12.779.779,0,0,1,.054-.113.791.791,0,0,1,.069-.105.821.821,0,0,1,.082-.095.888.888,0,0,1,.095-.083,1.061,1.061,0,0,1,.1-.07.862.862,0,0,1,.113-.055A.664.664,0,0,1,461.866,190.294Z" transform="translate(-227.087 -88.243)" fill="#fefefe"/>
      <path id="Path_1001122" data-name="Path 1001122" d="M122.215,98.843c3.412-.009,6.843-.671,10.257-.852,4.51-.241,9-.02,13.511-.053-2.034,4.605-2.627,9.2-.778,14a12.816,12.816,0,0,0,6.582,7.3,13.729,13.729,0,0,0,3.062.834c-.008,1.558.017,3.125-.081,4.68a55.612,55.612,0,0,0-6.389.606,30.778,30.778,0,0,0-17,10.172c-6.524,7.558-12.67,22.048-11.887,32.1a11.018,11.018,0,0,0,3.614,7.678,18.532,18.532,0,0,0,3.825,2.433c-2.806,8.8-4.679,20.082-.249,28.634a15.494,15.494,0,0,0,9.272,7.66,17,17,0,0,0,5.062.866l.048.231c-4.594,1.485-9.48,3.207-13.154,6.475a73.96,73.96,0,0,0,4.056,7.312l-3.677.031a4.92,4.92,0,0,0-1.619-3.736,2.787,2.787,0,0,0-.749-.466c-1.777-1.08-7.6-.55-9.9-.558l.216-.4c7.08-13.29,7.075-31.958,2.711-46.156-3.228-10.5-10.106-23.015-20.137-28.289-2.1-1.1-4.752-1.981-7.1-1.225a5.633,5.633,0,0,0-3.318,3.068c-3.318,6.834-.263,20.3,2.02,27.487.963,3.031,2.215,5.943,3.259,8.943a31.03,31.03,0,0,0-8.174-5.405c-1.555-1.6-8.693-3.416-10.994-3.845-.185-1.446-.71-2.944-1.038-4.376q-.81-3.611-1.3-7.279a60.918,60.918,0,0,1,7.8-38.109c7.207-12.331,19.429-23.25,33.445-26.933.729-.48,1.532-.888,2.29-1.323a22.274,22.274,0,0,0,3.42-.855c.16-.184.36-.352.537-.522A7.1,7.1,0,0,1,122.215,98.843Z" transform="translate(-10.211 -36.8)" fill="#ddeaf8"/>
      <path id="Path_1001123" data-name="Path 1001123" d="M167.877,100.639c.16-.184.36-.352.537-.522a7.11,7.11,0,0,1,2.561-.127c.2.754.369,1.732,1.118,2.141,1.515.828,3.58-1.361,4.834,1.006.093.967-.512,1.636.37,2.358a2.122,2.122,0,0,0,1.7.4c.71.386.967,1.545,1.221,2.262-.7.507-1.537.994-1.685,1.916a1.116,1.116,0,0,0,.193.838c.509.7,1.449,1.254,1.384,2.218a2.139,2.139,0,0,1-.781,1.435c-.837.672-2.608.445-2.739,1.73a3.65,3.65,0,0,0,.689,1.824,15.041,15.041,0,0,1-2.139,1.844l-1.558-1.054c-.557.143-1.434.269-1.749.789-.486.8-.491,1.346-1.471,1.624a1.629,1.629,0,0,1-1.407-.127c-1.193-.734-1.182-2.55-3.153-2.167-.926.18-1.611.663-2.523.059-.446-.3-.867-.641-1.287-.972.246-.659.731-1.628.42-2.307-.589-1.288-2.336-.437-3.007-2.31-.018-.234-.039-.472-.036-.707a1.116,1.116,0,0,1,.366-1.024l.074-.137a3.058,3.058,0,0,1-.069-.56c0-.991-.592-2.133-.484-3,.668-3.223,1.4-1.344,2.926-2.772a1.389,1.389,0,0,0,.513-1.011,2.848,2.848,0,0,1-.522-1.349c0-.039,0-.079-.007-.119.729-.48,1.532-.888,2.29-1.323A22.5,22.5,0,0,0,167.877,100.639Z" transform="translate(-58.972 -37.947)" fill="#4eacf1"/>
      <path id="Path_1001124" data-name="Path 1001124" d="M159.565,128.356c-.018-.234-.039-.472-.036-.707a1.116,1.116,0,0,1,.366-1.024c.765.295,1.593-.186,1.983.673a1.108,1.108,0,0,1,.012.912c-.181.429-.347.484-.733.714a1.911,1.911,0,0,1-1.386-.449C159.7,128.433,159.632,128.4,159.565,128.356Z" transform="translate(-59.13 -52.807)" fill="#75c5f8"/>
      <path id="Path_1001125" data-name="Path 1001125" d="M171.008,102.374a22.274,22.274,0,0,0,3.42-.855,1.891,1.891,0,0,1-.8,1.459,2.024,2.024,0,0,1-1.509.143A3.265,3.265,0,0,1,171.008,102.374Z" transform="translate(-65.522 -38.828)" fill="#ddeaf8"/>
      <path id="Path_1001126" data-name="Path 1001126" d="M159.809,121.844a3.058,3.058,0,0,1-.069-.56c0-.991-.592-2.133-.484-3,.024.031.047.061.071.091.738.927,1.462.981,1.437,2.385A1.837,1.837,0,0,1,159.809,121.844Z" transform="translate(-58.971 -48.164)" fill="#fefefe"/>
      <path id="Path_1001127" data-name="Path 1001127" d="M181.389,122.144l-.07.077c-.024.025-.049.05-.074.074s-.051.048-.076.071-.052.046-.079.069-.054.044-.082.066l-.084.062-.086.059-.088.056c-.03.018-.06.036-.09.053l-.092.049-.094.046-.1.043-.1.039-.1.035-.1.031-.1.027-.1.023-.1.02-.1.016-.1.012-.1.008-.1,0h-.1l-.1,0-.1-.008-.1-.012-.1-.016-.1-.02-.1-.023-.1-.027-.1-.031-.1-.035-.1-.038-.1-.042-.094-.046-.092-.049-.091-.052c-.03-.018-.059-.036-.089-.056l-.086-.059-.084-.062-.082-.065-.079-.068-.077-.071-.074-.074-.071-.077-.068-.079c-.022-.027-.044-.054-.065-.082l-.062-.084-.059-.086c-.019-.029-.037-.059-.055-.089s-.035-.06-.052-.091-.033-.062-.048-.093-.031-.062-.045-.094-.028-.064-.042-.1-.026-.065-.038-.1-.023-.066-.034-.1-.021-.066-.03-.1-.018-.067-.027-.1-.016-.068-.023-.1-.013-.069-.019-.1-.011-.069-.015-.1-.008-.069-.011-.1-.005-.07-.007-.1,0-.07,0-.1,0-.07,0-.1,0-.07,0-.1,0-.07.008-.1.008-.07.012-.1.01-.069.016-.1.013-.069.02-.1.016-.068.024-.1.018-.067.028-.1.02-.067.032-.1.023-.066.035-.1.025-.065.039-.1.028-.064.043-.1.03-.063.046-.094.032-.062.05-.092.035-.06.053-.09.037-.059.057-.088.039-.058.06-.086l.063-.083c.022-.027.043-.055.066-.081l.069-.078c.023-.026.047-.051.072-.076s.049-.049.075-.073.051-.047.078-.07.053-.045.08-.067.055-.043.082-.064l.085-.061.087-.058.089-.055.091-.051.093-.048.095-.044.1-.04.1-.037.1-.033.1-.029.1-.026.1-.022.1-.018.1-.014.1-.01.1-.006.1,0h.1l.1.006.1.009.1.013.1.017.1.021.1.025.1.029.1.032.1.036.1.04.1.043.094.047.092.051.09.054.088.057.085.06.083.064c.027.022.054.044.081.067s.052.046.078.07.051.048.075.073l.073.075c.029.031.057.063.085.1s.054.066.08.1.051.068.076.1.048.07.07.106.045.073.066.109.041.074.061.113.038.076.055.115.034.078.05.117.031.079.045.12.027.081.039.122.023.082.033.123.02.083.027.125.016.084.022.126.012.084.016.127.008.085.01.127,0,.085,0,.128,0,.085,0,.128,0,.085-.007.128-.008.085-.013.127-.012.084-.019.126-.016.084-.025.125-.02.083-.031.124-.023.082-.036.123-.027.081-.042.121-.031.079-.047.119-.034.078-.053.116-.038.077-.058.114-.041.074-.063.111-.045.073-.068.108-.048.07-.073.1-.051.068-.078.1S181.417,122.112,181.389,122.144Z" transform="translate(-68.591 -47.739)" fill="#ddeaf8"/>
      <path id="Path_1001128" data-name="Path 1001128" d="M186.741,123.261c-.821-.445.289-1.614.027-2.319-.12-.323-.477-.686-.638-1.028l.565-.384c.029.031.057.063.085.1s.054.066.08.1.051.068.076.1.048.07.07.106.045.073.066.109.041.074.061.113.038.076.055.115.034.078.05.117.031.079.045.12.027.081.039.122.023.082.033.123.02.083.027.125.016.084.022.126.012.084.016.127.008.085.01.127,0,.085,0,.128,0,.085,0,.128,0,.085-.007.128-.008.085-.013.127-.012.084-.019.126-.016.084-.025.125-.02.083-.031.124-.023.082-.036.123-.027.081-.042.121-.031.079-.047.119-.034.078-.053.116-.038.077-.058.114-.041.074-.063.111-.045.073-.068.108-.048.07-.073.1-.051.068-.078.1S186.769,123.229,186.741,123.261Z" transform="translate(-73.943 -48.856)" fill="#fefefe"/>
      <path id="Path_1001129" data-name="Path 1001129" d="M762.712,300.885a4.922,4.922,0,0,1,.814-.78,2.507,2.507,0,0,1-.154-.543c.924-.839,3.1-1.132,4.328-1.432h-.3a6.437,6.437,0,0,1,1.777-.4l.162.2C769.231,297.994,762.743,300.878,762.712,300.885Z" transform="translate(-394.995 -148.08)" fill="#f8f2ef"/>
      <path id="Path_1001130" data-name="Path 1001130" d="M783.074,295.979l.537-.533-.132-.009a5.376,5.376,0,0,1,3.486-.262,3.142,3.142,0,0,1,.4.174q0,.315-.015.63A30.551,30.551,0,0,0,783.074,295.979Z" transform="translate(-406.333 -146.558)" fill="#f8f2ef"/>
      <path id="Path_1001131" data-name="Path 1001131" d="M440.112,245.55a13.755,13.755,0,0,0,.1-3.185l-.052-8.375a30.529,30.529,0,0,1,.1-4.842,4.73,4.73,0,0,1,1.05-2.467,3.772,3.772,0,0,1,2.128-1.2,60.476,60.476,0,0,1,8.117-.116l13.573.012,42.061.043c6.629,0,13.313.206,19.936-.011,4.138.123,8.292.039,12.434.026a38.2,38.2,0,0,1,6.084.113,4.8,4.8,0,0,1,2.979,1.412,4.7,4.7,0,0,1,1.334,2.357,53.457,53.457,0,0,1,.1,7.073l.033,14.2.037,28.371c-.006,4.252.162,8.565,0,12.809a2.043,2.043,0,0,1-.285,1.127l-73.327-.033-22.852.028c-3.73.009-7.569.208-11.291.012a5.011,5.011,0,0,1-1.685-.4c-.065-.207-.121-.419-.188-.625-.721-2.175-.324-9.976-.32-12.642l.011-21.756C440.188,253.512,440.318,249.5,440.112,245.55Z" transform="translate(-215.34 -107.74)" fill="#fefefe"/>
      <path id="Path_1001132" data-name="Path 1001132" d="M491.567,248.679a30.791,30.791,0,0,1,6.274.034,1.834,1.834,0,0,1,.232.437,6.735,6.735,0,0,1-.19,3.64c2.09.364,5.971,1.508,7.339,3.224a7.939,7.939,0,0,0,2.628-2.344q.185.1.364.214c1.035.664,4.083,3.58,4.306,4.655-.223.921-1.578,1.894-2.3,2.46a9.118,9.118,0,0,1,1.947,3.453c.347.916,1.052,2.767.645,3.676,1.388-.005,3.232-.275,4.545.15a1.116,1.116,0,0,1,.242.35,10.127,10.127,0,0,1-.08,5.4c-.784.738-3.289.408-4.388.388a1.758,1.758,0,0,1,.084.741c-.258,2.053-1.567,5.813-3.2,7.133a2.1,2.1,0,0,1,.42.277c.589.5,1.866,1.71,1.927,2.514-.4,1.011-3.951,4.027-5.016,4.545-.238-.833-1.973-2.084-2.722-2.51-.022.037-.043.076-.065.112-.823,1.283-5.356,2.368-6.79,2.639a1.746,1.746,0,0,1,.2.451,4.372,4.372,0,0,1-.2,3.35,2.286,2.286,0,0,1-1.548.271l-5.313-.019c.026-.049.054-.1.08-.148a8.525,8.525,0,0,0-.152-4.186c-2.749-.669-4.875-2.033-7.4-3.172a1.153,1.153,0,0,1-.035.2,8.445,8.445,0,0,1-2.894,2.774c-.242-1.231-3.07-3.5-4.087-4.233a9.794,9.794,0,0,0,2.73-3.279,7.376,7.376,0,0,0-.97-1.891,20.922,20.922,0,0,1-1.959-4.8,2.156,2.156,0,0,0-.429-.948,9.761,9.761,0,0,1-3.672-.242c-1.355-.557.148-4.057-.656-5.844-.015-.035-.034-.068-.05-.1,1.457-.08,2.942-.015,4.4-.008.676-.861,1.054-2.743,1.481-3.794a34.812,34.812,0,0,0,1.5-3.292c-.286-.777-2.4-2.354-3.135-2.795a19.881,19.881,0,0,0,4.648-4.587c.056.023.109.044.164.068a6.72,6.72,0,0,1,2.819,2.538c1.28-.489,2.516-1.415,3.8-1.982,1.215-.538,2.73-.788,3.852-1.412C491.643,251.557,490.689,249.791,491.567,248.679Z" transform="translate(-232.799 -120.688)" fill="#113887"/>
      <path id="Path_1001133" data-name="Path 1001133" d="M492.637,250.489c1.578-.461,3.75-.173,5.408-.152a6.521,6.521,0,0,1,.165,3.736,1.681,1.681,0,0,1-.137.3c1.38.229,5.64,1.207,6.493,2.323a1.059,1.059,0,0,1,.13.257c-.242.329-.539.327-.922.425l-.405.275c.974,1.431,2.47,2.484,3.609,3.778a16.283,16.283,0,0,1-3.391,23.964,10.61,10.61,0,0,1-4.124,1.824c-.359.283-6.357,2.093-7.56,2.565a25.636,25.636,0,0,1-7.638-3.476c-.184.846-2.051,2.488-2.782,2.991-.227-.823-2.479-2.736-3.222-3.216a9.32,9.32,0,0,0,2.617-3.262c-.091-.964-1.342-2.257-1.81-3.161-.786-1.524-.872-4.026-2.012-5.247l-4.1.066a1.35,1.35,0,0,0,.2-.443c.238-1.036.316-3.4-.23-4.3q2.122.029,4.243-.04c.784-.757,1.2-3.167,1.593-4.232a18.827,18.827,0,0,1,9.5-9.761c1.312-.569,2.819-.733,4.1-1.342l.076-.038C493,253.445,492.811,251.484,492.637,250.489Z" transform="translate(-233.64 -121.632)" fill="#2b60b5"/>
      <path id="Path_1001134" data-name="Path 1001134" d="M492.637,250.489c1.578-.461,3.75-.173,5.408-.152a6.521,6.521,0,0,1,.165,3.736,1.677,1.677,0,0,1-.137.3c1.38.229,5.64,1.207,6.493,2.323a1.056,1.056,0,0,1,.13.257c-.242.329-.539.327-.922.425l-.8.043a1.789,1.789,0,0,1-.855.489c-1.212.081-3.116-.826-4.36-1.067a14.256,14.256,0,0,0-3.17-.125,16.273,16.273,0,0,0-11.235,5.85,14.812,14.812,0,0,0-3.276,11.063,15.217,15.217,0,0,0,5.785,10.455c3.252,2.554,6.985,3.3,11.046,3.106a6.558,6.558,0,0,1,2.553.027c-.359.283-6.357,2.093-7.56,2.565a25.636,25.636,0,0,1-7.638-3.476c-.184.846-2.051,2.488-2.782,2.991-.227-.823-2.479-2.736-3.222-3.216a9.32,9.32,0,0,0,2.617-3.262c-.091-.964-1.342-2.257-1.81-3.161-.786-1.524-.872-4.026-2.012-5.247l-4.1.066a1.35,1.35,0,0,0,.2-.443c.238-1.036.316-3.4-.23-4.3q2.122.029,4.243-.04c.784-.757,1.2-3.167,1.593-4.232a18.827,18.827,0,0,1,9.5-9.761c1.312-.569,2.819-.733,4.1-1.342l.076-.038C493,253.445,492.811,251.484,492.637,250.489Z" transform="translate(-233.64 -121.632)" fill="#4eacf1"/>
      <path id="Path_1001135" data-name="Path 1001135" d="M517.393,250.489c1.578-.461,3.75-.173,5.408-.152a6.521,6.521,0,0,1,.165,3.736,1.681,1.681,0,0,1-.137.3c1.38.229,5.64,1.207,6.493,2.323a1.058,1.058,0,0,1,.13.257c-.242.329-.539.327-.922.425l-.8.043a1.789,1.789,0,0,1-.855.489c-1.212.081-3.116-.826-4.36-1.067a14.255,14.255,0,0,0-3.17-.125,4.854,4.854,0,0,0,.812-.239,2.155,2.155,0,0,0,.148-.412c.264-1.143.359-4.567-.281-5.553Z" transform="translate(-258.397 -121.632)" fill="#4eacf1"/>
      <path id="Path_1001136" data-name="Path 1001136" d="M511.552,279.966c.137-.02.275-.035.413-.048s.275-.022.413-.028.277-.008.416-.008.276,0,.414.013.275.019.413.033.274.032.411.053.274.045.409.073.271.059.405.093.266.072.4.113.264.085.394.132.259.1.386.151.254.11.379.17.247.122.37.188.241.134.359.206.235.146.349.223.228.157.338.24.22.168.327.256.211.179.314.272.2.189.3.287.191.2.285.3.183.207.271.315.171.216.253.328.163.224.24.339.151.232.221.351.138.239.2.361.128.245.186.371.116.252.169.379.1.257.149.387.089.261.13.394.076.265.109.4.064.269.091.4.051.272.07.409.036.274.05.412.024.276.031.413.009.277.009.414,0,.277-.009.415-.016.276-.03.413-.03.275-.05.412-.045.273-.07.409-.058.271-.091.405-.07.267-.109.4-.083.264-.13.394-.095.26-.147.387-.109.254-.167.379-.121.249-.186.371-.134.242-.2.362-.144.236-.221.351-.155.229-.238.34-.166.221-.253.328-.179.212-.271.315-.187.2-.285.3-.2.194-.3.287-.206.184-.312.272-.215.174-.327.257-.223.163-.338.241-.23.152-.349.223-.237.14-.359.206-.246.129-.37.188-.251.117-.379.17-.257.1-.386.152-.26.091-.392.133-.266.078-.4.113-.268.066-.4.094-.273.052-.409.074-.276.039-.414.054-.277.026-.416.033-.279.012-.418.013-.279,0-.418-.008-.279-.016-.418-.028-.277-.029-.414-.049-.276-.043-.413-.07-.274-.056-.409-.09-.271-.07-.4-.109-.266-.083-.4-.129-.263-.1-.392-.149-.257-.109-.383-.168-.251-.121-.374-.187-.245-.133-.364-.2-.238-.145-.355-.222-.23-.157-.342-.24-.223-.168-.331-.256-.215-.179-.318-.272-.206-.189-.3-.288-.194-.2-.288-.3-.186-.208-.275-.316-.173-.217-.257-.329-.165-.226-.242-.342-.153-.234-.225-.353-.14-.241-.206-.363-.129-.247-.19-.373-.116-.254-.169-.382-.1-.259-.151-.39-.091-.264-.132-.4-.078-.268-.112-.4-.066-.271-.093-.408-.05-.274-.07-.412-.039-.276-.052-.415-.023-.278-.03-.417-.009-.279-.009-.418,0-.279.009-.418.018-.278.031-.417.031-.277.052-.415.045-.275.073-.412.058-.273.091-.408.073-.269.113-.4.085-.266.132-.4.1-.261.151-.39.112-.256.171-.382.123-.25.19-.373.134-.244.206-.363.147-.237.225-.353.159-.23.242-.341.17-.221.258-.329.181-.213.275-.316.191-.2.29-.3.2-.194.3-.287.209-.184.318-.272.218-.173.331-.256.226-.162.342-.239.235-.151.355-.222.242-.139.364-.2.249-.127.375-.186.254-.115.383-.167.26-.1.392-.148.264-.089.4-.129.268-.076.4-.109.271-.062.409-.089S511.415,279.985,511.552,279.966Z" transform="translate(-251.082 -138.144)" fill="#fefefe"/>
      <path id="Path_1001137" data-name="Path 1001137" d="M486.765,262.672a3.91,3.91,0,0,1,.741,0,4.48,4.48,0,0,1,1.9,1.87c-.16.736-2.518,2.872-3.2,3.335-.569.056-2.145-1.544-2.788-1.886A10.286,10.286,0,0,0,486.765,262.672Z" transform="translate(-239.48 -128.551)" fill="#75c5f8"/>
      <path id="Path_1001138" data-name="Path 1001138" d="M550.619,263.062a1.258,1.258,0,0,1,.9.08c.9.553,2.9,2.318,3.161,3.306-.173.815-1.2,1.6-1.84,2.084l-.091.046c-1.2-.681-2.078-2.893-3.967-3.888A4.915,4.915,0,0,0,550.619,263.062Z" transform="translate(-275.873 -128.754)" fill="#4eacf1"/>
      <path id="Path_1001139" data-name="Path 1001139" d="M607.079,249.578c.868-.844.489-1.915,2.241-3.029a1.7,1.7,0,0,1,1.422-.232,4.17,4.17,0,0,1,1.989,1.745,1.643,1.643,0,0,1,.117,1.319c2.746.57,9.713.167,12.869.152a1.769,1.769,0,0,1,.251.767c.136,2.044.3,17.851-.006,19.029a1.586,1.586,0,0,1-.225.492l-31.66.039a1.665,1.665,0,0,0,.277-.785c.179-1.843.377-17.459.078-18.877a1.962,1.962,0,0,0-.285-.654C598.405,249.543,602.843,249.289,607.079,249.578Z" transform="translate(-301.096 -119.417)" fill="#4eacf1"/>
      <path id="Path_1001140" data-name="Path 1001140" d="M623.381,249.578c.868-.844.489-1.915,2.241-3.029a1.7,1.7,0,0,1,1.422-.232,4.17,4.17,0,0,1,1.989,1.745,1.643,1.643,0,0,1,.117,1.319,5.244,5.244,0,0,1,.1,3.2,1.853,1.853,0,0,1-.164.3l-5.729,0a4.62,4.62,0,0,0,.134-3.079A1.53,1.53,0,0,0,623.381,249.578Z" transform="translate(-317.398 -119.417)" fill="#02066d"/>
      <path id="Path_1001141" data-name="Path 1001141" d="M628.975,251.226a1.021,1.021,0,0,1,.106-.06,1,1,0,0,1,.113-.046.9.9,0,0,1,.119-.03.889.889,0,0,1,.123-.014.919.919,0,0,1,.121,0,.975.975,0,0,1,.123.019.92.92,0,0,1,.117.034.929.929,0,0,1,.112.05,1,1,0,0,1,.1.064.867.867,0,0,1,.095.077.99.99,0,0,1,.084.089.8.8,0,0,1,.07.1.751.751,0,0,1,.058.108.777.777,0,0,1,.042.114.787.787,0,0,1,.028.119,1.012,1.012,0,0,1,.011.121.746.746,0,0,1-.006.122.794.794,0,0,1-.02.121.914.914,0,0,1-.037.117.981.981,0,0,1-.052.11.864.864,0,0,1-.145.2.939.939,0,0,1-.091.082,1.008,1.008,0,0,1-.1.069l-.039.022-.039.02-.041.018-.043.016-.041.014-.043.012-.045.01-.043.008-.045.005-.045,0h-.087l-.045,0-.045-.005-.045-.008-.043-.009-.043-.012-.043-.014-.041-.016-.041-.018-.039-.02-.039-.022-.039-.023-.035-.025-.035-.027-.035-.029-.031-.03a.424.424,0,0,1-.031-.032l-.03-.033-.028-.035-.026-.036c-.009-.012-.017-.025-.024-.037l-.022-.038c-.008-.013-.014-.026-.02-.039a.251.251,0,0,1-.019-.04l-.019-.041c0-.014-.009-.028-.013-.042s-.009-.028-.013-.043a.309.309,0,0,1-.011-.043c0-.014-.007-.029-.009-.043s0-.029-.006-.044,0-.029-.006-.044,0-.03,0-.044v-.044c0-.015,0-.03,0-.044s0-.03,0-.044l.008-.044.008-.044.011-.043c0-.014.008-.028.013-.043s.008-.028.013-.042.012-.027.017-.041l.019-.04c.008-.013.014-.027.02-.039s.016-.026.024-.038.016-.025.024-.037a.252.252,0,0,1,.026-.036l.026-.035.03-.033a.425.425,0,0,1,.031-.032l.031-.03.033-.029.035-.027A.3.3,0,0,1,628.975,251.226Z" transform="translate(-320.299 -122.103)" fill="#f8f2ef"/>
      <path id="Path_1001142" data-name="Path 1001142" d="M607.178,319.757c.453-.819.32-1.848.975-2.608a2.906,2.906,0,0,1,1.923-.841,2.721,2.721,0,0,1,2.081.622,1.61,1.61,0,0,1,.474,1.38c.02.023.041.044.059.067a2.113,2.113,0,0,1,.349,1.279c.643.422,11.261.242,12.813.228.405.71.52,12.654.2,13.747a1.809,1.809,0,0,1-.24.485l-31.5-.035c.673-1.425.37-12.118.188-14.212C598.682,319.586,603.032,320.209,607.178,319.757Z" transform="translate(-301.225 -158.421)" fill="#4eacf1"/>
      <path id="Path_1001143" data-name="Path 1001143" d="M622.812,319.757c.453-.819.32-1.848.975-2.608a2.906,2.906,0,0,1,1.923-.841,2.721,2.721,0,0,1,2.081.622,1.61,1.61,0,0,1,.474,1.38c.275,1.323,1.329,3.381.643,4.673l-6.521.006A7.019,7.019,0,0,0,622.812,319.757Z" transform="translate(-316.86 -158.421)" fill="#113887"/>
      <path id="Path_1001144" data-name="Path 1001144" d="M628.678,320.845l.056-.03.058-.026q.03-.012.061-.021l.059-.017.063-.013c.021,0,.042-.007.063-.008l.063,0h.063l.063,0,.063.009.061.014.061.018.059.022c.02.008.039.017.058.026l.056.03c.019.011.036.022.054.034l.052.038.048.041.045.044c.015.016.029.031.043.047s.027.033.039.051a.555.555,0,0,1,.034.053c.011.018.022.036.031.055s.019.038.028.058.017.039.024.059l.019.061c0,.02.01.041.015.062s.007.042.009.063a.623.623,0,0,1,.008.063c0,.021,0,.043,0,.063s0,.043,0,.063a.52.52,0,0,1-.008.063l-.011.063c0,.021-.011.041-.017.062s-.013.04-.02.06-.016.039-.024.058l-.03.057c-.01.019-.02.037-.031.055l-.037.052c-.012.017-.025.033-.039.05l-.045.047c-.015.015-.031.03-.047.043l-.048.04-.052.037-.056.033-.056.029-.059.025-.059.021c-.026.008-.053.015-.08.021s-.054.01-.082.013-.055.005-.082.006-.056,0-.084,0-.055,0-.082-.009-.054-.01-.082-.017-.052-.015-.078-.024-.052-.02-.078-.031-.049-.024-.073-.038-.047-.029-.07-.045-.044-.033-.065-.051a.78.78,0,0,1-.059-.056.721.721,0,0,1-.056-.062.709.709,0,0,1-.048-.066.582.582,0,0,1-.043-.07q-.021-.037-.037-.074c-.011-.025-.021-.051-.03-.077a.793.793,0,0,1-.022-.08c-.006-.027-.011-.054-.015-.082s-.006-.055-.008-.082,0-.055,0-.083.006-.055.009-.082.009-.055.015-.082.014-.054.022-.079.019-.052.03-.077a.777.777,0,0,1,.037-.074c.014-.024.028-.047.043-.07s.033-.045.05-.066.036-.042.054-.062.04-.039.061-.056.043-.035.065-.051A.8.8,0,0,1,628.678,320.845Z" transform="translate(-320.107 -160.886)" fill="#fefefe"/>
      <path id="Path_1001145" data-name="Path 1001145" d="M562.838,132.851q17.922.124,35.843.05a2.372,2.372,0,0,1,.277,1c.347,5.814.058,11.837.065,17.673.008,7.1.273,14.3-.069,21.383l-.219.328c-.362.04-.723.085-1.087.093a30.221,30.221,0,0,0-5.519-.124l-9.635.015-28.672-.044c-5.906.008-11.834.138-17.734-.024a35.955,35.955,0,0,1-4.09.035,1.739,1.739,0,0,0,.266-.6,26.971,26.971,0,0,0,.075-4.9l-.022-13.14c-.028-6.792.357-13.957.048-20.688a2,2,0,0,0-.316-1.053c1.316-.013,2.624,0,3.942.052C544.933,132.8,553.9,133.086,562.838,132.851Z" transform="translate(-266.529 -56.274)" fill="#4eacf1"/>
      <path id="Path_1001146" data-name="Path 1001146" d="M532.048,132.861c1.316-.013,2.624,0,3.942.052a1.855,1.855,0,0,1,.414,1.188c.167,2.614.043,5.3.041,7.924l-.009,14.858-.008,10.325a50.716,50.716,0,0,1-.065,5.5,1.171,1.171,0,0,1-.275.5,35.955,35.955,0,0,1-4.09.035,1.741,1.741,0,0,0,.266-.6,26.977,26.977,0,0,0,.074-4.9l-.022-13.14c-.028-6.792.357-13.957.048-20.688A2,2,0,0,0,532.048,132.861Z" transform="translate(-266.528 -56.276)" fill="#75c5f8"/>
      <path id="Path_1001147" data-name="Path 1001147" d="M560.23,178.115c.064-.017.129-.032.2-.047s.131-.028.2-.04.131-.024.2-.034.132-.02.2-.027.132-.015.2-.021.134-.011.2-.014l.2-.008h.2c.067,0,.134,0,.2.006s.134.007.2.012l.2.019c.067.007.133.016.2.025s.133.02.2.032.131.024.2.038.131.029.2.045.129.033.193.051.129.037.193.058l.19.064q.1.033.187.07c.062.024.124.05.186.076s.123.054.182.082.121.058.18.088.119.062.179.094.116.066.173.1.114.07.171.105.112.073.167.111.109.077.162.117.108.08.16.122l.156.127q.076.065.151.132c.05.045.1.09.147.137l.141.142c.047.048.093.1.137.146s.089.1.132.151.086.1.126.155.083.105.123.159.078.108.117.163l.112.167c.036.056.07.113.1.17s.068.115.1.174.064.117.095.177.061.12.089.18.056.121.082.183.051.123.076.185.048.125.07.188.043.126.063.19.04.128.058.192.036.129.052.194.031.13.045.2.027.131.039.2.022.132.031.2.019.133.026.2.014.133.019.2.009.133.011.2.006.133.006.2,0,.133,0,.2,0,.134-.008.2-.009.133-.015.2-.012.133-.02.2-.016.133-.026.2-.023.132-.035.2-.025.131-.039.2-.031.13-.047.195-.035.129-.054.193-.039.128-.059.191-.043.127-.065.189-.048.125-.073.187-.051.124-.078.185-.055.122-.084.182-.06.12-.091.179-.062.118-.095.176-.067.116-.1.173-.07.113-.108.169-.073.111-.112.166-.078.109-.119.162-.081.106-.123.158-.085.1-.128.154l-.134.149q-.068.074-.14.145c-.046.047-.094.094-.143.14s-.1.091-.147.136-.1.088-.152.131-.1.085-.156.125-.105.081-.16.121-.109.078-.164.115-.112.074-.169.109-.113.07-.171.1l-.175.1c-.058.032-.118.062-.179.092s-.12.059-.18.086-.122.055-.184.081-.123.051-.186.074-.125.047-.187.068-.127.043-.191.062-.127.038-.191.056-.131.034-.2.05c-.1.023-.193.043-.29.061s-.2.034-.294.047-.2.024-.3.033-.2.015-.3.019-.2,0-.3,0-.2,0-.3-.011-.2-.014-.3-.025-.2-.024-.293-.039-.2-.033-.292-.054-.193-.043-.29-.068-.19-.052-.285-.082-.187-.062-.281-.1-.185-.07-.277-.109-.18-.079-.269-.122-.177-.088-.264-.136-.173-.1-.258-.148-.167-.105-.249-.161-.162-.113-.242-.173-.157-.121-.232-.184-.15-.129-.223-.2-.145-.136-.214-.206-.137-.143-.2-.216-.129-.149-.191-.226-.124-.155-.182-.235-.115-.161-.169-.244-.107-.166-.158-.252-.1-.172-.145-.259-.09-.176-.132-.266-.082-.18-.119-.272-.074-.184-.106-.277-.064-.187-.093-.282-.055-.19-.078-.286-.045-.193-.065-.29-.035-.195-.05-.292-.025-.2-.035-.295-.016-.2-.02-.3-.008-.2-.008-.3,0-.2.008-.3.012-.2.022-.3.022-.2.037-.295.03-.2.05-.293.042-.194.065-.289.05-.191.078-.286.061-.189.093-.282.07-.185.108-.277.077-.182.119-.272.087-.178.134-.265.094-.174.145-.258.1-.169.158-.251.113-.164.171-.243.119-.158.182-.234.126-.152.193-.226.133-.145.2-.216.143-.139.215-.206.148-.132.223-.195.155-.124.234-.183.16-.117.242-.172.165-.109.249-.16.17-.1.258-.148.175-.092.264-.135.179-.083.269-.122.184-.074.277-.109.187-.066.281-.1S560.135,178.14,560.23,178.115Z" transform="translate(-279.707 -81.37)" fill="#fefefe"/>
      <path id="Path_1001148" data-name="Path 1001148" d="M562.688,181.556c.07-.018.142-.035.214-.049s.142-.027.214-.039.145-.02.218-.028.145-.013.218-.017.146-.006.219-.007.146,0,.219,0,.144.008.218.015.145.016.218.026.144.022.215.036.143.03.214.047.141.036.21.057.14.043.208.067.137.05.2.078.135.057.2.087.131.063.2.1.128.07.191.107.125.076.186.116.12.082.179.125.117.088.173.133.113.093.167.142.107.1.158.15.1.1.152.158.1.109.143.165.092.113.136.172.086.118.126.178.081.122.119.184.073.125.108.19.068.129.1.195.061.132.089.2.055.135.08.2.048.138.069.207.041.14.059.211.035.142.048.213.028.143.039.215.02.144.028.217.013.145.017.218.006.145.006.218,0,.146,0,.218-.009.145-.015.218-.016.145-.026.217-.022.144-.037.215-.029.143-.047.214-.036.141-.058.211-.043.139-.067.208-.051.137-.078.2-.056.134-.087.2-.064.131-.1.2-.069.128-.106.191-.076.125-.117.185-.081.121-.125.179-.088.116-.134.173-.095.112-.143.166-.1.107-.151.159-.1.1-.158.151-.108.1-.164.144-.115.091-.173.135-.117.086-.178.127-.122.08-.184.117-.125.074-.19.108-.129.068-.195.1-.132.061-.2.089-.136.055-.2.079-.137.048-.208.069-.139.041-.21.059-.142.034-.214.048-.142.027-.214.038-.144.02-.218.027-.144.013-.218.017-.144.006-.218.006-.146,0-.219,0-.144-.008-.218-.015-.144-.016-.215-.026-.144-.023-.215-.036-.143-.03-.214-.047-.141-.037-.21-.058-.139-.043-.208-.068-.136-.05-.2-.078-.133-.057-.2-.088-.131-.063-.2-.1-.128-.07-.191-.107-.123-.076-.184-.116-.12-.082-.179-.125-.117-.088-.173-.133-.113-.093-.167-.142-.106-.1-.158-.15-.1-.1-.151-.158-.1-.109-.143-.164-.092-.113-.136-.172-.086-.117-.126-.178-.08-.122-.117-.184-.075-.125-.109-.189-.067-.129-.1-.195-.061-.132-.089-.2-.055-.135-.08-.2-.048-.137-.069-.207-.041-.14-.059-.21-.035-.141-.048-.213-.028-.143-.039-.215-.02-.144-.028-.216-.013-.145-.017-.218-.006-.145-.006-.218,0-.145,0-.218.008-.145.015-.218.015-.145.026-.217.022-.144.035-.215.029-.143.047-.213.036-.141.058-.211.043-.139.067-.207.051-.136.078-.2.056-.134.087-.2.063-.131.1-.2.07-.128.108-.191.075-.124.115-.185.082-.121.125-.179.088-.116.134-.173.093-.112.141-.166.1-.107.151-.159.1-.1.156-.152.109-.1.165-.144.113-.092.171-.135.118-.086.179-.127.122-.08.184-.118.125-.074.19-.109.128-.068.193-.1.132-.062.2-.09.135-.055.2-.079.137-.048.206-.07S562.617,181.575,562.688,181.556Z" transform="translate(-281.756 -83.316)" fill="#4eacf1"/>
      <path id="Path_1001149" data-name="Path 1001149" d="M186.694,211.075a8.786,8.786,0,0,1-3.253-2.238,11.659,11.659,0,0,1-2.621-8.141c.313-10.761,5.857-24.706,13.685-32.1,4.447-4.2,11.9-8.5,18.184-8.338.332.35.271.762.317,1.232a8.37,8.37,0,0,0,3.407,5.522,7.065,7.065,0,0,0,5.377,1.208,7.711,7.711,0,0,0,3.665-1.774,7.85,7.85,0,0,0,2.387-5.9c8.451,2.837,14.179,8.676,18.132,16.611a52.769,52.769,0,0,1,3.537,8.684l-9.045-.043c.224-2.533.214-8.087-1.067-10.328l-.274-.157c-.308,1.575.484,3.892.638,5.522a36.66,36.66,0,0,1,.088,4.983l-3.286.07a4.91,4.91,0,0,0-1.612,1.371c-1.321,2.034-3.289,10.106-3.931,12.776-.943,3.275-1.721,6.609-2.778,9.848-1.6-.125-9.461-.386-10.3-1.129a5.426,5.426,0,0,0,.119-1.39c-1-1.2-18.114-5.731-21.153-7.14l-.4-.192a4.609,4.609,0,0,1,.191-2.1q.389-1.777.881-3.528t1.087-3.47q.594-1.719,1.289-3.4t1.486-3.319c1.14-2.409,3.1-5.234,3.648-7.82l-.116-.083a19.5,19.5,0,0,0-2.878,5.009,71.4,71.4,0,0,0-6.544,19.178c2.94,1.111,6.01,1.888,9,2.837,4.329,1.373,8.625,2.869,12.946,4.27l-2.252,10.941a48.173,48.173,0,0,1-19.091-3.262A36.468,36.468,0,0,1,186.694,211.075Z" transform="translate(-70.983 -71.535)" fill="#47d0de"/>
      <path id="Path_1001150" data-name="Path 1001150" d="M186.694,211.075a8.786,8.786,0,0,1-3.253-2.238,11.659,11.659,0,0,1-2.621-8.141c.313-10.761,5.857-24.706,13.685-32.1,4.447-4.2,11.9-8.5,18.184-8.338.332.35.271.762.317,1.232a31.22,31.22,0,0,0-21.294,12.916c-4.789,6.467-10.216,19.884-9,28.031.592,3.956,3.707,6.045,6.586,8.39,1.3.9,6.515,3.883,6.949,4.322l-.086.134A36.474,36.474,0,0,1,186.694,211.075Z" transform="translate(-70.983 -71.535)" fill="#fefefe"/>
      <path id="Path_1001151" data-name="Path 1001151" d="M289.414,233.03c.543-2.532,2.819-11.786,4.408-13.325a2.573,2.573,0,0,1,1.361-.745,18.056,18.056,0,0,1,2.117.239c2.607.016,5.233-.036,7.843-.043l31.672-.007c.935.005,2.706-.126,3.366.632a1.971,1.971,0,0,1,.352,1.652Q338.026,229.174,335.8,237c-1.178,4.213-2.495,9.7-4.141,13.691a2.272,2.272,0,0,1-.906,1.134c-.043.03-.085.062-.13.09-.959.594-40.086.28-45.127.247-.791-.59-.706-.816-.94-1.746,1.444-4.176,2.367-8.687,3.526-12.958A24.248,24.248,0,0,1,289.414,233.03Z" transform="translate(-128.751 -104.214)" fill="#2b60b5"/>
      <path id="Path_1001152" data-name="Path 1001152" d="M343.464,247.013a4.985,4.985,0,0,1,3.2.523,4.246,4.246,0,0,1,1.954,2.718,5.45,5.45,0,0,1-4.384,6.506,5.707,5.707,0,0,1-2.65-.522,4.612,4.612,0,0,1-2.4-2.673c-.026-.073-.05-.146-.071-.22s-.042-.148-.06-.223-.035-.151-.049-.226-.027-.152-.038-.228-.019-.153-.026-.23-.012-.154-.015-.231,0-.154,0-.231,0-.154.008-.231.012-.154.02-.23.019-.153.031-.229.027-.152.043-.227.035-.151.055-.225.042-.148.066-.222.049-.146.076-.218.056-.144.087-.214.063-.14.1-.21A6.137,6.137,0,0,1,343.464,247.013Z" transform="translate(-159.018 -119.82)" fill="#fefefe"/>
      <path id="Path_1001153" data-name="Path 1001153" d="M316.546,286.506a8.561,8.561,0,0,1,4.317,1.753,8.758,8.758,0,0,1,3.007,5.759,11.685,11.685,0,0,1-2.91,8.521c-2.075,2.476-5.125,4.058-7.914,5.59-5.174,2.842-10.622,5.28-15.981,7.75q-11.086,5.195-22.27,10.173c-2.048.933-11.036,5.322-12.255,5.425-2.449-4.936-5.281-9.713-7.6-14.695,9.382-5.217,18.941-10.136,28.375-15.263q5.991-3.287,12.032-6.479a54.744,54.744,0,0,1,5.382-2.74c2.909-1.13,10.643.741,13.512-.765C315.545,290.847,316.119,287.83,316.546,286.506Z" transform="translate(-112.255 -141.832)" fill="#2b60b5"/>
      <path id="Path_1001154" data-name="Path 1001154" d="M191.773,300.931c.12-1.17.112-4.136.891-5,.192-.212.62-.137.905-.14,3.208,1.283,12.676.76,16.457.682a3.791,3.791,0,0,0,1.649.735c2.935.446,6.24.134,9.211.112l13.692,0c3.173.063,6.368-.06,9.542-.075l20.065-.044c-5.235,3.113-10.774,5.823-16.139,8.712-8.506,4.579-16.96,9.266-25.567,13.648-1.441.733-3.06,2.395-4.423,2.846a25.362,25.362,0,0,1-12.949.446,15.287,15.287,0,0,1-9.522-7.063,21.339,21.339,0,0,1-2.41-7.266,17.1,17.1,0,0,0-.546-2.853c-.083-1.647.127-3.369.211-5.019-.024.034-.05.067-.073.1a2.763,2.763,0,0,0-.418,1.46.656.656,0,0,1-.179-.353A7.683,7.683,0,0,0,191.773,300.931Z" transform="translate(-77.085 -146.998)" fill="#2b60b5"/>
      <path id="Path_1001155" data-name="Path 1001155" d="M191.773,300.931c.12-1.17.112-4.136.891-5,.192-.212.62-.137.905-.14a48.976,48.976,0,0,1-.729,4.864c-.024.034-.05.067-.073.1a2.763,2.763,0,0,0-.418,1.46.656.656,0,0,1-.18-.353A7.633,7.633,0,0,0,191.773,300.931Z" transform="translate(-77.085 -146.998)" fill="#fefefe"/>
      <path id="Path_1001156" data-name="Path 1001156" d="M534.854,110.744c2.3-.5,5.3-.117,7.654-.072q4.443.066,8.888.034l26.555-.012c5.571-.017,11.211-.19,16.773.06a5.869,5.869,0,0,1,2.9.647,1.8,1.8,0,0,1,.581.669c.99.934.959,2.22.989,3.5.024,1.072.214,3.289-.331,4.159l-40.556-.019c-7.166,0-14.406-.2-21.566.029l-.651-.075c-1.312.1-2.689.027-4.009.033,1.091-1.776-.167-4.722.5-6.731A3.724,3.724,0,0,1,534.854,110.744Z" transform="translate(-266.575 -43.822)" fill="#2b60b5"/>
      <path id="Path_1001157" data-name="Path 1001157" d="M534.854,111.063l3.555.059-.056.12c-.431.857-1.44,1.316-1.823,2.372-.686,1.9.545,4.711-.441,6.372-1.312.1-2.689.027-4.009.033,1.091-1.776-.167-4.722.5-6.731A3.724,3.724,0,0,1,534.854,111.063Z" transform="translate(-266.575 -44.142)" fill="#4eacf1"/>
      <path id="Path_1001158" data-name="Path 1001158" d="M667.45,117.182q.058-.013.117-.021t.117-.013c.039,0,.078-.005.117-.006s.079,0,.119,0,.078.005.117.01.079.011.117.018.077.016.115.025.076.02.113.033.074.026.112.04.072.031.108.047.07.035.1.055.069.039.1.061.064.044.1.068.061.048.091.074.059.052.087.08.056.056.082.085.051.059.076.09.047.063.069.1.044.066.065.1.039.069.056.1.034.071.05.107.029.073.043.11.024.075.035.113.019.076.026.115a1.835,1.835,0,0,1,.033.234c0,.039,0,.079,0,.118s0,.079,0,.118-.006.078-.011.117-.012.078-.02.117-.016.077-.026.115-.021.076-.034.113-.026.074-.041.111-.031.072-.048.108-.036.07-.056.1-.041.067-.063.1-.045.065-.069.1-.048.062-.074.091-.053.059-.082.086-.056.055-.086.081-.06.051-.091.075-.064.047-.1.069-.067.043-.1.062-.069.038-.1.055-.072.034-.108.048-.074.029-.112.041-.075.024-.113.034-.077.019-.115.026l-.086.015-.087.01-.087.006-.087,0-.087,0-.087-.007-.087-.011-.086-.015c-.028-.006-.057-.012-.086-.019l-.084-.023-.084-.027-.082-.031-.08-.035-.078-.039-.076-.043-.073-.047c-.025-.016-.049-.033-.073-.051s-.047-.035-.069-.054l-.067-.057-.063-.06-.059-.063c-.02-.022-.039-.043-.058-.066s-.036-.046-.054-.069-.034-.047-.05-.071l-.048-.074c-.015-.025-.029-.051-.043-.076s-.027-.051-.039-.078-.024-.053-.036-.08-.023-.054-.034-.082-.019-.055-.028-.083-.016-.056-.022-.084-.014-.057-.02-.085-.011-.057-.015-.086-.009-.058-.011-.086-.006-.058-.008-.087,0-.058,0-.087,0-.058,0-.087,0-.058.006-.087.006-.058.011-.087.008-.058.013-.086l.019-.086c.008-.028.015-.056.022-.084s.018-.056.028-.083.019-.055.03-.082.023-.054.035-.08l.037-.078c.014-.026.028-.051.043-.077s.03-.05.047-.074l.048-.072c.017-.023.035-.047.054-.07l.056-.067.059-.064.063-.061c.021-.02.043-.039.065-.058s.045-.037.069-.055.046-.035.07-.051l.073-.048c.025-.016.05-.03.076-.044s.05-.027.076-.04l.08-.037.082-.033.082-.029.084-.025Z" transform="translate(-341.163 -47.527)" fill="#fefefe"/>
      <path id="Path_1001159" data-name="Path 1001159" d="M667.957,118.42a2.1,2.1,0,0,1,1.427.261,1.06,1.06,0,0,1,.323.946,2.256,2.256,0,0,1-1.158.955,1.99,1.99,0,0,0-.7-.026c-.045.005-.089.013-.132.02-.19-.225-.425-.414-.448-.723A2.284,2.284,0,0,1,667.957,118.42Z" transform="translate(-341.852 -48.223)" fill="#fefefe"/>
      <path id="Path_1001160" data-name="Path 1001160" d="M651.075,117.458c.036-.014.073-.026.109-.038s.073-.022.109-.031.075-.016.113-.023.076-.012.113-.016.077-.007.115-.008.077,0,.115,0,.077,0,.115.007.077.009.115.015.074.014.112.022.075.019.112.03.074.023.109.037.071.028.106.044.07.033.1.051.066.037.1.058.066.042.1.064.061.046.091.07.059.05.087.076.054.054.08.082.051.057.076.087.048.06.07.092.043.063.063.1.039.066.058.1.034.068.05.1.029.071.043.107.026.073.037.109.019.074.028.112.016.075.022.113a1.1,1.1,0,0,1,.013.114c0,.038.006.077.008.115s0,.077,0,.115,0,.077-.008.115-.011.076-.017.114a1.1,1.1,0,0,1-.024.113c-.009.037-.019.074-.031.111s-.023.073-.037.109-.03.071-.047.106-.033.069-.052.1-.039.066-.059.1-.042.064-.065.095-.046.061-.07.09-.051.058-.078.086-.055.054-.084.08-.058.051-.087.074-.061.047-.093.068-.063.043-.1.062-.067.038-.1.055-.069.034-.1.049-.072.029-.108.042l-.08.027-.084.022-.082.019-.084.014-.086.01-.084.006-.086,0-.086,0-.084-.006-.084-.01-.086-.015-.082-.019-.082-.023-.082-.027-.078-.031-.078-.034c-.026-.012-.051-.025-.076-.038l-.074-.042-.073-.045c-.024-.016-.047-.032-.069-.048l-.067-.052-.065-.055c-.021-.019-.042-.039-.061-.058l-.059-.061-.056-.064a.826.826,0,0,1-.052-.067c-.017-.023-.034-.046-.05-.069l-.047-.071-.041-.074c-.014-.025-.027-.05-.039-.076s-.024-.051-.036-.077-.022-.052-.031-.079-.019-.053-.028-.08-.016-.054-.022-.082-.014-.055-.02-.083-.011-.055-.015-.083-.009-.056-.011-.084-.006-.056-.008-.085,0-.057,0-.085,0-.056,0-.085,0-.057,0-.085.006-.056.009-.084.009-.056.015-.084.011-.055.017-.083.013-.055.02-.082l.026-.081c.009-.027.019-.053.03-.08s.021-.052.034-.078.023-.051.035-.077l.041-.074.045-.073c.015-.024.031-.047.048-.07s.033-.046.05-.068.035-.044.054-.065.038-.042.058-.062l.061-.06c.02-.02.041-.039.063-.057s.043-.036.065-.054.045-.034.069-.051l.07-.047c.023-.015.048-.03.073-.043l.074-.04.078-.036Z" transform="translate(-332.209 -47.638)" fill="#fefefe"/>
      <path id="Path_1001161" data-name="Path 1001161" d="M712.885,341.78l24.078-.014c.623,1.151.414,10.229.282,11.98a15.259,15.259,0,0,1-.2,1.625,15.56,15.56,0,0,1-.37,1.594,10.615,10.615,0,0,1-4.87,6.435,9.384,9.384,0,0,1-1.014.463c-1.455,1.172-4.845,1.01-6.621.951-3.635-.121-7.446-1.729-9.113-5.177-.455-.943-.73-2.356-1.461-3.1-.024-.025-.052-.048-.076-.072.257-.981-.247-2.827-.286-3.91-.115-3.243.086-6.505-.056-9.743a1.95,1.95,0,0,0-.253-.959C712.917,341.828,712.9,341.8,712.885,341.78Z" transform="translate(-367.25 -172.602)" fill="#fefefe"/>
      <path id="Path_1001162" data-name="Path 1001162" d="M253.01,77.628c5.56.587,10.071,2.092,13.692,6.6,1.139,1.418,3.683,5.789,3.5,7.55a1.4,1.4,0,0,1-.073.263c-4.93,3.04-15.8,2.383-21.323,1.068l-.965-.234c-.012.9-.006,1.8-.094,2.693-1.1-.973-2.182-1.867-3.75-1.8a3.2,3.2,0,0,0-2.24,1.133q-.078.087-.15.178t-.141.185q-.068.094-.132.192t-.122.2q-.059.1-.112.2t-.1.21q-.048.106-.09.215t-.079.219q-.037.11-.068.222t-.057.226c-.017.076-.032.152-.045.228s-.024.153-.034.23-.017.154-.022.232-.009.155-.01.233,0,.155,0,.233.007.155.013.233a4.347,4.347,0,0,0,1.486,2.959,3.63,3.63,0,0,0,2.661.759c.557-.083.921-.408,1.418-.1l.1.358c.1,1.505.721,4.087.291,5.5a1.425,1.425,0,0,1-.206.047c-1.147.2-3.638-.749-4.586-1.441-2.891-2.109-4.831-6.275-5.32-9.733A16.648,16.648,0,0,1,239.8,84.363C243.088,80.016,247.79,78.359,253.01,77.628Z" transform="translate(-101.877 -25.525)" fill="#113887"/>
      <path id="Path_1001163" data-name="Path 1001163" d="M400.317,379.325l43.612-.015,13.911-.039a69.985,69.985,0,0,1,7.088.042,2.8,2.8,0,0,1,1.851.858,3.514,3.514,0,0,1,1.042,2.478,2.864,2.864,0,0,1-.933,2,4.067,4.067,0,0,1-2.379.976,74.087,74.087,0,0,1-7.952-.062q-7.437.059-14.874.039c-3.066,0-6.171-.1-9.232.042a38.921,38.921,0,0,0-6.5-.06l-17.977,0a54.211,54.211,0,0,1-6.857-.006,3.532,3.532,0,0,1-2.674-1.658,3.1,3.1,0,0,1-.136-2.561A4.741,4.741,0,0,1,400.317,379.325Z" transform="translate(-191.963 -193.444)" fill="#47d0de"/>
      <path id="Path_1001164" data-name="Path 1001164" d="M552.8,379.439c2.825-.366,59.88-.11,59.888-.107a1.46,1.46,0,0,1,.3.21,1.664,1.664,0,0,1,.02,1.12,6.443,6.443,0,0,1-2.726,3.981l-.156.261a4.414,4.414,0,0,1-2.3.662c-5.278.412-10.819.083-16.123.088-12.939.011-25.888-.234-38.826-.051a3.67,3.67,0,0,0,.979-.878q.054-.07.1-.144t.1-.148c.031-.051.061-.1.089-.153s.056-.1.082-.157.051-.107.074-.161.045-.109.065-.165.04-.112.058-.168.035-.113.05-.171.028-.115.041-.173.023-.116.031-.175.018-.117.024-.176.011-.118.013-.177.006-.118.006-.177,0-.118,0-.178-.007-.118-.013-.177-.012-.118-.02-.176A3.871,3.871,0,0,0,552.8,379.439Z" transform="translate(-278.114 -193.469)" fill="#113887"/>
      <path id="Path_1001165" data-name="Path 1001165" d="M682.661,225.449a31.76,31.76,0,0,1,4.945.263c.908.3,2.746.916,3.137,1.881a.538.538,0,0,1,.024.092,4.545,4.545,0,0,1,.3,1.989c.086,4.658-.054,9.339-.067,14l.013,25.148c0,3.105.385,22.614-.14,24.086a1.284,1.284,0,0,1-.112.237c-1.721.148-3.538.023-5.268.016a1.868,1.868,0,0,0,.108-.182c.552-1.088.214-10.079.214-11.925l-.015-35.427c0-3.221.405-14.972-.329-17.253A5.685,5.685,0,0,0,682.661,225.449Z" transform="translate(-350.421 -107.834)" fill="#113887"/>
      <path id="Path_1001166" data-name="Path 1001166" d="M254.291,113.352a44.229,44.229,0,0,0,19.479.211c.052,5.417.434,10.856-3.691,15.024a9.166,9.166,0,0,1-6.714,2.723,14.056,14.056,0,0,1-4.212-.838q-.792-.426-1.55-.909a12.155,12.155,0,0,1-5.187-8.174l-.12-.472c-1.309-.092-2.925,1.195-4.484-.619a3.971,3.971,0,0,1-.75-2.841q.009-.09.021-.179c.009-.06.019-.119.03-.179s.025-.118.039-.177.031-.117.048-.175.036-.115.056-.172.042-.113.065-.169.047-.111.074-.165.053-.108.082-.161.058-.106.09-.157.063-.1.1-.152.069-.1.105-.148.073-.1.112-.142.078-.092.119-.136.082-.088.125-.13.087-.084.132-.124.091-.079.138-.117a3.057,3.057,0,0,1,4.562.59,12.625,12.625,0,0,1,1.275,3.254A47.417,47.417,0,0,0,254.291,113.352Z" transform="translate(-107.86 -45.416)" fill="#fefefe"/>
      <path id="Path_1001167" data-name="Path 1001167" d="M108.114,335.75c2.933,2.235,8.662,10.225,10.953,13.466a17.084,17.084,0,0,1-3.776,1.493c-2.295.59-5.467.964-7.766.234a10.855,10.855,0,0,1-2.082-1.1A110.434,110.434,0,0,1,93.1,341.074q.3,0,.594,0C98.933,340.974,104.373,339.635,108.114,335.75Z" transform="translate(-22.143 -169.252)" fill="#4eacf1"/>
      <path id="Path_1001168" data-name="Path 1001168" d="M71.93,319.4a17.281,17.281,0,0,0,12.444-5.519c.461-.136.644.04,1.057.232,3.467,3.048,7.093,5.795,10.4,9.041-4.44,3.945-9.409,4.969-15.2,5.008C77.152,325.8,74.8,322.376,71.93,319.4Z" transform="translate(-10.354 -157.05)" fill="#4eacf1"/>
      <path id="Path_1001169" data-name="Path 1001169" d="M218.6,362.428a24.758,24.758,0,0,1,3.576-.8c-1.1.5-2.213.766-3.338,1.171.15,1.506.516,4.906,1.111,6.186.647-1.47-1.118-5.592.285-6.232a1.453,1.453,0,0,1,1.07.862c.576,1.174.2,3.6,1.189,4.421a2.374,2.374,0,0,0-.014-1.71c-.274-1.27-.561-2.544-.9-3.8a4.576,4.576,0,0,1,2.156-.377,1.545,1.545,0,0,1,.158.174c1.154,1.486.681,5.672,1.334,7.637.448,1.348,1.719,2.548,2.479,3.76a17.229,17.229,0,0,1,.88,1.9l.094.206a64.838,64.838,0,0,0-7.1,0c-2.858-.412-5.449-.109-8.061-1.674-2.069-1.24-4.317-3.458-4.885-5.877a2.372,2.372,0,0,1,.281-1.913C210.16,364.527,216.421,362.807,218.6,362.428Z" transform="translate(-86.432 -183.663)" fill="#75c5f8"/>
      <path id="Path_1001170" data-name="Path 1001170" d="M129.543,283.322a17.158,17.158,0,0,0,2.964-1.015q2.454,5.813,4.349,11.833a20.671,20.671,0,0,1-9.1,1.063,39.528,39.528,0,0,0-4.581-.744c-.907-.986-1.931-1.857-2.783-2.9-1.946-2.375-2.8-5.814-3.833-8.653A36.856,36.856,0,0,0,129.543,283.322Z" transform="translate(-35.204 -139.494)" fill="#4eacf1"/>
      <path id="Path_1001171" data-name="Path 1001171" d="M109.785,257.15c4.483.573,9.374,1.663,13.731.07l1.3,2.558c1.271,2.617,2.575,5.222,3.668,7.92a22.789,22.789,0,0,1-2.828.95c-4.3.838-8.815.218-13.092-.47A85.969,85.969,0,0,1,109.785,257.15Z" transform="translate(-31.432 -125.486)" fill="#4eacf1"/>
      <path id="Path_1001172" data-name="Path 1001172" d="M83.927,341.957c1.49.8,4.805,4.076,6.4,5.323a71.013,71.013,0,0,0,23.584,12.714c-.794.066-1.583.092-2.38.1-8.015.074-16.245,1.187-22.469-4.964A18.411,18.411,0,0,1,83.927,341.957Z" transform="translate(-17.034 -172.708)" fill="#2b60b5"/>
      <path id="Path_1001173" data-name="Path 1001173" d="M131.34,316.409A60.221,60.221,0,0,1,144,339.438a18.424,18.424,0,0,1,1.182,5.658,1.608,1.608,0,0,1-.216.732.92.92,0,0,1-1,.07c-.494-.171-1.122-1.629-1.385-2.1a95.139,95.139,0,0,0-14.553-19.373,23.478,23.478,0,0,0,2.8-8.069Z" transform="translate(-41.591 -158.453)" fill="#4eacf1"/>
      <path id="Path_1001174" data-name="Path 1001174" d="M704.847,184.707a1.328,1.328,0,0,1,.269.018c1.771.238,5.919,2.211,7.034,3.637a1.624,1.624,0,0,1,.236.365c.461,1.084,2.854,16.216,2.55,17.027l-1.212-.79c-.009-.027-.017-.054-.028-.079-.888-1.821-9.16-6.481-11.029-7.1a6.4,6.4,0,0,0,.249-2.435A36.592,36.592,0,0,1,704.847,184.707Z" transform="translate(-361.561 -85.148)" fill="#4eacf1"/>
      <path id="Path_1001175" data-name="Path 1001175" d="M101.9,289.477a52.554,52.554,0,0,1,14.547,11.966l-.507-.054-.161-.274-.173.344.014-.5a13.576,13.576,0,0,0-.839,2.768,21.6,21.6,0,0,1-2.1,5.34,112.062,112.062,0,0,0-10.705-9.09c-.074-.062-.148-.127-.22-.192a1.4,1.4,0,0,1-.463-.625c-.115-.645.761-3.152.848-4.05A36.645,36.645,0,0,0,101.9,289.477Z" transform="translate(-26.697 -143.486)" fill="#4eacf1"/>
      <path id="Path_1001176" data-name="Path 1001176" d="M702.464,280.014a26.028,26.028,0,0,1,2.882,1.412,17.787,17.787,0,0,0,9.853,1.715,13.458,13.458,0,0,0,1.782-.318,3.964,3.964,0,0,1,.258,2.8,1.329,1.329,0,0,1,.277.372c.535,1.238,1.528,12.528,1.139,13.768a7.187,7.187,0,0,0-1.611-2.951,23.284,23.284,0,0,0-14.621-9.044C703.031,286.423,702.992,281.465,702.464,280.014Z" transform="translate(-361.426 -138.217)" fill="#ddeaf8"/>
      <path id="Path_1001177" data-name="Path 1001177" d="M731.251,286.671a13.458,13.458,0,0,0,1.782-.318,3.964,3.964,0,0,1,.258,2.8l.078.7a2.289,2.289,0,0,0-.18-1.2l-.152.789c-.321-.3-.288-1.1-.42-1.544C732.416,287.21,731.838,286.985,731.251,286.671Z" transform="translate(-377.477 -141.747)" fill="#fefefe"/>
      <path id="Path_1001178" data-name="Path 1001178" d="M707.61,329.951c2.271-.269,27.949-.3,28.755.09a1.835,1.835,0,0,1,.846.993,3.282,3.282,0,0,1-.169,2.5c-.282.55-.663.633-1.2.8a1.888,1.888,0,0,1-.531.135c-4.4.3-9.035.016-13.452.019-4.337,0-8.97.331-13.281-.094a1.8,1.8,0,0,1-1.385-.5,3.058,3.058,0,0,1-.45-2.348A2.005,2.005,0,0,1,707.61,329.951Z" transform="translate(-363.804 -165.91)" fill="#fefefe"/>
      <path id="Path_1001179" data-name="Path 1001179" d="M734.37,188.061l.405.048a2.473,2.473,0,0,1,.424.443c1.5,2.088,4.57,8.395,4.2,10.932-.132.629-6.889,8.716-7.766,9.365a3.877,3.877,0,0,1-1.656,1.947,2.526,2.526,0,0,0,.134-.464c.2-1.15-1.154-11.663-1.674-12.433A87.162,87.162,0,0,0,734.37,188.061Z" transform="translate(-375.911 -87.016)" fill="#4eacf1"/>
      <path id="Path_1001180" data-name="Path 1001180" d="M161.177,260.229q.765,1.615,1.427,3.276t1.219,3.359q.556,1.7,1.006,3.429t.788,3.485a35.8,35.8,0,0,1-5.886,6.747,10.29,10.29,0,0,1-1.323.865c-.839-1.375-1.566-4.506-2.171-6.156a42.676,42.676,0,0,1-2.06-5.3.785.785,0,0,1,.16-.691C157.226,267.089,159.519,263.378,161.177,260.229Z" transform="translate(-56.138 -127.201)" fill="#4eacf1"/>
      <path id="Path_1001181" data-name="Path 1001181" d="M123.167,385.081q.226-.135.459-.257a4.8,4.8,0,0,1,1.923-.514c2.8-.219,25.926-.241,27.486.244a5.294,5.294,0,0,1,2.163,2.894,1.131,1.131,0,0,1-.193.824l-.817-.038.32-.135a1.85,1.85,0,0,1-.33.23c-.929.269-5.875.022-7.234.023l-25.882,0A9.457,9.457,0,0,1,123.167,385.081Z" transform="translate(-37.711 -196.209)" fill="#fefefe"/>
      <path id="Path_1001182" data-name="Path 1001182" d="M271.114,378.617c1.286,0,13.669-6.022,16.156-7.173,1.221-.565,3.12-1.737,4.422-1.79l.562.547a39.927,39.927,0,0,0-1.051,10.156q-9.937.078-19.874.053l-.418-1.829Z" transform="translate(-121.15 -188.131)" fill="#ddeaf8"/>
      <path id="Path_1001183" data-name="Path 1001183" d="M712.224,162.9a4.812,4.812,0,0,1,2.566,1.437c1.572,1.277,7.5,7.012,7.694,8.85a1.728,1.728,0,0,1-.022.289,98.144,98.144,0,0,1-5.292,8.843,2.351,2.351,0,0,1-.612.543,1.74,1.74,0,0,0,.164-.516,9.125,9.125,0,0,0-.975-4.411,1.74,1.74,0,0,0,.136-.7c-.031-.646-1.334-7.215-1.528-7.56a2.35,2.35,0,0,0-.357-.331c-.777.746,1.057,4.491.648,5.857-.009.029-.02.058-.031.087-1.364-1.578-5.092-2.948-7.095-3.368.554-.437,2.274-4.645,2.785-5.576C710.871,165.311,711.973,164.035,712.224,162.9Z" transform="translate(-364.263 -73.007)" fill="#4eacf1"/>
      <path id="Path_1001184" data-name="Path 1001184" d="M59.16,282.453c-.539-.26-.863-.308-1.144-.848a2.54,2.54,0,0,1,1.73-1.026c4.705-1.248,12.438.592,16.545,3a1.648,1.648,0,0,1,1,1.242c.03.123.048.248.067.373-.1.822.02,1.748,0,2.586a29.345,29.345,0,0,1-.779,5.96A182.411,182.411,0,0,0,59.16,282.453Z" transform="translate(-2.606 -138.307)" fill="#4eacf1"/>
      <path id="Path_1001185" data-name="Path 1001185" d="M59.16,282.453c-.539-.26-.863-.308-1.144-.848a2.54,2.54,0,0,1,1.73-1.026c4.705-1.248,12.438.592,16.545,3a1.648,1.648,0,0,1,1,1.242c.03.123.048.248.067.373a35.573,35.573,0,0,0-10.388-3.745C64.2,280.937,61.584,280.776,59.16,282.453Z" transform="translate(-2.606 -138.307)" fill="#fefefe"/>
      <path id="Path_1001186" data-name="Path 1001186" d="M58.108,301.188a20.043,20.043,0,0,0,9.77-1.921c2.863,1.878,5.641,3.849,8.465,5.779-2.891,3.49-6.913,5.11-11.363,5.53q-.686.064-1.373.11c-.586-1.64-2.16-3.433-3.1-4.927A36.948,36.948,0,0,1,58.108,301.188Z" transform="translate(-2.657 -148.938)" fill="#4eacf1"/>
      <path id="Path_1001187" data-name="Path 1001187" d="M336.094,366.517c.481.367.95.752,1.423,1.129a13.969,13.969,0,0,0-.632,1.361,2.561,2.561,0,0,0-.016,2.131l.392.105a3.587,3.587,0,0,0,1.038-.45,2.671,2.671,0,0,1,1.556.394,1.848,1.848,0,0,0-.256,1.193,1.392,1.392,0,0,0,.853-.724,7.508,7.508,0,0,0,.432-1.033l2.093.465a9.766,9.766,0,0,1,6.212,4.715q-9.27.078-18.541.052a120.525,120.525,0,0,1-12.42-.273,7.057,7.057,0,0,1,.267-2.9c.4-.208.469-.122.889-.015a13.113,13.113,0,0,0,8.159.846c2.667-.749,4.09-2.68,5.382-4.97l2.39-1.344c-.267.71-.916,2.081-.677,2.795.041-.019.083-.036.123-.058C335.52,369.533,335.9,367.31,336.094,366.517Z" transform="translate(-147.486 -186.384)" fill="#75c5f8"/>
      <path id="Path_1001188" data-name="Path 1001188" d="M257.084,140.838a14.913,14.913,0,0,0,5.926,5.39l2.365.886q-.037,1.137-.093,2.273a7.806,7.806,0,0,1,2.834.484,1.734,1.734,0,0,1,.1,1.533,8.218,8.218,0,0,1-2.06,3.621,7.514,7.514,0,0,1-3.115,1.69q-.152.038-.305.068t-.308.053q-.155.023-.311.037c-.1.01-.208.017-.312.022s-.208.007-.313.006-.209,0-.313-.009-.208-.014-.312-.025-.207-.024-.31-.04-.206-.035-.308-.056-.2-.045-.3-.071-.2-.055-.3-.086-.2-.065-.3-.1-.2-.075-.291-.116-.191-.084-.285-.13-.187-.094-.278-.144-.181-.1-.27-.158a8.672,8.672,0,0,1-3.778-4.942,1.674,1.674,0,0,1,.222-1.431,7.122,7.122,0,0,1,2.555-.285Q257.24,145.072,257.084,140.838Z" transform="translate(-111.946 -60.721)" fill="#fefefe"/>
      <path id="Path_1001189" data-name="Path 1001189" d="M136.365,311.515c3.186.351,6.544.4,9.536-.929.687,2.377,1.318,4.753,1.789,7.183.355,1.835.573,3.78,1.055,5.581a14.414,14.414,0,0,1-6.645.285,77.637,77.637,0,0,0-9.632-12.834C133.764,311.1,135.047,311.332,136.365,311.515Z" transform="translate(-44.063 -155.24)" fill="#4eacf1"/>
      <path id="Path_1001190" data-name="Path 1001190" d="M702.029,311.88c1.726.694,8.929,5.773,9.706,7.2a1.391,1.391,0,0,1,.112.32c-1.806-.036-6.424-.619-7.783.508-.7.583-.4,2.208-.8,3,.74,1.053.983,2.052,2.425,2.3q.322.053.647.086c.595.9.093,9.7.156,11.591.039,1.161.663,2.38.628,3.5l.033.5c-1-.332-3.739.669-4.882.965.42-1.2.321-18.368-.1-19.41.5-.99.418-9,.095-10.057A2.017,2.017,0,0,0,702.029,311.88Z" transform="translate(-361.206 -155.961)" fill="#ddeaf8"/>
      <path id="Path_1001191" data-name="Path 1001191" d="M141.938,246.2a22.5,22.5,0,0,0,6.7-8.219,64.945,64.945,0,0,1,5.34,8.818c-1.758,4.224-4.184,6.2-6.755,9.657a.929.929,0,0,1-.5-.373c-1.131-1.753-2.557-5.591-3.7-7.734Z" transform="translate(-49.336 -114.811)" fill="#4eacf1"/>
      <path id="Path_1001192" data-name="Path 1001192" d="M107.65,233.723c1.892.75,6.757.7,8.758.438,1.067,1.458,5.431,8.146,5.378,9.526-4.281,1.285-8.939.3-13.274-.266q-.447-2.4-.663-4.828T107.65,233.723Z" transform="translate(-30.243 -112.441)" fill="#4eacf1"/>
      <path id="Path_1001193" data-name="Path 1001193" d="M171.341,293.339a54.418,54.418,0,0,1,1.261,13.713c-1.449,2.26-3.207,5.023-5.621,6.384-.678-1.7-.806-4.108-1.163-5.93-.457-2.331-1.085-4.6-1.759-6.877l1.4-1.01A43.932,43.932,0,0,0,171.341,293.339Z" transform="translate(-61.654 -145.637)" fill="#4eacf1"/>
      <path id="Path_1001194" data-name="Path 1001194" d="M133.715,220.336c2.744,1.461,5.483,4.929,7.313,7.391a32.27,32.27,0,0,1-5.474,7.2l-1.111.934q-2.548-4.782-5.4-9.388A75.1,75.1,0,0,0,133.715,220.336Z" transform="translate(-42.156 -104.987)" fill="#4eacf1"/>
      <path id="Path_1001195" data-name="Path 1001195" d="M703.115,216.539a1.956,1.956,0,0,1,1.251.248c2.247,1.046,9.992,5.9,10.747,7.93a2.117,2.117,0,0,1,.31.658c.3,1.27.985,5.68.4,6.712a1.087,1.087,0,0,1-.695.025c-5.1-1.374-9.161-6.138-10.722-11.042-.429-1.353-.515-3.246-1.226-4.438Z" transform="translate(-361.81 -102.858)" fill="#4eacf1"/>
      <path id="Path_1001196" data-name="Path 1001196" d="M771.631,244.65c2.206-.05,4.415.036,6.621.086a1.829,1.829,0,0,1,.091.826c-.34,2.189-2.371,6.751-4.129,8.117l-4.733-.013q-3.445.023-6.891-.027C764.969,252.1,768.935,245.067,771.631,244.65Z" transform="translate(-394.927 -118.518)" fill="#fefefe"/>
      <path id="Path_1001197" data-name="Path 1001197" d="M233.935,291.485a20.493,20.493,0,0,1,5.156-.181l10.817.066a41.1,41.1,0,0,0,5.963-.1,2.412,2.412,0,0,0,.379-1.314c.234.93.149,1.156.94,1.746.144.285.185.546.5.652,1.151.386,6.1.078,7.587.084,2.3.009,37.267-.119,37.3-.1a1.763,1.763,0,0,1-1.336.819c-3.248.481-8.013.037-11.45.065l-19.783.043c-3.3.007-6.757-.214-10.034.1a32.418,32.418,0,0,0-5.187-.012l-12.556.046a52.89,52.89,0,0,1-6.878-.062,2.086,2.086,0,0,1-1.566-.692A1.3,1.3,0,0,1,233.935,291.485Z" transform="translate(-100.439 -143.751)" fill="#113887"/>
      <path id="Path_1001198" data-name="Path 1001198" d="M240.921,66.98a4.84,4.84,0,0,1,2.982.418,7.766,7.766,0,0,1,3.794,4.708,16.422,16.422,0,0,0-7.281,4.213,18.661,18.661,0,0,0-1.578,1.834c-.429-.258-.862-.518-1.269-.807a5.384,5.384,0,0,1-1.95-3.407c-.016-.1-.029-.2-.039-.3s-.019-.2-.024-.3-.008-.2-.009-.3,0-.2.006-.3.012-.2.021-.3.022-.2.037-.3.032-.2.052-.3.042-.2.067-.294.052-.195.082-.291.062-.191.1-.286.071-.188.11-.281.081-.184.125-.275.09-.18.138-.268.1-.175.152-.261.108-.17.165-.253.116-.164.177-.244A6.383,6.383,0,0,1,240.921,66.98Z" transform="translate(-101.458 -19.544)" fill="#113887"/>
      <path id="Path_1001199" data-name="Path 1001199" d="M194.7,281.433c.159-.526.249-1.073.421-1.6a1.1,1.1,0,0,1,.684-.785l.724.271c4.092,1.965,9.759,4.329,14.238,4.962l1.107.293.071.219-.418.3c-.023.025-.048.05-.071.076a2.7,2.7,0,0,0-.556,1.218c-1.659.81-14.25-.09-16.351-.511-.364-.073-.43-.029-.649-.346A14.556,14.556,0,0,1,194.7,281.433Z" transform="translate(-78.271 -137.682)" fill="#47d0de"/>
      <path id="Path_1001200" data-name="Path 1001200" d="M194.7,281.433c.159-.526.249-1.073.421-1.6a1.1,1.1,0,0,1,.684-.785l.724.271a15.023,15.023,0,0,0-.574,2.3c-.259,1.022-.554,3.7-1.405,4.257-.364-.073-.43-.029-.649-.346A14.555,14.555,0,0,1,194.7,281.433Z" transform="translate(-78.271 -137.682)" fill="#fefefe"/>
      <path id="Path_1001201" data-name="Path 1001201" d="M169.9,332.986c2.463-1.193,4.095-3.49,5.569-5.71-.172,8.9-1.838,17.472-6.277,25.268l.505-3.539a58.583,58.583,0,0,0,.581-10.519C170.2,336.665,169.845,334.8,169.9,332.986Z" transform="translate(-64.512 -164.534)" fill="#2b60b5"/>
      <path id="Path_1001202" data-name="Path 1001202" d="M756.116,266.215c3.274-.421,8.2-.065,11.627-.047a.821.821,0,0,1-.082.353,13.105,13.105,0,0,1-5.889,4.816.761.761,0,0,1-.208.221c-2.422,1.861-7.2,1.334-9.949.774A46.288,46.288,0,0,0,756.116,266.215Z" transform="translate(-388.816 -130.419)" fill="#fefefe"/>
      <path id="Path_1001203" data-name="Path 1001203" d="M261.827,271.665c3.423.494,6.943.546,10.387.943l-1.053,3.684a9.1,9.1,0,0,0-3.669,1.177,26.451,26.451,0,0,1-4.268,3.125l-3.238.027Q260.941,276.15,261.827,271.665Z" transform="translate(-115.067 -133.568)" fill="#f8f2ef"/>
      <path id="Path_1001204" data-name="Path 1001204" d="M748.074,254.7a8.43,8.43,0,0,0,.022-1.928,14.843,14.843,0,0,1,.955-5.419,14.256,14.256,0,0,1,2.15-3.552c.715-.874,2.21-1.9,2.551-2.929a1.854,1.854,0,0,1,.3.539,5.637,5.637,0,0,1,.1,3.441c.635.668.825,3.931.721,4.935a1.186,1.186,0,0,1-.165.478,1.161,1.161,0,0,1-.128.547c-.355.61-4.893,6.69-5.244,6.984a3.071,3.071,0,0,1-.346.249A6.65,6.65,0,0,0,748.074,254.7Z" transform="translate(-386.844 -116.423)" fill="#fefefe"/>
      <path id="Path_1001205" data-name="Path 1001205" d="M754.16,249.854c.635.668.825,3.931.721,4.935a1.185,1.185,0,0,1-.165.478,1.163,1.163,0,0,1-.128.547c-.355.61-4.893,6.69-5.244,6.984a3.067,3.067,0,0,1-.346.249,6.651,6.651,0,0,0-.924-3.345,2.6,2.6,0,0,1,1.951.685,3.773,3.773,0,0,0,1.8-1.648A12.548,12.548,0,0,0,754.16,249.854Z" transform="translate(-386.844 -121.424)" fill="#f8f2ef"/>
      <path id="Path_1001206" data-name="Path 1001206" d="M251.341,362.73c1.09,2.1,5.994,10.473,6.178,12.031l-.2-.036a28.794,28.794,0,0,0-2.709-2.452,14.551,14.551,0,0,0-3.528-.24,14.88,14.88,0,0,1-2.119.711,1.5,1.5,0,0,1-.919-.514c-1.615-1.718-1.562-5.818-1.538-8.011A18.047,18.047,0,0,0,251.341,362.73Z" transform="translate(-107.556 -184.275)" fill="#fefefe"/>
      <path id="Path_1001207" data-name="Path 1001207" d="M318.148,388.607q10.688.265,21.378.2c2.777,0,7.092-.341,9.668.146a3.15,3.15,0,0,1,.193,1.753q-15.622.185-31.246.19Z" transform="translate(-147.449 -198.684)" fill="#113887"/>
      <path id="Path_1001208" data-name="Path 1001208" d="M767.807,300.841l.753-.012c-.219.657-1.349,1.26-1.919,1.644a63.131,63.131,0,0,0-8.011,6.505,40.057,40.057,0,0,1-4.4,4.091l-3.878.012a.836.836,0,0,1-.42-.187,1.709,1.709,0,0,1,.18-.545,20.8,20.8,0,0,1,3.094-3.782C757.627,304.032,761.847,302.465,767.807,300.841Z" transform="translate(-387.881 -149.808)" fill="#4eacf1"/>
      <path id="Path_1001209" data-name="Path 1001209" d="M741.566,216.574a2.028,2.028,0,0,1,.537,1.405c.363,3.372-1.873,7.524-3.96,10.051-1.137,1.377-3.5,3.793-5.361,3.968.147-.943.031-3.545-.491-4.3,1.922-2.131,3.651-4.484,5.48-6.7C739,219.5,740.4,218.108,741.566,216.574Z" transform="translate(-378.057 -102.893)" fill="#4eacf1"/>
      <path id="Path_1001210" data-name="Path 1001210" d="M767.818,231.1a7.224,7.224,0,0,0,2.067-.945,12.562,12.562,0,0,1,.388,6.056,2.17,2.17,0,0,1-1.221,1.23l-.078.033a1.25,1.25,0,0,1-.041.237,42.057,42.057,0,0,1-5.623,5.8c.481-1.193-.215-7.767-.69-9.025C763.988,233.852,766.273,232,767.818,231.1Z" transform="translate(-394.944 -110.456)" fill="#fefefe"/>
      <path id="Path_1001211" data-name="Path 1001211" d="M774.348,231.1a7.224,7.224,0,0,0,2.067-.945,12.562,12.562,0,0,1,.388,6.056,2.17,2.17,0,0,1-1.221,1.23l-.078.033a6.7,6.7,0,0,1,.257-1,14.707,14.707,0,0,0,.5-5.445l-.42.179A9.3,9.3,0,0,0,774.348,231.1Z" transform="translate(-401.474 -110.456)" fill="#f8f2ef"/>
      <path id="Path_1001212" data-name="Path 1001212" d="M698.814,378.181c1.143-.3,3.882-1.3,4.882-.965,1.213,1.3,1.55,3.268,2.828,4.614,1.057,1.115,2.962,1.568,3.85,2.653-2.635.043-12.7.4-14.563-.043l.242-.5.08-.023a4.663,4.663,0,0,0,2.25-2.348A4.4,4.4,0,0,0,698.814,378.181Z" transform="translate(-357.743 -192.304)" fill="#fefefe"/>
      <path id="Path_1001213" data-name="Path 1001213" d="M702.512,303.363a2.78,2.78,0,0,1,1.078.153c4.858,1.552,10.825,6.014,13.146,10.612l-.167.425-3.54.008a1.3,1.3,0,0,0-.076-.216c-.665-1.205-8.923-7.363-10.537-7.926A5.285,5.285,0,0,0,702.512,303.363Z" transform="translate(-361.421 -151.214)" fill="#4eacf1"/>
      <path id="Path_1001214" data-name="Path 1001214" d="M711.367,255.151a3.16,3.16,0,0,1,1.741,1.006c2.86,2.442,7.06,8.049,7.363,11.9-.223-.522-.792-.759-1.26-1.011a.6.6,0,0,0-.117-.218c-1.646-2.056-7.294-3.618-9.786-4.021C710.113,261.733,711.153,256.652,711.367,255.151Z" transform="translate(-365.259 -124.373)" fill="#fefefe"/>
      <path id="Path_1001215" data-name="Path 1001215" d="M319.731,369.2a22.512,22.512,0,0,0,9.468-1.353,35.787,35.787,0,0,0,3.643,1.79c-1.2,1.91-2.511,3.5-4.815,4.056s-4.747,0-6.97-.612a2.762,2.762,0,0,1-.958-.387C319.383,372.109,319.877,370.143,319.731,369.2Z" transform="translate(-148.317 -187.126)" fill="#fefefe"/>
      <path id="Path_1001216" data-name="Path 1001216" d="M161.1,340.746c1.282,1.724.417,13.229.059,15.776a3.261,3.261,0,0,1-.258,1c-.639-.929-.853-3.7-1.24-4.951q-.907-2.947-2.057-5.807t-2.537-5.615A9.123,9.123,0,0,0,161.1,340.746Z" transform="translate(-56.646 -172.034)" fill="#2b60b5"/>
      <path id="Path_1001217" data-name="Path 1001217" d="M116.234,213.649l-.5-.712c.078-.37.071-.46.417-.674.982-.609,3.146-.265,4.2.024a15.6,15.6,0,0,1,5.18,2.726l.134.066c.034.942-3.624,5.16-4.421,6.1C119.676,218.609,117.937,216.132,116.234,213.649Z" transform="translate(-34.745 -100.304)" fill="#4eacf1"/>
      <path id="Path_1001218" data-name="Path 1001218" d="M116.234,213.649l-.5-.712c.078-.37.071-.46.417-.674.982-.609,3.146-.265,4.2.024a15.6,15.6,0,0,1,5.18,2.726c-1.221.034-3.366-1.257-4.585-1.67A5.915,5.915,0,0,0,116.234,213.649Z" transform="translate(-34.745 -100.304)" fill="#fefefe"/>
      <path id="Path_1001219" data-name="Path 1001219" d="M55.362,290.622a9.66,9.66,0,0,1-.374-4.565,1.457,1.457,0,0,1,.7-1.034c.626-.007.795.191,1.309.53.965,1.189,6.8,4.3,8.445,5.35a21.192,21.192,0,0,1-9.533,1.572Z" transform="translate(-0.843 -141.006)" fill="#4eacf1"/>
      <path id="Path_1001220" data-name="Path 1001220" d="M55.362,290.622a9.66,9.66,0,0,1-.374-4.565,1.457,1.457,0,0,1,.7-1.034c.626-.007.795.191,1.309.53C55.264,287.853,56.145,289.324,55.362,290.622Z" transform="translate(-0.843 -141.006)" fill="#f8f2ef"/>
      <path id="Path_1001221" data-name="Path 1001221" d="M702.549,273.1a3.816,3.816,0,0,1,1.145-.041c3.518.421,10.013,2.206,12.3,5.114l-.091.375c-5.421,1.012-8.658-.94-13.389-3.087A2.9,2.9,0,0,0,702.549,273.1Z" transform="translate(-361.477 -134.329)" fill="#fefefe"/>
      <path id="Path_1001222" data-name="Path 1001222" d="M139.29,367.709l.222-.027c1.152.719,3.48,5.513,4.179,6.881-2.592-.575-5.125-1.193-7.654-2a71.658,71.658,0,0,1-6.794-2.836A20.593,20.593,0,0,0,139.29,367.709Z" transform="translate(-42.267 -187.033)" fill="#4eacf1"/>
      <path id="Path_1001223" data-name="Path 1001223" d="M108.152,222.811a.713.713,0,0,1-.186-.432,12.1,12.1,0,0,1,1.763-6.786,1.152,1.152,0,0,1,.987-.544l.539.576c1.66,2.493,3.429,4.935,4.975,7.5A63.841,63.841,0,0,1,108.152,222.811Z" transform="translate(-30.4 -102.043)" fill="#4eacf1"/>
      <path id="Path_1001224" data-name="Path 1001224" d="M108.152,222.811a.713.713,0,0,1-.186-.432,12.1,12.1,0,0,1,1.763-6.786,1.152,1.152,0,0,1,.987-.544l.539.576a12.978,12.978,0,0,0-2.554,5.282A7.944,7.944,0,0,1,108.152,222.811Z" transform="translate(-30.4 -102.043)" fill="#fefefe"/>
      <path id="Path_1001225" data-name="Path 1001225" d="M702.552,248.022l.091,0a1.71,1.71,0,0,1,.266.013A9.6,9.6,0,0,1,707,250.612a20.078,20.078,0,0,1-1.738,6.33,1.257,1.257,0,0,1,.074.259,2.221,2.221,0,0,1-.45,1.514,13.921,13.921,0,0,0-2.459-.3C702.992,257.139,702.887,249.457,702.552,248.022Z" transform="translate(-361.429 -120.403)" fill="#fefefe"/>
      <path id="Path_1001226" data-name="Path 1001226" d="M762.149,298.611a33.923,33.923,0,0,1,3.64-.117c-1.344.811-4.349,1.162-6.028,1.8a26.944,26.944,0,0,0-10.7,7.33c-.86.954-1.568,2.1-2.486,2.985l-.089.084a1.417,1.417,0,0,1-.584,1.012,1.218,1.218,0,0,1-1.05.123l-.112-.37a7.449,7.449,0,0,1,1.267-2.285A23.78,23.78,0,0,1,762.149,298.611Z" transform="translate(-384.99 -148.507)" fill="#4eacf1"/>
      <path id="Path_1001227" data-name="Path 1001227" d="M203.093,372.7c.413.375.242,1.789.407,2.385.96,3.473,4.079,5.321,7,6.939-.951.045-1.906.032-2.857.037l-3.387-.013a56.081,56.081,0,0,1-4.271-7.355Z" transform="translate(-81.66 -189.829)" fill="#113887"/>
      <path id="Path_1001228" data-name="Path 1001228" d="M717.232,311.026a5.507,5.507,0,0,0-1.208-1.842,25.785,25.785,0,0,0-8.678-7.144c-1.221-.608-3.25-.96-4.2-1.819a1.034,1.034,0,0,1,.067-.8,1.212,1.212,0,0,1,.485-.138c2.433-.178,8.426,3.639,10.241,5.394,1.018.984,4.029,3.833,4.057,5.229a3,3,0,0,1,1.3,1.619c.063.3-.037.4-.173.66a1.323,1.323,0,0,1-1.13-.263A6.056,6.056,0,0,1,717.232,311.026Z" transform="translate(-361.799 -148.941)" fill="#4eacf1"/>
      <path id="Path_1001229" data-name="Path 1001229" d="M191.608,307.057a7.631,7.631,0,0,1,.4.937.654.654,0,0,0,.179.353,2.763,2.763,0,0,1,.418-1.46c.023-.035.048-.068.073-.1-.083,1.65-.294,3.372-.211,5.019.043,5.045,1.3,10.137,5.016,13.769,3.444,3.37,7.653,4.431,12.347,4.564.312.3.636.248,1.038.3a.693.693,0,0,1,.332.148,15.822,15.822,0,0,1-3.617.078,16.9,16.9,0,0,1-11.7-5.344C191.554,320.379,191.19,313.273,191.608,307.057Z" transform="translate(-76.919 -153.123)" fill="#f8f2ef"/>
      <path id="Path_1001230" data-name="Path 1001230" d="M689.532,379.516c.593.091.775.033,1.156.53a3.867,3.867,0,0,1-.885,3.015,7.62,7.62,0,0,1-1.862,2c-1.108.845-4.336.632-5.766.694q.138-.069.271-.145c.089-.05.177-.1.264-.157s.172-.111.257-.17.167-.119.249-.182.16-.127.24-.193.154-.134.229-.2.149-.141.221-.215.142-.148.21-.225.134-.155.2-.234.127-.161.188-.244.119-.167.175-.252.112-.172.164-.26.1-.177.152-.268.094-.182.137-.274.087-.186.126-.281.077-.19.112-.286a3.75,3.75,0,0,0,.152-2.616Q687.526,379.556,689.532,379.516Z" transform="translate(-350.151 -193.622)" fill="#113887"/>
      <path id="Path_1001231" data-name="Path 1001231" d="M787.952,225.38l1.275.006a79.92,79.92,0,0,1-8.041,7.242L781,232.8c-.786-1.491.251-4.091-.74-5.5A46.336,46.336,0,0,1,787.952,225.38Z" transform="translate(-404.768 -107.796)" fill="#fefefe"/>
      <path id="Path_1001232" data-name="Path 1001232" d="M790.99,227.476l.411.109a2.591,2.591,0,0,1,.112.515c.134,1.543-.42,5.3-1.355,6.491-2.106-.086-4.218-.077-6.326-.1l-.2-.1C784.527,232.75,789.427,229.394,790.99,227.476Z" transform="translate(-406.642 -108.963)" fill="#fefefe"/>
      <path id="Path_1001233" data-name="Path 1001233" d="M329.616,358.045q.017.326.015.652a3.32,3.32,0,0,1-.813,2.691c-1.833,1.754-6.541,1.843-8.962,1.793l-.142-.307C320.531,362.006,327.949,358.871,329.616,358.045Z" transform="translate(-148.325 -181.666)" fill="#113887"/>
      <path id="Path_1001234" data-name="Path 1001234" d="M254.757,384.894c.536.356.7,1.535.859,2.139a24.617,24.617,0,0,0,3.362.625l-1.237-2.581a7.872,7.872,0,0,1,2.7,3.272l-.072.288c-1.007.5-5.351.155-6.728.133-.32-1.02-.7-2.028-1.059-3.036Z" transform="translate(-110.942 -196.617)" fill="#4eacf1"/>
      <path id="Path_1001235" data-name="Path 1001235" d="M242.318,356.682a13.144,13.144,0,0,0,1.115,2.065,9.594,9.594,0,0,1-5.036,1.345,3.726,3.726,0,0,0-.947-1.408,4.409,4.409,0,0,0-3.2-.317.69.69,0,0,0-.332-.148c-.4-.052-.725,0-1.038-.3A38.6,38.6,0,0,0,242.318,356.682Z" transform="translate(-99.976 -180.908)" fill="#fefefe"/>
      <path id="Path_1001236" data-name="Path 1001236" d="M276.724,283.961l.264.071c.233.745-.431,2.571-.615,3.414l-4.809.01-.368-.058a.573.573,0,0,1,.112-.224A10.116,10.116,0,0,1,276.724,283.961Z" transform="translate(-121.309 -140.415)" fill="#fefefe"/>
      <path id="Path_1001237" data-name="Path 1001237" d="M363.544,373.137c.264-.772.488-1.852,1.263-2.253a2.722,2.722,0,0,1,.389-.158c.161.065.344.086.416.251a2.081,2.081,0,0,1-.2,1.829q-.152.364-.312.725A2.668,2.668,0,0,0,363.544,373.137Z" transform="translate(-172.73 -188.727)" fill="#4eacf1"/>
      <path id="Path_1001238" data-name="Path 1001238" d="M259.91,385.042l.965.178a3.2,3.2,0,0,1,.776,1.662q-.582-.146-1.161-.306A2.89,2.89,0,0,1,259.91,385.042Z" transform="translate(-115.025 -196.699)" fill="#4eacf1"/>
      <path id="Path_1001239" data-name="Path 1001239" d="M402.111,31.788l4.6.018a1.814,1.814,0,0,1,.24.463,8.432,8.432,0,0,1-.121,4.188,19.938,19.938,0,0,1,7.8,3.114,12.9,12.9,0,0,0,2.668-2.749c.028.011.054.021.08.033a9.981,9.981,0,0,1,3.694,3.531c-.431.927-1.9,1.993-2.611,2.846,1.341,2.159,3.354,5.187,3.28,7.849,1.3.1,2.661.022,3.967.026a.631.631,0,0,1,.041.073c.022.041.041.084.061.125a1.986,1.986,0,0,1,.24.89c.058,1.039.314,3.017-.448,3.809-.7.73-2.981.4-3.949.394a.969.969,0,0,1,.084.414c-.132,1.962-1.747,5.782-3.3,6.967a8.04,8.04,0,0,1,2.917,2.776c-.286.994-2.765,3.135-3.689,3.732-.321-1.055-1.819-2.159-2.707-2.741a13.653,13.653,0,0,1-8.084,3.476,1.449,1.449,0,0,1,.178.485,4.943,4.943,0,0,1-.734,3.163c-.712.431-3.042.2-3.939.1-.595-.6-.5-2.03-.608-2.859a1.021,1.021,0,0,0-.377-.817,9.636,9.636,0,0,0-2-.741,17.178,17.178,0,0,1-5.312-2.737q-1.479,1.453-3.024,2.836c-1.228-1.239-2.4-2.533-3.621-3.783q1.282-1.4,2.579-2.783a25.248,25.248,0,0,1-3.207-7.447q-.86.02-1.72.022a2.272,2.272,0,0,1-1.825-.539c-.625-.724-.237-3.817-.23-4.832,1.344.016,2.7.063,4.037-.037a24.527,24.527,0,0,1,3.207-7.756q-1.526-1.383-2.978-2.843c1.1-1.246,2.363-2.4,3.537-3.581a28.78,28.78,0,0,1,3.115,2.866,22.653,22.653,0,0,1,8.158-3.236Z" transform="translate(-183.514)" fill="#4eacf1"/>
      <path id="Path_1001240" data-name="Path 1001240" d="M420.478,63.752c.124-.017.248-.031.374-.043s.248-.019.374-.024.25-.007.375-.006.25.005.375.012.248.017.374.031.248.03.372.049.246.042.368.067.245.054.366.086.242.066.361.1.237.078.355.121.234.09.349.138.229.1.342.155.222.112.333.172.219.123.325.188.211.133.314.2.206.143.3.219.2.153.293.234.19.163.282.248.181.172.268.261.173.18.257.274.164.189.242.287.156.2.229.3.144.2.214.309.134.211.2.319.123.218.18.328.113.223.165.337.1.228.148.344.091.233.132.351.079.237.113.357.067.241.1.363.055.244.078.367.042.246.059.37.031.248.041.373.019.25.024.374.007.25.006.375-.006.25-.015.375-.018.25-.031.374-.03.248-.05.372-.043.246-.069.369-.053.244-.086.365-.067.241-.1.36-.079.238-.123.355-.09.233-.139.348-.1.229-.156.341-.112.223-.173.333-.124.218-.19.324-.134.211-.2.314-.144.2-.219.3-.154.2-.234.293-.164.189-.249.281-.173.181-.262.268-.181.172-.275.255-.19.163-.288.241-.2.154-.3.227-.205.144-.31.212-.212.133-.32.2-.218.123-.329.18-.224.112-.336.164-.229.1-.346.148-.234.09-.351.13-.238.078-.359.113-.241.066-.363.095-.244.055-.368.077-.246.042-.37.059-.248.03-.372.04-.248.018-.374.022-.248.006-.374,0-.248-.007-.374-.015-.248-.019-.372-.032-.247-.031-.37-.051-.245-.043-.368-.069-.242-.055-.363-.087-.241-.066-.359-.1-.237-.078-.353-.122-.234-.09-.347-.139-.227-.1-.34-.156-.222-.112-.331-.172-.217-.123-.323-.188-.209-.133-.312-.2-.2-.144-.3-.219-.2-.153-.292-.234-.189-.163-.281-.248-.18-.172-.267-.261-.172-.18-.254-.274-.163-.189-.241-.286-.153-.2-.226-.3-.144-.2-.211-.308-.133-.211-.2-.318-.123-.217-.18-.327-.112-.222-.164-.336-.1-.228-.148-.343-.09-.232-.13-.35-.078-.237-.113-.356-.066-.24-.1-.361-.055-.243-.078-.366-.043-.246-.06-.369-.031-.247-.042-.371-.019-.249-.023-.373-.006-.249,0-.374.006-.249.013-.373.018-.249.031-.372.03-.247.05-.37.042-.246.068-.367.054-.243.086-.364.066-.24.1-.359.078-.237.121-.354.089-.233.138-.347.1-.228.155-.34.112-.223.172-.332.122-.217.187-.324.133-.211.2-.314.143-.2.218-.3.152-.2.233-.292.162-.189.247-.281.171-.181.26-.268.18-.172.273-.255.188-.164.286-.242.2-.154.3-.227.2-.144.308-.212.209-.134.316-.2.217-.124.327-.181.222-.113.336-.165.227-.1.342-.148.232-.09.349-.132.237-.079.357-.114.239-.067.36-.1.243-.055.366-.079S420.354,63.77,420.478,63.752Z" transform="translate(-200.776 -17.757)" fill="#fefefe"/>
      <path id="Path_1001241" data-name="Path 1001241" d="M526.344,41.493l.167-.033c.056-.01.112-.02.167-.027s.112-.016.167-.022.113-.012.169-.016.114-.008.171-.011l.169-.005h.169c.057,0,.114,0,.171.006s.112.007.169.012l.169.017.167.023c.057.008.113.018.169.028s.111.021.165.034.111.025.165.039.109.029.164.044.109.032.164.05.106.036.16.055l.16.06.156.066c.052.023.1.047.154.071l.152.076.148.081c.05.028.1.056.147.086l.145.09c.047.031.094.062.14.095s.093.066.137.1.091.069.136.1l.13.108q.065.055.126.113c.042.038.084.077.125.117s.079.08.119.121.078.082.115.125l.112.129c.036.043.071.087.106.132s.069.09.1.136.066.092.1.139.063.094.093.142.061.1.089.145.056.1.084.148.054.1.08.151.049.1.073.153.047.1.069.156.043.1.063.157.041.106.059.16.036.107.052.161.034.108.048.163.029.109.043.164.026.11.037.166.022.111.031.167.019.112.026.168.014.112.02.168.01.113.015.169.007.113.009.17,0,.113,0,.17,0,.113,0,.17,0,.113-.008.17-.008.113-.013.169-.013.113-.02.169-.014.112-.024.168-.019.112-.03.167-.022.111-.035.166-.025.11-.039.165-.03.109-.047.164-.034.108-.052.162-.038.107-.058.16-.04.106-.061.158-.043.1-.067.156-.048.1-.073.154-.051.1-.078.151-.053.1-.082.148-.058.1-.087.146-.06.1-.091.143l-.1.14c-.033.046-.067.092-.1.137s-.068.09-.1.133-.073.087-.109.13l-.115.126c-.039.041-.078.082-.117.122l-.123.118c-.041.039-.083.077-.126.114s-.086.074-.13.11-.087.071-.132.105l-.137.1c-.046.033-.092.065-.139.1s-.095.062-.143.092-.1.059-.145.087l-.148.082-.152.077c-.051.025-.1.049-.152.072l-.156.067c-.053.022-.106.042-.16.062s-.105.039-.16.057-.107.035-.162.051-.109.031-.164.046l-.165.041c-.054.013-.109.024-.165.035-.082.016-.164.03-.247.042s-.167.022-.251.03-.167.014-.251.018-.167.006-.251.005-.168,0-.251-.007-.168-.011-.251-.019-.166-.019-.249-.031-.166-.027-.249-.043-.163-.035-.243-.055-.163-.043-.243-.067-.16-.051-.238-.079-.157-.058-.234-.09-.155-.066-.23-.1-.151-.074-.225-.113-.148-.081-.219-.124-.142-.088-.212-.134-.138-.095-.206-.144-.133-.1-.2-.154-.129-.108-.191-.164-.123-.114-.182-.173-.118-.12-.175-.182-.11-.125-.164-.19-.106-.131-.156-.2-.1-.136-.145-.205-.092-.14-.136-.212-.085-.144-.125-.218-.079-.148-.115-.224-.07-.152-.1-.229-.063-.155-.093-.234-.055-.158-.08-.238-.048-.161-.069-.242-.039-.163-.056-.245-.032-.165-.045-.248-.023-.166-.034-.249-.015-.167-.019-.251-.008-.168-.009-.251,0-.168,0-.251.009-.168.017-.251.017-.167.03-.25.025-.166.041-.248.032-.164.052-.246.042-.163.065-.243.049-.16.076-.239.057-.158.089-.235.064-.155.1-.231.072-.152.112-.226.079-.148.121-.22.086-.144.132-.214.094-.139.143-.207.1-.135.152-.2.106-.129.162-.192.112-.124.171-.184.118-.119.179-.176.125-.113.19-.167.128-.107.195-.157.135-.1.2-.148.138-.094.21-.137.144-.086.218-.127.148-.079.223-.117.15-.072.227-.105.156-.065.234-.094.157-.057.238-.083.159-.049.24-.071S526.262,41.511,526.344,41.493Z" transform="translate(-261.117 -5.339)" fill="#4eacf1"/>
      <path id="Path_1001242" data-name="Path 1001242" d="M531.965,50.3c.023-.014.048-.027.073-.04s.05-.024.076-.035.052-.021.078-.03.053-.017.08-.024.055-.014.082-.019.055-.01.082-.014.055-.006.084-.008.055,0,.084,0,.055,0,.084,0l.082.009c.028,0,.056.009.084.015s.053.012.08.02.054.016.08.026.051.02.076.031.051.023.076.036.049.027.073.041.047.03.069.046.046.033.067.051l.063.055c.02.019.039.039.058.059a.829.829,0,0,1,.056.063c.017.022.034.044.05.067s.031.046.045.07.028.048.041.073.026.05.037.075.021.051.03.078.019.053.026.079a.821.821,0,0,1,.019.081c.006.027.011.055.015.082s.007.055.009.083,0,.055,0,.083,0,.055,0,.083,0,.055-.008.083-.009.055-.015.082-.011.054-.019.081-.016.054-.024.08-.02.052-.031.078a.575.575,0,0,1-.035.075c-.012.025-.025.049-.039.073l-.045.07c-.016.023-.033.045-.05.067s-.035.043-.054.063l-.059.059c-.02.019-.04.038-.061.055l-.067.051c-.022.016-.045.032-.069.047s-.048.029-.073.042-.05.025-.074.037l-.054.023-.054.02-.056.017-.058.015-.056.012-.058.009-.058.007-.059,0h-.058l-.058,0-.059,0-.058-.007-.058-.01-.056-.012-.058-.015-.056-.018-.054-.02-.054-.023-.052-.026-.052-.028-.048-.03a.507.507,0,0,1-.048-.033l-.047-.035-.047-.037-.043-.039-.041-.041-.039-.043-.037-.045c-.012-.015-.024-.031-.035-.047l-.033-.048-.03-.05c-.01-.017-.019-.034-.028-.051l-.026-.052c-.008-.018-.015-.035-.022-.054s-.014-.036-.02-.055l-.019-.055c0-.019-.01-.038-.015-.056s-.009-.038-.013-.057-.007-.038-.009-.058,0-.039-.008-.058a.431.431,0,0,1,0-.058c0-.019,0-.039,0-.058v-.059c0-.019,0-.039,0-.058s0-.039.008-.058.006-.039.009-.058.008-.038.013-.057.008-.038.013-.056l.019-.056c.006-.018.013-.036.02-.055a.51.51,0,0,1,.022-.054c.008-.018.016-.035.024-.053s.018-.035.028-.051l.03-.05c.01-.016.02-.033.031-.048s.023-.031.035-.047l.037-.045c.012-.015.025-.029.039-.043s.026-.028.041-.042l.043-.039a.562.562,0,0,1,.045-.038l.047-.035c.015-.012.03-.023.047-.033Z" transform="translate(-266.174 -10.212)" fill="#f8f2ef"/>
      <path id="Path_1001243" data-name="Path 1001243" d="M348.8,114.868c.066-.07.133-.137.2-.2s.141-.129.214-.19.148-.12.225-.176.156-.111.235-.163.162-.1.245-.148.168-.091.253-.133.173-.081.261-.118.177-.07.267-.1.181-.06.273-.086.184-.049.277-.07.187-.038.281-.053.189-.027.284-.036.19-.015.285-.019.191,0,.286,0,.191.008.286.016.19.019.284.033.188.03.282.05.186.042.278.066.183.053.274.083.18.063.268.1.176.074.262.115.171.085.254.131.166.095.246.146.16.1.237.16.153.114.227.174.146.123.216.187.138.131.2.2.13.139.192.212.122.147.179.223.113.154.166.234.1.16.151.243.094.166.137.251c.032.065.064.13.094.2s.058.133.085.2.051.135.075.2.046.137.066.207.039.14.056.21.033.141.047.212.027.142.037.214.02.144.027.215.013.144.017.217.007.144.008.217,0,.145,0,.217-.006.144-.012.217-.013.144-.022.216-.02.144-.032.215-.026.142-.041.213-.032.141-.051.211-.039.14-.061.208-.045.138-.07.206-.051.135-.079.2-.057.133-.088.2-.063.13-.1.194-.069.127-.106.19-.075.124-.114.184-.081.121-.123.179-.086.117-.131.173-.091.113-.139.167-.1.108-.146.161-.1.1-.153.154-.105.1-.16.147-.11.094-.167.139-.114.089-.173.132-.118.084-.179.124-.122.078-.184.115-.125.073-.189.107-.129.067-.194.1-.131.061-.2.09-.134.055-.2.08-.136.049-.205.071-.138.043-.208.062-.14.036-.211.052-.142.03-.213.043-.143.023-.214.033-.144.017-.216.023-.144.011-.217.013-.145,0-.217,0-.145,0-.217-.007-.144-.01-.217-.017-.144-.016-.215-.027-.143-.023-.214-.036-.142-.029-.212-.046-.14-.035-.21-.055-.139-.042-.207-.065-.137-.048-.2-.074-.134-.054-.2-.083-.132-.06-.2-.093-.129-.066-.192-.1-.126-.072-.187-.11-.122-.078-.182-.118-.118-.083-.176-.127-.115-.088-.171-.134-.111-.094-.164-.142-.106-.1-.158-.149-.1-.1-.151-.156-.1-.108-.144-.163-.092-.112-.136-.169-.087-.116-.128-.176-.082-.12-.12-.181-.076-.124-.112-.187-.07-.127-.1-.191-.064-.13-.094-.2-.058-.133-.085-.2-.052-.135-.076-.2-.046-.137-.067-.207-.04-.139-.057-.21-.033-.141-.047-.212-.027-.142-.038-.214-.02-.143-.028-.215-.014-.144-.019-.217-.007-.144-.008-.217,0-.145,0-.217.006-.145.012-.217.012-.144.021-.216.019-.144.031-.215.026-.143.041-.213.032-.141.051-.211.038-.14.06-.209.045-.138.069-.206.051-.136.078-.2.057-.133.087-.2.063-.13.1-.195.069-.128.105-.19.074-.124.114-.185.08-.121.122-.179.086-.117.13-.174.091-.113.138-.168Z" transform="translate(-163.792 -45.427)" fill="#4eacf1"/>
      <path id="Path_1001244" data-name="Path 1001244" d="M354.59,121.8a8.31,8.31,0,0,1,2.483-2.345c.439-.174.556-.042.975.137a23,23,0,0,1-3.536,3.532c-.616-.533-2.656-2.012-2.692-2.851a3.007,3.007,0,0,1,.027-.472c.031,0,.062,0,.094,0C352.9,119.778,353.951,121.156,354.59,121.8Z" transform="translate(-166.201 -48.769)" fill="#f8f2ef"/>
    </g>
  </g>
</svg>
