<svg xmlns="http://www.w3.org/2000/svg" width="80" height="80" viewBox="0 0 80 80">
  <g id="img14" transform="translate(-705.629 -1685)">
    <g id="Group_1178970" data-name="Group 1178970" transform="translate(705.629 1685)">
      <path id="Subtraction_110" data-name="Subtraction 110" d="M80,80h0L32.943,80l-1.885-4.512H5.651L3.767,80H0V0H48.35l1.883,4.51H75.644L77.528,0H80V80Z" transform="translate(0)" fill="#ffd470"/>
    </g>
    <path id="Path_998456" data-name="Path 998456" d="M-3,0H18.647l2.824,6.588H-.176Z" transform="translate(763.217 1685)" fill="#19538d"/>
    <g id="_x32_2_setting" transform="translate(717.805 1696.883)">
      <g id="Group_1182394" data-name="Group 1182394" transform="translate(1 3.179)">
        <g id="Group_1182392" data-name="Group 1182392">
          <path id="Path_1001097" data-name="Path 1001097" d="M10.026,14.086A2.827,2.827,0,1,0,7.2,11.258,2.83,2.83,0,0,0,10.026,14.086Zm0-3.924a1.1,1.1,0,1,1-1.1,1.1A1.1,1.1,0,0,1,10.026,10.163Z" transform="translate(-1.835 -3.887)" fill="#19538d"/>
          <path id="Path_1001098" data-name="Path 1001098" d="M18.842,14.086a2.827,2.827,0,1,0-2.826-2.829A2.832,2.832,0,0,0,18.842,14.086Zm0-3.924a1.1,1.1,0,1,1-1.1,1.1A1.1,1.1,0,0,1,18.842,10.163Z" transform="translate(-3.023 -3.887)" fill="#19538d"/>
          <path id="Path_1001099" data-name="Path 1001099" d="M31.938,14.086H47.2a2.827,2.827,0,1,0,0-5.654H31.938a2.827,2.827,0,0,0,0,5.654Zm0-3.924H47.2a1.1,1.1,0,1,1,0,2.193H31.938a1.1,1.1,0,0,1,0-2.193Z" transform="translate(-4.788 -3.887)" fill="#19538d"/>
          <path id="Path_1001100" data-name="Path 1001100" d="M40.834,39.029a1.925,1.925,0,0,0-.567-1.374l-.23-.23a9.118,9.118,0,0,0,.646-1.559h.326a1.939,1.939,0,0,0,1.937-1.937V32.364a1.939,1.939,0,0,0-1.937-1.937h-.322a9.114,9.114,0,0,0-.65-1.575l.229-.229a1.94,1.94,0,0,0,0-2.742l-1.1-1.1a1.926,1.926,0,0,0-1.371-.566h0a1.917,1.917,0,0,0-1.363.565l-.233.232a9.183,9.183,0,0,0-1.6-.66v-.309A1.939,1.939,0,0,0,32.656,22.1H31.09a1.939,1.939,0,0,0-1.937,1.937v.331a9.078,9.078,0,0,0-1.56.653l-.224-.223A1.917,1.917,0,0,0,26,24.23h0a1.927,1.927,0,0,0-1.372.567l-1.1,1.1a1.94,1.94,0,0,0,0,2.742l.237.238a9.108,9.108,0,0,0-.636,1.545H22.8a1.939,1.939,0,0,0-1.937,1.937v1.564A1.939,1.939,0,0,0,22.8,35.865h.332a9.121,9.121,0,0,0,.646,1.559l-.23.23a1.939,1.939,0,0,0,0,2.739L24.648,41.5a1.917,1.917,0,0,0,1.368.569h0a1.925,1.925,0,0,0,1.372-.568l.229-.23a9.167,9.167,0,0,0,1.562.649v.336a1.94,1.94,0,0,0,1.937,1.938h1.567a1.94,1.94,0,0,0,1.937-1.938v-.334a9.1,9.1,0,0,0,1.568-.651l.23.23a1.918,1.918,0,0,0,1.367.57h0a1.924,1.924,0,0,0,1.372-.568l1.1-1.1a1.917,1.917,0,0,0,.569-1.367Zm-1.658-4.221a7.42,7.42,0,0,1-.952,2.3.865.865,0,0,0,.121,1.071l.7.7a.208.208,0,0,1,.06.148.2.2,0,0,1-.06.145l-1.1,1.107a.209.209,0,0,1-.148.06c-.007-.024-.1-.01-.145-.06l-.7-.7a.864.864,0,0,0-1.073-.12,7.4,7.4,0,0,1-2.306.958.865.865,0,0,0-.674.844v1a.21.21,0,0,1-.207.207H31.119a.21.21,0,0,1-.207-.207v-1a.865.865,0,0,0-.671-.843,7.428,7.428,0,0,1-2.3-.958.866.866,0,0,0-1.075.121l-.7.7a.207.207,0,0,1-.147.06c.007-.009-.092-.007-.145-.06l-1.109-1.109a.2.2,0,0,1-.057-.142.208.208,0,0,1,.06-.148l.7-.7a.865.865,0,0,0,.121-1.071,7.42,7.42,0,0,1-.952-2.3.865.865,0,0,0-.844-.673H22.8a.209.209,0,0,1-.207-.207V32.364a.209.209,0,0,1,.207-.207h.992a.865.865,0,0,0,.844-.675,7.414,7.414,0,0,1,.942-2.288.865.865,0,0,0-.123-1.069l-.7-.7a.208.208,0,0,1-.06-.148.205.205,0,0,1,.06-.146l1.1-1.106a.209.209,0,0,1,.148-.06c0,.014.092.007.146.061l.7.7a.864.864,0,0,0,1.076.117,7.327,7.327,0,0,1,2.294-.962.865.865,0,0,0,.67-.843v-.992a.209.209,0,0,1,.207-.207h1.567a.209.209,0,0,1,.207.207v.974a.865.865,0,0,0,.676.844,7.487,7.487,0,0,1,2.336.964.863.863,0,0,0,1.069-.12l.705-.7a.2.2,0,0,1,.142-.057h0a.21.21,0,0,1,.148.06l1.1,1.1a.208.208,0,0,1,.06.148.205.205,0,0,1-.061.146l-.7.7a.865.865,0,0,0-.12,1.071,7.417,7.417,0,0,1,.955,2.312.865.865,0,0,0,.844.674h.986a.209.209,0,0,1,.207.207v1.564a.209.209,0,0,1-.207.207H40.02a.865.865,0,0,0-.844.673Z" transform="translate(-3.675 -5.728)" fill="#19538d"/>
          <path id="Path_1001101" data-name="Path 1001101" d="M32.893,29.445a4.691,4.691,0,1,0,4.691,4.691,4.7,4.7,0,0,0-4.691-4.691Zm0,7.651a2.96,2.96,0,1,1,2.96-2.96A2.965,2.965,0,0,1,32.893,37.1Z" transform="translate(-4.664 -6.718)" fill="#19538d"/>
          <path id="Path_1001102" data-name="Path 1001102" d="M51.6,37.668V7.749a4.575,4.575,0,0,0-4.569-4.57H5.57A4.575,4.575,0,0,0,1,7.749V45.024a4.575,4.575,0,0,0,4.57,4.57H38.924A8.752,8.752,0,1,0,51.6,37.668ZM5.57,4.91H47.034a2.842,2.842,0,0,1,2.839,2.839v8.444H2.731V7.749A2.843,2.843,0,0,1,5.57,4.91Zm0,42.953a2.843,2.843,0,0,1-2.839-2.839v-27.1H49.872V36.485c-.076-.039-.148-.062-.222-.093a8.75,8.75,0,0,0-11.8,11.391c.011.027.017.052.029.08H5.57Zm40.315,3.462a7.032,7.032,0,1,1,7.032-7.032A7.04,7.04,0,0,1,45.884,51.324Z" transform="translate(-1 -3.179)" fill="#19538d"/>
          <path id="Path_1001103" data-name="Path 1001103" d="M7.094,24.971H18.782a.865.865,0,0,0,0-1.731H7.094a.865.865,0,1,0,0,1.731Z" transform="translate(-1.704 -5.882)" fill="#19538d"/>
          <path id="Path_1001104" data-name="Path 1001104" d="M18.147,28.069H15.42a.865.865,0,0,0,0,1.731h2.727a.865.865,0,1,0,0-1.731Z" transform="translate(-2.826 -6.532)" fill="#19538d"/>
          <path id="Path_1001105" data-name="Path 1001105" d="M7.094,29.8h3.026a.865.865,0,1,0,0-1.731H7.094a.865.865,0,1,0,0,1.731Z" transform="translate(-1.704 -6.532)" fill="#19538d"/>
          <path id="Path_1001106" data-name="Path 1001106" d="M7.094,34.628h8.172a.865.865,0,0,0,0-1.731H7.094a.865.865,0,1,0,0,1.731Z" transform="translate(-1.704 -7.183)" fill="#19538d"/>
          <path id="Path_1001107" data-name="Path 1001107" d="M7.094,39.457h9.218a.865.865,0,1,0,0-1.731H7.094a.865.865,0,0,0,0,1.731Z" transform="translate(-1.704 -7.834)" fill="#19538d"/>
          <path id="Path_1001108" data-name="Path 1001108" d="M18.222,42.559H15.975a.865.865,0,0,0,0,1.731h2.247a.865.865,0,0,0,0-1.731Z" transform="translate(-2.901 -8.485)" fill="#19538d"/>
          <path id="Path_1001109" data-name="Path 1001109" d="M10.6,42.559H7.094a.865.865,0,0,0,0,1.731H10.6a.865.865,0,0,0,0-1.731Z" transform="translate(-1.704 -8.485)" fill="#19538d"/>
          <path id="Path_1001110" data-name="Path 1001110" d="M21.841,47.387H14.284a.865.865,0,0,0,0,1.731h7.557a.865.865,0,1,0,0-1.731Z" transform="translate(-2.673 -9.135)" fill="#19538d"/>
          <path id="Path_1001111" data-name="Path 1001111" d="M9.137,47.387H7.094a.865.865,0,0,0,0,1.731H9.137a.865.865,0,0,0,0-1.731Z" transform="translate(-1.704 -9.135)" fill="#19538d"/>
        </g>
        <g id="Group_1182393" data-name="Group 1182393" transform="translate(40.596 37.838)">
          <path id="Path_1001112" data-name="Path 1001112" d="M50.932,53.459a.862.862,0,0,1-.6-.245l-2.15-2.088a.865.865,0,1,1,1.206-1.241l1.53,1.486,4.093-4.2a.865.865,0,0,1,1.24,1.207l-4.7,4.821A.863.863,0,0,1,50.932,53.459Z" transform="translate(-47.918 -46.908)" fill="#19538d"/>
        </g>
      </g>
    </g>
  </g>
</svg>
