<svg xmlns="http://www.w3.org/2000/svg" width="80" height="80" viewBox="0 0 80 80">
  <g id="img11" transform="translate(-705.629 -1685)">
    <g id="Group_1178970" data-name="Group 1178970" transform="translate(705.629 1685)">
      <path id="Subtraction_110" data-name="Subtraction 110" d="M80,80h0L32.943,80l-1.885-4.512H5.651L3.767,80H0V0H48.35l1.883,4.51H75.644L77.528,0H80V80Z" transform="translate(0)" fill="#ffd470"/>
    </g>
    <path id="Path_998456" data-name="Path 998456" d="M-3,0H18.647l2.824,6.588H-.176Z" transform="translate(763.217 1685)" fill="#19538d"/>
    <g id="Layer_3" data-name="Layer 3" transform="translate(716.805 1696.398)">
      <path id="Path_1000765" data-name="Path 1000765" d="M18.887,13.773H29.527a.887.887,0,0,0,0-1.773H18.887a.887.887,0,0,0,0,1.773Z" transform="translate(-1.812 -1.133)" fill="#19538d"/>
      <path id="Path_1000766" data-name="Path 1000766" d="M18.887,9.773H33.074a.887.887,0,0,0,0-1.773H18.887a.887.887,0,1,0,0,1.773Z" transform="translate(-1.812 -0.68)" fill="#19538d"/>
      <path id="Path_1000767" data-name="Path 1000767" d="M18.887,17.773H20.66a.887.887,0,1,0,0-1.773H18.887a.887.887,0,1,0,0,1.773Z" transform="translate(-1.812 -1.586)" fill="#19538d"/>
      <path id="Path_1000768" data-name="Path 1000768" d="M12.887,9.773H14.66A.887.887,0,1,0,14.66,8H12.887a.887.887,0,1,0,0,1.773Z" transform="translate(-1.133 -0.68)" fill="#19538d"/>
      <path id="Path_1000769" data-name="Path 1000769" d="M12.887,13.773H14.66a.887.887,0,1,0,0-1.773H12.887a.887.887,0,0,0,0,1.773Z" transform="translate(-1.133 -1.133)" fill="#19538d"/>
      <path id="Path_1000770" data-name="Path 1000770" d="M12.887,17.773H14.66a.887.887,0,1,0,0-1.773H12.887a.887.887,0,1,0,0,1.773Z" transform="translate(-1.133 -1.586)" fill="#19538d"/>
      <path id="Path_1000771" data-name="Path 1000771" d="M55.177,49.812,49.99,40.821a10.622,10.622,0,0,0-7.2-17.5V12.3l2.66-1.33,3.148,1.57a.913.913,0,0,0,.4.1.9.9,0,0,0,.47-.133.887.887,0,0,0,.417-.754V6.434A4.434,4.434,0,0,0,45.449,2H9.981A4.434,4.434,0,0,0,5.547,6.434V46.8L3.312,45.565a.865.865,0,0,0-.878.009A.9.9,0,0,0,2,46.336V50.77A4.434,4.434,0,0,0,6.434,55.2H38.356a4.434,4.434,0,0,0,4.434-4.434V44.518a10.407,10.407,0,0,0,1.055-.142l5.187,8.983a3.494,3.494,0,0,0,2.146,1.649,3.362,3.362,0,0,0,.931.124,3.449,3.449,0,0,0,1.765-.479,3.554,3.554,0,0,0,1.3-4.842ZM42.789,6.434a2.66,2.66,0,0,1,5.32,0v3.884L45.849,9.191a.865.865,0,0,0-.8,0l-2.261,1.126Zm-36.356,47a2.668,2.668,0,0,1-2.66-2.66V47.844l1.88,1.037a.874.874,0,0,0,.86,0L9.28,47.347l2.767,1.534a.874.874,0,0,0,.86,0l2.758-1.534,2.758,1.534a.874.874,0,0,0,.86,0l2.767-1.534,2.758,1.534a.874.874,0,0,0,.86,0l2.767-1.534,2.758,1.534a.874.874,0,0,0,.86,0l1.871-1.037V50.77a4.42,4.42,0,0,0,.887,2.66Zm34.582-2.66a2.66,2.66,0,1,1-5.32,0V46.336a.9.9,0,0,0-.434-.763.881.881,0,0,0-.887-.009L31.617,47.1l-2.758-1.534a.874.874,0,0,0-.86,0L25.241,47.1l-2.767-1.534a.874.874,0,0,0-.86,0L18.857,47.1,16.1,45.565a.887.887,0,0,0-.869,0L12.472,47.1,9.715,45.565a.874.874,0,0,0-.86,0l-1.534.842V6.434a2.668,2.668,0,0,1,2.66-2.66H41.929a4.366,4.366,0,0,0-.913,2.66V23.326a10.6,10.6,0,0,0-3.547.94V18.848a.887.887,0,0,0-.887-.887H11.754a.887.887,0,0,0-.887.887V34.809a.887.887,0,0,0,.887.887H31.422a10.656,10.656,0,0,0,9.594,8.823ZM17.961,23.281V19.734H35.7v3.547ZM35.7,25.055v.239a10.641,10.641,0,0,0-4.434,8.628h-13.3V25.055ZM12.641,23.281V19.734h3.547v3.547Zm3.547,1.773v8.867H12.641V25.055ZM41.9,42.789a8.867,8.867,0,1,1,8.867-8.867A8.867,8.867,0,0,1,41.9,42.789Zm11.909,9.257a1.805,1.805,0,0,1-.825,1.082,1.782,1.782,0,0,1-1.348.168,1.763,1.763,0,0,1-1.073-.825l-4.957-8.583a10.838,10.838,0,0,0,3.077-1.773L53.643,50.7a1.782,1.782,0,0,1,.168,1.348Z" fill="#19538d"/>
      <path id="Path_1000772" data-name="Path 1000772" d="M23.527,42H12.887a.887.887,0,0,0-.887.887v3.547a.887.887,0,0,0,.887.887H23.527a.887.887,0,0,0,.887-.887V42.887A.887.887,0,0,0,23.527,42Zm-.887,3.547H13.773V43.773h8.867Z" transform="translate(-1.133 -4.531)" fill="#19538d"/>
    </g>
  </g>
</svg>
